SplineFontDB: 3.0
FontName: Untitled4
FullName: Untitled4
FamilyName: Untitled4
Weight: Medium
Copyright: Created by hn,,, with FontForge 2.0 (http://fontforge.sf.net)
UComments: "2014-5-10: Created." 
Version: 001.000
ItalicAngle: 0
UnderlinePosition: -100
UnderlineWidth: 50
Ascent: 800
Descent: 200
LayerCount: 2
Layer: 0 0 "+gMxmbwAA"  1
Layer: 1 0 "+Uk1mbwAA"  0
XUID: [1021 957 1260883539 12060307]
OS2Version: 0
OS2_WeightWidthSlopeOnly: 0
OS2_UseTypoMetrics: 1
CreationTime: 1399721753
ModificationTime: 1399722790
OS2TypoAscent: 0
OS2TypoAOffset: 1
OS2TypoDescent: 0
OS2TypoDOffset: 1
OS2TypoLinegap: 0
OS2WinAscent: 0
OS2WinAOffset: 1
OS2WinDescent: 0
OS2WinDOffset: 1
HheadAscent: 0
HheadAOffset: 1
HheadDescent: 0
HheadDOffset: 1
OS2Vendor: 'PfEd'
DEI: 91125
Encoding: UnicodeBmp
UnicodeInterp: none
NameList: Adobe Glyph List
DisplaySize: -48
AntiAlias: 1
FitToEm: 1
WinInfo: 8496 12 10
BeginChars: 65536 469

StartChar: A
Encoding: 65 65 0
Width: 772
Flags: W
HStem: 0 29<50.2285 121.574 200.665 249.698 472.196 552.781 644.059 721.681> 236 29<306 541> 694 20G<556 566.5>
VStem: 50 144<7 70>
LayerCount: 2
Fore
SplineSet
186 111 m 2
 536 697 l 2
 545 712 551 714 561 714 c 0
 572 714 576 712 578 692 c 2
 639 68 l 2
 642 38 643 29 698 29 c 0
 713 29 722 29 722 19 c 0
 722 0 711 0 704 0 c 0
 703 0 659 2 598 2 c 2
 541 2 l 2
 524 2 504 0 487 0 c 0
 481 0 472 0 472 11 c 0
 472 29 483 29 494 29 c 0
 510 29 561 31 561 61 c 0
 561 80 549 184 546 210 c 0
 545 219 545 227 544 236 c 1
 289 236 l 1
 213 110 l 2
 200 88 194 77 194 63 c 0
 194 39 213 31 236 29 c 0
 242 29 250 28 250 19 c 0
 250 0 238 0 232 0 c 0
 204 0 172 2 143 2 c 0
 125 2 80 0 62 0 c 0
 55 0 50 4 50 10 c 0
 50 28 58 28 69 29 c 0
 117 32 151 52 186 111 c 2
306 265 m 1
 541 265 l 1
 507 601 l 1
 306 265 l 1
EndSplineSet
Validated: 1
EndChar

StartChar: B
Encoding: 66 66 1
Width: 795
Flags: W
HStem: 0 29<50.1826 147.469 226.001 467.838> 345 20<306 518.173> 654 29<214.238 298.767 375.74 612.286>
VStem: 606 84<143.969 286.678> 663 82<473.187 614.341>
LayerCount: 2
Fore
SplineSet
368 615 m 2xe8
 306 365 l 1
 450 365 l 2
 582 365 663 468 663 549 c 0
 663 558 663 654 550 654 c 2
 420 654 l 2
 381 654 377 652 368 615 c 2xe8
537 357 m 1
 618 349 690 299 690 217 c 0xf0
 690 116 572 0 419 0 c 2
 76 0 l 2
 56 0 50 0 50 11 c 0
 50 29 60 29 79 29 c 0
 149 29 151 39 160 74 c 2
 295 612 l 2
 299 627 299 633 299 635 c 0
 299 646 299 654 238 654 c 0
 223 654 214 654 214 664 c 0
 214 683 223 683 242 683 c 2
 563 683 l 2
 676 683 745 623 745 545 c 0
 745 453 646 377 537 357 c 1
395 29 m 2
 519 29 606 131 606 227 c 0
 606 235 606 345 488 345 c 2
 300 345 l 1
 230 63 l 2
 228 54 226 48 226 41 c 0
 226 33 227 31 238 30 c 0
 244 29 246 29 260 29 c 2
 395 29 l 2
EndSplineSet
Validated: 1
EndChar

StartChar: C
Encoding: 67 67 2
Width: 797
Flags: W
HStem: -21 29<253.858 400.702> 675 29<417.395 566.192>
VStem: 50 82<136.288 356.804> 611 23<210.698 248.983> 655 29<421.016 468.333>
LayerCount: 2
Fore
SplineSet
747 695 m 1
 684 440 l 2
 680 422 679 421 668 421 c 0
 665 421 655 421 655 430 c 0
 655 434 658 456 658 482 c 0
 658 584 609 675 499 675 c 0
 404 675 310 619 255 555 c 0
 142 424 132 250 132 218 c 0
 132 76 224 8 330 8 c 0
 430 8 565 83 611 239 c 0
 613 243 614 249 623 249 c 0
 626 249 634 249 634 240 c 0
 634 232 608 135 521 62 c 0
 463 13 393 -21 313 -21 c 0
 167 -21 50 83 50 250 c 0
 50 485 274 704 490 704 c 0
 565 704 620 670 655 610 c 1
 724 694 l 2
 732 704 736 704 738 704 c 0
 740 704 747 704 747 695 c 1
EndSplineSet
Validated: 1
EndChar

StartChar: D
Encoding: 68 68 3
Width: 842
Flags: W
HStem: 0 29<50.1826 147.469 229.001 458.851> 654 29<214.238 298.767 378.74 607.838>
VStem: 713 79<327.834 548.397>
LayerCount: 2
Fore
SplineSet
160 74 m 2
 295 612 l 2
 299 627 299 633 299 635 c 0
 299 646 299 654 238 654 c 0
 223 654 214 654 214 664 c 0
 214 683 223 683 242 683 c 2
 563 683 l 2
 706 683 792 576 792 432 c 0
 792 209 595 0 393 0 c 2
 76 0 l 2
 56 0 50 0 50 11 c 0
 50 29 60 29 79 29 c 0
 149 29 151 39 160 74 c 2
371 615 m 2
 233 63 l 2
 231 54 229 48 229 41 c 0
 229 33 230 31 241 30 c 0
 247 29 249 29 263 29 c 2
 377 29 l 2
 492 29 568 98 596 131 c 0
 693 241 713 415 713 465 c 0
 713 603 627 654 533 654 c 2
 423 654 l 2
 384 654 380 652 371 615 c 2
EndSplineSet
Validated: 1
EndChar

StartChar: E
Encoding: 69 69 4
Width: 807
Flags: W
HStem: 0 29<50.1826 147.469 231.001 516.227> 339 29<311 476.124> 652 29<213.187 298.879 380.791 668.881>
VStem: 673 30<209.838 255.035>
LayerCount: 2
Fore
SplineSet
699 232 m 2
 608 17 l 2
 601 1 600 0 578 0 c 2
 76 0 l 2
 56 0 50 0 50 11 c 0
 50 29 60 29 79 29 c 0
 149 29 151 39 160 74 c 2
 295 614 l 2
 298 625 299 629 299 634 c 0
 299 645 299 652 237 652 c 0
 220 652 213 652 213 663 c 0
 213 681 223 681 242 681 c 2
 730 681 l 2
 748 681 757 681 757 670 c 0
 757 668 755 658 755 655 c 2
 734 480 l 2
 732 462 728 458 721 458 c 0
 715 458 710 461 710 469 c 0
 710 471 711 477 712 481 c 0
 716 514 716 542 716 543 c 0
 716 619 691 652 568 652 c 2
 425 652 l 2
 384 652 382 649 373 614 c 2
 311 368 l 1
 406 368 l 2
 495 368 515 390 535 467 c 0
 539 481 540 485 549 485 c 0
 555 485 559 480 559 475 c 1
 502 243 l 2
 498 229 497 222 488 222 c 0
 482 222 477 225 477 232 c 0
 477 235 478 239 480 243 c 1
 487 273 487 282 487 292 c 0
 487 322 481 339 403 339 c 2
 304 339 l 1
 235 63 l 2
 233 54 231 48 231 41 c 0
 231 33 232 31 243 30 c 0
 249 29 251 29 265 29 c 2
 411 29 l 2
 571 29 614 89 673 229 c 0
 682 249 682 251 684 252 c 0
 687 255 689 256 693 256 c 0
 699 256 703 251 703 246 c 0
 703 242 700 235 699 232 c 2
EndSplineSet
Validated: 1
EndChar

StartChar: F
Encoding: 70 70 5
Width: 793
Flags: W
HStem: 0 29<50.1826 147.469 233.705 341.772> 326 29<308 467.73> 652 29<213.187 298.879 380.791 656.439>
VStem: 696 24<458.049 538.333>
CounterMasks: 1 e0
LayerCount: 2
Fore
SplineSet
301 326 m 1
 237 71 l 2
 235 64 233 56 233 51 c 0
 233 36 235 29 314 29 c 0
 336 29 342 29 342 18 c 0
 342 0 330 0 321 0 c 0
 299 0 275 2 253 2 c 2
 123 2 l 2
 104 2 84 0 65 0 c 0
 59 0 50 0 50 11 c 0
 50 29 60 29 79 29 c 0
 149 29 151 39 160 74 c 2
 295 614 l 2
 298 625 299 629 299 634 c 0
 299 645 299 652 237 652 c 0
 220 652 213 652 213 663 c 0
 213 681 223 681 242 681 c 2
 716 681 l 2
 734 681 743 681 743 670 c 0
 743 668 741 658 741 655 c 2
 720 480 l 2
 718 462 714 458 707 458 c 0
 701 458 696 461 696 469 c 0
 696 473 698 486 699 490 c 0
 702 516 702 538 702 544 c 0
 702 615 684 652 559 652 c 2
 425 652 l 2
 384 652 382 649 373 614 c 2
 308 355 l 1
 399 355 l 2
 486 355 506 376 527 451 c 0
 531 468 532 472 541 472 c 0
 548 472 551 466 551 462 c 2
 493 229 l 2
 489 213 488 209 480 209 c 0
 473 209 469 213 469 220 c 0
 469 222 470 227 472 231 c 1
 477 253 479 267 479 280 c 0
 479 309 473 326 397 326 c 2
 301 326 l 1
EndSplineSet
Validated: 1
EndChar

StartChar: G
Encoding: 71 71 6
Width: 796
Flags: W
HStem: -21 29<258.923 410.212> 1 21G<563.5 569.5> 242 29<445 548.173 632.954 705.663> 675 29<416.899 565.44>
VStem: 50 83<137.574 358.737> 654 29<421.016 468.333>
LayerCount: 2
Fore
SplineSet
746 695 m 1xbc
 683 440 l 2
 679 422 678 421 667 421 c 0
 664 421 654 421 654 430 c 0
 654 444 658 466 658 482 c 0
 658 574 616 675 498 675 c 0
 410 675 317 626 254 554 c 0
 157 441 133 288 133 221 c 0
 133 48 258 8 335 8 c 0xbc
 394 8 473 31 511 87 c 1
 530 117 549 218 549 219 c 0
 549 234 549 242 470 242 c 2
 445 242 l 1
 445 243 437 243 437 253 c 0
 437 271 449 271 458 271 c 0
 499 271 543 269 585 269 c 2
 639 269 l 2
 657 269 676 271 693 271 c 0
 696 271 706 271 706 261 c 0
 706 242 694 242 690 242 c 0
 635 241 633 238 623 200 c 0
 616 170 612 156 604 123 c 2
 588 59 l 2
 583 41 575 6 574 4 c 0
 573 4 572 1 567 1 c 0x7c
 560 1 538 28 527 66 c 1
 477 3 386 -21 314 -21 c 0
 164 -21 50 85 50 250 c 0
 50 486 275 704 489 704 c 0
 504 704 547 704 590 677 c 1
 629 654 649 619 654 611 c 1
 723 694 l 2
 731 704 735 704 737 704 c 0
 739 704 746 704 746 695 c 1xbc
EndSplineSet
Validated: 1
EndChar

StartChar: H
Encoding: 72 72 7
Width: 912
Flags: W
HStem: 0 29<50.1924 147.536 233.119 317.681 430.274 527.952 613.119 697.681> 341 29<312 607> 654 29<213.302 298.771 383.872 481.818 593.302 678.771 763.872 861.818>
LayerCount: 2
Fore
SplineSet
752 610 m 2
 615 63 l 2
 613 55 613 48 613 47 c 0
 613 37 613 29 674 29 c 0
 689 29 698 29 698 19 c 0
 698 0 687 0 679 0 c 0
 660 0 639 2 620 2 c 2
 502 2 l 2
 483 2 462 0 444 0 c 0
 441 0 430 0 430 10 c 0
 430 29 439 29 451 29 c 0
 510 30 526 30 537 60 c 0
 539 66 590 275 607 341 c 1
 304 341 l 1
 235 63 l 2
 233 55 233 48 233 47 c 0
 233 37 233 29 294 29 c 0
 309 29 318 29 318 19 c 0
 318 0 307 0 299 0 c 0
 280 0 259 2 240 2 c 2
 122 2 l 2
 103 2 82 0 64 0 c 0
 61 0 50 0 50 10 c 0
 50 29 57 29 80 29 c 0
 149 29 151 39 160 74 c 2
 295 612 l 2
 299 627 299 633 299 635 c 0
 299 646 299 654 239 654 c 0
 220 654 213 654 213 664 c 0
 213 683 225 683 232 683 c 0
 251 683 272 681 291 681 c 2
 409 681 l 2
 428 681 449 683 467 683 c 0
 473 683 482 683 482 672 c 0
 482 654 472 654 454 654 c 0
 383 654 381 644 372 610 c 2
 312 370 l 1
 614 370 l 1
 675 612 l 2
 679 627 679 633 679 635 c 0
 679 646 679 654 619 654 c 0
 600 654 593 654 593 664 c 0
 593 683 605 683 612 683 c 0
 631 683 652 681 671 681 c 2
 789 681 l 2
 808 681 829 683 847 683 c 0
 853 683 862 683 862 672 c 0
 862 654 852 654 834 654 c 0
 763 654 761 644 752 610 c 2
EndSplineSet
Validated: 1
EndChar

StartChar: I
Encoding: 73 73 8
Width: 541
Flags: W
HStem: 0 29<50.2513 152.267 238.315 327.772> 654 29<214.292 303.763 389.733 490.784>
LayerCount: 2
Fore
SplineSet
377 609 m 2
 242 72 l 2
 238 56 238 51 238 49 c 0
 238 37 238 29 300 29 c 0
 322 29 328 29 328 18 c 0
 328 0 316 0 308 0 c 0
 288 0 266 2 246 2 c 2
 123 2 l 2
 105 2 83 0 65 0 c 0
 60 0 50 0 50 10 c 0
 50 29 59 29 81 29 c 0
 154 29 156 39 165 74 c 2
 300 613 l 2
 302 622 304 628 304 635 c 0
 304 646 304 654 242 654 c 0
 222 654 214 654 214 664 c 0
 214 683 225 683 233 683 c 0
 253 683 276 681 296 681 c 2
 419 681 l 2
 437 681 459 683 477 683 c 0
 480 683 491 683 491 673 c 0
 491 654 483 654 461 654 c 0
 388 654 386 644 377 609 c 2
EndSplineSet
Validated: 1
EndChar

StartChar: J
Encoding: 74 74 9
Width: 640
Flags: W
HStem: -21 20<127.033 209.46> 66 95<78.1882 135.753> 654 29<327 431.163 514.264 589.819>
VStem: 50 100<80.2239 145.786>
LayerCount: 2
Fore
SplineSet
505 614 m 2
 387 143 l 2
 363 48 265 -21 174 -21 c 0
 102 -21 50 23 50 86 c 0
 50 151 92 161 110 161 c 0
 140 161 150 140 150 124 c 0
 150 95 124 66 91 66 c 0
 87 66 82 67 78 68 c 1
 90 15 138 -1 172 -1 c 0
 220 -1 287 48 313 150 c 2
 428 607 l 2
 432 623 432 630 432 631 c 0
 432 646 432 654 352 654 c 2
 327 654 l 1
 327 655 319 655 319 665 c 0
 319 683 331 683 340 683 c 0
 382 683 426 681 468 681 c 2
 523 681 l 2
 541 681 560 683 577 683 c 0
 581 683 590 683 590 672 c 0
 590 654 580 654 564 654 c 0
 515 654 513 644 505 614 c 2
EndSplineSet
Validated: 1
EndChar

StartChar: K
Encoding: 75 75 10
Width: 928
Flags: W
HStem: 0 29<50.1826 147.469 233.119 317.681 494.274 556.322 661.212 726.688> 654 29<214.319 298.767 383.872 481.749 682.212 718.42 803.148 877.816>
LayerCount: 2
Fore
SplineSet
504 404 m 2
 643 74 l 2
 658 38 671 30 708 29 c 0
 718 29 727 29 727 19 c 0
 727 0 716 0 710 0 c 0
 695 0 678 2 663 2 c 2
 615 2 l 2
 580 2 543 0 508 0 c 0
 505 0 494 0 494 10 c 0
 494 29 504 29 513 29 c 0
 522 29 562 30 562 60 c 0
 562 67 560 73 557 79 c 0
 516 177 463 305 434 369 c 1
 282 250 l 1
 243 95 l 2
 239 79 233 54 233 47 c 0
 233 37 233 29 294 29 c 0
 309 29 318 29 318 19 c 0
 318 0 307 0 299 0 c 0
 280 0 259 2 240 2 c 2
 123 2 l 2
 104 2 84 0 65 0 c 0
 59 0 50 0 50 11 c 0
 50 29 60 29 79 29 c 0
 149 29 151 39 160 74 c 2
 295 612 l 2
 299 627 299 633 299 635 c 0
 299 646 299 654 238 654 c 0
 223 654 214 654 214 664 c 0
 214 683 225 683 233 683 c 0
 251 683 273 681 291 681 c 2
 409 681 l 2
 428 681 449 683 467 683 c 0
 472 683 482 683 482 673 c 0
 482 654 473 654 454 654 c 0
 383 654 381 644 372 610 c 2
 289 280 l 1
 681 585 l 2
 689 591 719 615 719 635 c 0
 719 649 706 653 695 654 c 0
 689 654 682 655 682 665 c 0
 682 683 694 683 701 683 c 0
 731 683 764 681 795 681 c 2
 833 681 l 2
 844 681 856 683 867 683 c 0
 875 683 878 678 878 672 c 0
 878 655 868 655 861 654 c 0
 792 648 748 613 614 509 c 2
 517 433 l 2
 500 420 499 419 499 418 c 0
 499 415 503 407 504 404 c 2
EndSplineSet
Validated: 1
EndChar

StartChar: L
Encoding: 76 76 11
Width: 685
Flags: W
HStem: 0 29<50.1826 147.469 231.001 449.566> 654 29<214.319 298.767 385.099 504.805>
VStem: 607 28<205.375 255.346>
LayerCount: 2
Fore
SplineSet
371 606 m 2
 235 63 l 2
 233 54 231 48 231 41 c 0
 231 33 232 31 243 30 c 0
 249 29 251 29 265 29 c 2
 361 29 l 2
 530 29 575 142 607 230 c 1
 615 249 615 251 617 252 c 1
 619 256 624 256 625 256 c 0
 630 256 635 252 635 246 c 0
 635 243 633 237 631 232 c 2
 554 19 l 2
 547 1 546 0 524 0 c 2
 76 0 l 2
 56 0 50 0 50 11 c 0
 50 29 60 29 79 29 c 0
 149 29 151 39 160 74 c 2
 295 612 l 2
 299 627 299 633 299 635 c 0
 299 646 299 654 238 654 c 0
 223 654 214 654 214 664 c 0
 214 683 225 683 233 683 c 0
 252 683 274 681 293 681 c 2
 427 681 l 2
 447 681 470 683 490 683 c 0
 494 683 505 683 505 673 c 0
 505 654 498 654 471 654 c 0
 383 654 380 644 371 606 c 2
EndSplineSet
Validated: 1
EndChar

StartChar: M
Encoding: 77 77 12
Width: 1069
Flags: W
HStem: 0 29<50.2258 128.782 197.865 264.722 594.183 691.469 770.119 854.681> 648 35<214.026 299 328 329 848 849 915.625 1018.34>
LayerCount: 2
Fore
SplineSet
909 610 m 2
 772 63 l 2
 770 55 770 48 770 47 c 0
 770 37 770 29 831 29 c 0
 846 29 855 29 855 19 c 0
 855 0 844 0 836 0 c 0
 819 0 798 2 781 2 c 2
 663 2 l 2
 646 2 626 0 609 0 c 0
 603 0 594 0 594 11 c 0
 594 29 604 29 623 29 c 0
 693 29 695 39 704 74 c 2
 849 653 l 1
 848 653 l 1
 446 17 l 2
 441 8 436 0 425 0 c 0
 416 0 415 3 412 27 c 2
 329 648 l 1
 328 648 l 1
 190 97 l 2
 186 83 186 82 186 72 c 0
 186 36 218 30 251 29 c 0
 255 29 265 28 265 19 c 0
 265 0 254 0 247 0 c 0
 233 0 216 2 202 2 c 2
 154 2 l 2
 134 2 83 0 63 0 c 0
 59 0 50 0 50 11 c 0
 50 28 62 29 65 29 c 0
 132 32 155 54 167 102 c 2
 295 612 l 2
 299 627 299 633 299 635 c 0
 299 646 299 654 238 654 c 0
 223 654 214 654 214 664 c 0
 214 683 223 683 242 683 c 2
 366 683 l 2
 392 683 393 683 396 661 c 2
 471 89 l 1
 836 666 l 2
 847 682 848 683 873 683 c 2
 993 683 l 2
 1012 683 1019 683 1019 673 c 0
 1019 654 1010 654 991 654 c 0
 920 654 918 644 909 610 c 2
EndSplineSet
Validated: 1
EndChar

StartChar: N
Encoding: 78 78 13
Width: 912
Flags: W
HStem: 0 29<50.2513 128.358 197.865 264.722> 654 29<213.258 302.957 646.302 713.817 783.912 861.774>
LayerCount: 2
Fore
SplineSet
744 578 m 2
 604 20 l 2
 600 3 599 0 589 0 c 0
 580 0 578 6 573 18 c 2
 335 611 l 2
 331 620 331 622 325 632 c 1
 190 97 l 2
 188 89 186 80 186 72 c 0
 186 36 218 30 251 29 c 0
 255 29 265 28 265 19 c 0
 265 0 254 0 247 0 c 0
 233 0 216 2 202 2 c 2
 154 2 l 2
 134 2 83 0 63 0 c 0
 60 0 50 0 50 10 c 0
 50 28 60 29 65 29 c 0
 131 32 155 53 167 102 c 2
 300 632 l 2
 301 635 303 643 303 645 c 0
 303 654 244 654 239 654 c 0
 220 654 213 654 213 664 c 0
 213 683 222 683 242 683 c 2
 364 683 l 2
 386 683 387 682 394 666 c 2
 608 134 l 1
 721 585 l 2
 724 599 725 602 725 611 c 0
 725 629 721 652 661 654 c 0
 654 654 646 654 646 664 c 0
 646 683 658 683 664 683 c 0
 678 683 696 681 710 681 c 2
 758 681 l 2
 778 681 829 683 849 683 c 0
 853 683 862 683 862 672 c 0
 862 655 850 654 847 654 c 0
 771 651 755 621 744 578 c 2
EndSplineSet
Validated: 1
EndChar

StartChar: O
Encoding: 79 79 14
Width: 778
Flags: W
HStem: -21 23<247.187 369.312> 682 22<410.78 533.088>
VStem: 50 86<129.286 364.166> 648 80<337.447 553.613>
LayerCount: 2
Fore
SplineSet
728 438 m 0
 728 198 509 -21 299 -21 c 0
 154 -21 50 86 50 243 c 0
 50 474 266 704 480 704 c 0
 620 704 728 603 728 438 c 0
305 2 m 0
 379 2 470 49 543 151 c 0
 610 246 648 385 648 474 c 0
 648 618 563 682 475 682 c 0
 408 682 324 646 251 558 c 0
 169 458 136 309 136 218 c 0
 136 62 223 2 305 2 c 0
EndSplineSet
Validated: 1
EndChar

StartChar: P
Encoding: 80 80 15
Width: 793
Flags: W
HStem: 0 29<50.1826 147.469 233.074 317.681> 318 24<303 523.088> 654 29<214.238 298.767 378.74 600.58>
VStem: 659 84<457.568 606.519>
LayerCount: 2
Fore
SplineSet
299 318 m 1
 235 63 l 2
 234 58 233 51 233 46 c 0
 233 36 234 29 294 29 c 0
 309 29 318 29 318 19 c 0
 318 0 307 0 299 0 c 0
 280 0 259 2 240 2 c 2
 123 2 l 2
 104 2 84 0 65 0 c 0
 59 0 50 0 50 11 c 0
 50 29 60 29 79 29 c 0
 149 29 151 39 160 74 c 2
 295 612 l 2
 299 627 299 633 299 635 c 0
 299 646 299 654 238 654 c 0
 223 654 214 654 214 664 c 0
 214 683 223 683 242 683 c 2
 551 683 l 2
 677 683 743 612 743 534 c 0
 743 420 605 318 467 318 c 2
 299 318 l 1
371 615 m 2
 303 342 l 1
 444 342 l 2
 535 342 583 380 600 398 c 0
 646 444 659 529 659 555 c 0
 659 630 597 654 522 654 c 2
 423 654 l 2
 384 654 380 652 371 615 c 2
EndSplineSet
Validated: 1
EndChar

StartChar: Q
Encoding: 81 81 16
Width: 778
Flags: W
HStem: -194 88<448.944 536.4> -21 22<259.136 370.765> 127 20<305.535 376.301> 682 22<411.138 531.858>
VStem: 50 81<128.274 351.855> 240 20<13.5019 80.3682> 615 20<-27.0688 8.92771> 648 80<328.166 555.763>
LayerCount: 2
Fore
SplineSet
428 6 m 1
 433 -71 446 -106 497 -106 c 0
 541 -106 593 -70 615 -7 c 0
 618 4 620 9 626 9 c 0
 631 9 635 5 635 -1 c 0
 635 -7 591 -194 472 -194 c 0
 392 -194 392 -119 392 -90 c 0
 392 -71 392 -66 398 -6 c 1
 366 -16 333 -21 299 -21 c 0
 154 -21 50 86 50 243 c 0
 50 474 266 704 480 704 c 0
 620 704 728 603 728 438 c 0
 728 257 600 75 428 6 c 1
248 11 m 1
 244 18 240 33 240 44 c 0
 240 93 286 147 340 147 c 0
 406 147 420 87 425 36 c 1
 613 146 648 394 648 468 c 0
 648 598 578 682 474 682 c 0
 396 682 297 631 223 517 c 0
 157 416 131 283 131 213 c 0
 131 121 169 38 248 11 c 1
400 23 m 1
 401 29 401 37 401 43 c 0
 401 93 390 127 340 127 c 0
 295 127 260 81 260 45 c 0
 260 1 295 1 305 1 c 0
 333 1 364 7 400 23 c 1
EndSplineSet
Validated: 1
EndChar

StartChar: R
Encoding: 82 82 17
Width: 793
Flags: W
HStem: -21 20<601.945 662.388> 0 29<50.1924 147.536 231.119 315.681> 332 20<305 477.734> 654 29<213.258 298.771 378.74 583.207>
VStem: 502 87<19.3024 188.836> 533 74<138.529 290.075> 645 86<463.923 599.156> 720 23<61.8712 101.983>
LayerCount: 2
Fore
SplineSet
371 615 m 2xf2
 305 352 l 1
 418 352 l 2
 619 352 645 499 645 550 c 0
 645 628 581 654 495 654 c 2
 423 654 l 2
 384 654 380 652 371 615 c 2xf2
510 340 m 1
 548 328 607 297 607 224 c 0xf6
 607 216 607 212 602 175 c 0
 601 170 589 79 589 55 c 0
 589 10 605 -1 630 -1 c 0
 655 -1 696 17 720 88 c 0
 722 96 724 102 732 102 c 0
 738 102 743 99 743 92 c 0
 743 78 708 -21 627 -21 c 0
 560 -21 502 12 502 83 c 0xf9
 502 102 505 113 516 159 c 0
 523 185 533 224 533 239 c 0xf4
 533 272 515 332 420 332 c 2
 300 332 l 1
 233 63 l 2
 231 55 231 48 231 47 c 0
 231 37 231 29 292 29 c 0
 307 29 316 29 316 19 c 0
 316 0 305 0 297 0 c 0
 279 0 258 2 240 2 c 2
 122 2 l 2
 103 2 82 0 64 0 c 0
 61 0 50 0 50 10 c 0
 50 29 57 29 80 29 c 0
 149 29 151 39 160 74 c 2
 295 612 l 2
 299 627 299 633 299 635 c 0
 299 646 299 654 239 654 c 0
 220 654 213 654 213 664 c 0
 213 683 222 683 242 683 c 2
 513 683 l 2
 652 683 731 611 731 533 c 0
 731 447 634 367 510 340 c 1
EndSplineSet
Validated: 1
EndChar

StartChar: S
Encoding: 83 83 18
Width: 684
Flags: W
HStem: -21 29<210.204 356.93> 677 27<353.459 484.387>
VStem: 50 71<-16.5 164.5> 177 59<441.75 559.972> 480 59<136.889 269.087> 555 25<456.038 503.519> 608 26<672.379 702.766>
LayerCount: 2
Fore
SplineSet
634 695 m 1
 580 475 l 2
 576 459 575 456 566 456 c 0
 563 456 555 456 555 465 c 0
 555 469 560 496 560 522 c 0
 560 617 514 677 416 677 c 0
 321 677 236 591 236 507 c 0
 236 473 249 449 266 432 c 1
 284 416 293 413 360 395 c 0
 452 371 470 366 491 345 c 0
 529 308 539 271 539 229 c 0
 539 104 421 -21 292 -21 c 0
 199 -21 147 19 123 55 c 1
 77 -5 l 2
 65 -20 64 -21 60 -21 c 0
 58 -21 50 -21 50 -12 c 0
 50 -11 54 2 54 3 c 2
 105 208 l 2
 109 225 110 227 119 227 c 0
 127 227 129 222 129 218 c 0
 129 216 128 211 128 208 c 0
 125 198 121 174 121 155 c 0
 121 43 212 8 294 8 c 0
 394 8 480 104 480 197 c 0
 480 244 460 267 456 272 c 0
 435 294 422 298 371 312 c 1
 341 319 282 335 271 339 c 0
 222 356 177 400 177 475 c 0
 177 588 292 704 419 704 c 0
 461 704 527 693 560 628 c 1
 561 629 602 681 608 688 c 0
 620 703 621 704 625 704 c 0
 627 704 634 704 634 695 c 1
EndSplineSet
Validated: 1
EndChar

StartChar: T
Encoding: 84 84 19
Width: 768
Flags: W
HStem: 0 29<82.1936 215.206 306.159 427.733> 649 29<181.4 370.993 466.393 643.401>
VStem: 50 24<455.128 499.173> 675 43<550.838 672.5>
LayerCount: 2
Fore
SplineSet
443 610 m 2
 309 77 l 2
 305 61 305 54 305 53 c 0
 305 38 305 29 395 29 c 0
 421 29 428 29 428 19 c 0
 428 0 418 0 407 0 c 0
 382 0 355 2 330 2 c 2
 174 2 l 2
 149 2 123 0 98 0 c 0
 93 0 82 0 82 10 c 0
 82 29 89 29 114 29 c 0
 220 29 222 39 232 78 c 2
 366 615 l 2
 371 633 371 635 371 638 c 0
 371 649 361 649 337 649 c 2
 270 649 l 2
 137 649 116 593 74 472 c 0
 70 459 68 455 60 455 c 0
 54 455 50 460 50 465 c 0
 50 466 53 477 54 479 c 2
 115 659 l 2
 121 677 122 678 145 678 c 2
 692 678 l 2
 712 678 718 678 718 667 c 0
 718 664 718 662 716 653 c 2
 687 476 l 2
 684 460 684 455 674 455 c 0
 668 455 664 461 664 465 c 2
 665 477 l 1
 671 514 675 552 675 567 c 0
 675 645 628 649 528 649 c 0
 507 649 474 649 466 647 c 0
 451 643 449 634 443 610 c 2
EndSplineSet
Validated: 1
EndChar

StartChar: U
Encoding: 85 85 20
Width: 771
Flags: W
HStem: -21 29<183.868 313.04> 654 29<72.3024 157.771 242.872 340.818 502.302 569.817 643.157 720.763>
VStem: 50 72<76.4928 260.164>
LayerCount: 2
Fore
SplineSet
488 230 m 2
 577 585 l 2
 581 599 581 602 581 611 c 0
 581 629 577 652 517 654 c 0
 510 654 502 654 502 664 c 0
 502 683 514 683 520 683 c 0
 521 683 553 681 615 681 c 2
 662 681 l 2
 676 681 694 683 708 683 c 0
 712 683 721 683 721 672 c 0
 721 663 717 655 709 654 c 0
 621 650 613 617 600 565 c 2
 562 415 l 2
 555 389 534 301 524 265 c 1
 518 238 509 203 502 186 c 0
 451 59 339 -21 238 -21 c 0
 129 -21 50 58 50 168 c 0
 50 195 56 222 59 233 c 2
 146 583 l 2
 151 600 158 629 158 635 c 0
 158 646 158 654 98 654 c 0
 79 654 72 654 72 664 c 0
 72 683 84 683 91 683 c 0
 110 683 131 681 150 681 c 2
 268 681 l 2
 287 681 308 683 326 683 c 0
 332 683 341 683 341 672 c 0
 341 654 331 654 313 654 c 0
 242 654 240 644 231 610 c 2
 133 217 l 2
 122 173 122 143 122 139 c 0
 122 56 171 8 243 8 c 0
 337 8 453 90 488 230 c 2
EndSplineSet
Validated: 1
EndChar

StartChar: V
Encoding: 86 86 21
Width: 799
Flags: W
HStem: 654 29<50.2111 125.351 217.297 295.726 554.254 602.376 679.019 748.794>
VStem: 608 141<613.5 675>
LayerCount: 2
Fore
SplineSet
615 572 m 2
 254 -2 l 2
 244 -18 239 -21 227 -21 c 0
 213 -21 213 -18 210 3 c 2
 130 620 l 2
 127 645 124 654 73 654 c 0
 57 654 50 654 50 665 c 0
 50 683 62 683 68 683 c 0
 69 683 99 681 172 681 c 2
 228 681 l 2
 245 681 265 683 282 683 c 0
 285 683 296 683 296 673 c 0
 296 654 287 654 272 654 c 0
 261 654 209 652 209 623 c 1
 279 84 l 1
 593 582 l 2
 594 583 608 606 608 621 c 0
 608 633 604 651 567 654 c 0
 563 654 554 655 554 664 c 0
 554 683 564 683 572 683 c 0
 600 683 630 681 659 681 c 0
 677 681 720 683 738 683 c 0
 747 683 749 677 749 673 c 0
 749 655 741 655 731 654 c 0
 680 650 649 626 615 572 c 2
EndSplineSet
Validated: 1
EndChar

StartChar: W
Encoding: 87 87 22
Width: 1073
Flags: W
HStem: 654 29<50.3016 118.694 210.322 290.804 420.334 488.163 580.164 660.742 828.302 884.443 958.693 1022.77>
VStem: 894 129<609.5 677.5>
LayerCount: 2
Fore
SplineSet
900 572 m 2
 571 -2 l 2
 563 -16 560 -21 550 -21 c 0
 538 -21 537 -15 536 2 c 2
 499 519 l 1
 201 -2 l 2
 192 -17 190 -21 180 -21 c 0
 168 -21 167 -15 166 2 c 2
 122 616 l 2
 120 648 119 654 72 654 c 0
 58 654 50 654 50 664 c 0
 50 683 62 683 68 683 c 0
 83 683 101 681 116 681 c 2
 168 681 l 2
 204 681 241 683 276 683 c 0
 282 683 291 683 291 672 c 0
 291 654 280 654 269 654 c 0
 201 653 201 628 201 617 c 2
 238 101 l 1
 497 556 l 1
 494 592 l 1
 490 653 490 654 444 654 c 0
 427 654 420 654 420 664 c 0
 420 683 432 683 438 683 c 0
 453 683 471 681 486 681 c 2
 538 681 l 2
 574 681 611 683 646 683 c 0
 651 683 661 683 661 673 c 0
 661 654 651 654 638 654 c 0
 582 653 571 634 571 622 c 2
 607 101 l 1
 880 579 l 2
 890 596 894 603 894 616 c 0
 894 647 862 653 842 654 c 0
 836 654 828 655 828 664 c 0
 828 683 840 683 846 683 c 0
 875 683 906 681 936 681 c 0
 1002 681 1009 683 1011 683 c 0
 1014 683 1023 683 1023 672 c 0
 1023 656 1014 655 1005 654 c 0
 945 648 923 611 900 572 c 2
EndSplineSet
Validated: 1
EndChar

StartChar: X
Encoding: 88 88 23
Width: 913
Flags: W
HStem: 0 29<50.2076 133.679 227.365 268.788 489.339 548.372 657.905 739.722> 654 29<227.254 310.377 418.391 477.773 644.212 685.569 777.731 862.774>
VStem: 50 173<8.5 66.5>
LayerCount: 2
Fore
SplineSet
500 406 m 1
 675 594 l 2
 686 606 688 616 689 623 c 1
 690 625 l 1
 690 644 673 652 657 654 c 0
 651 654 644 655 644 665 c 0
 644 683 656 683 663 683 c 0
 694 683 729 681 761 681 c 2
 807 681 l 2
 821 681 836 683 850 683 c 0
 854 683 863 683 863 672 c 0
 863 655 853 655 843 654 c 0
 762 649 722 608 679 563 c 0
 670 553 647 528 637 518 c 2
 510 382 l 1
 642 72 l 1
 659 35 661 30 721 29 c 0
 730 29 740 29 740 19 c 0
 740 0 729 0 722 0 c 0
 705 0 686 2 668 2 c 2
 558 2 l 2
 541 2 521 0 504 0 c 0
 499 0 489 0 489 10 c 0
 489 28 500 29 506 29 c 0
 538 31 560 49 560 58 c 0
 560 59 556 69 555 71 c 2
 450 317 l 1
 428 295 375 237 353 214 c 2
 264 117 l 1
 235 87 223 75 223 58 c 0
 223 42 236 31 256 29 c 0
 262 29 269 28 269 18 c 0
 269 0 257 0 250 0 c 0
 219 0 184 2 152 2 c 2
 105 2 l 2
 91 2 76 0 62 0 c 0
 51 0 50 7 50 10 c 0
 50 28 58 28 70 29 c 0
 144 33 187 71 223 110 c 2
 440 342 l 1
 321 620 l 2
 311 644 307 654 249 654 c 0
 236 654 227 654 227 664 c 0
 227 683 237 683 245 683 c 0
 246 683 290 681 351 681 c 2
 409 681 l 2
 426 681 446 683 463 683 c 0
 469 683 478 683 478 672 c 0
 478 655 467 654 461 654 c 0
 449 653 419 649 406 625 c 1
 500 406 l 1
EndSplineSet
Validated: 1
EndChar

StartChar: Y
Encoding: 89 89 24
Width: 814
Flags: W
HStem: 0 29<110.212 207.986 290.121 375.788> 654 29<50.3191 131.342 228.736 301.803 568.278 609.608 689.375 763.686>
LayerCount: 2
Fore
SplineSet
605 572 m 1
 354 283 l 2
 345 273 345 271 339 250 c 2
 303 106 l 2
 298 86 290 54 290 47 c 0
 290 36 290 29 352 29 c 0
 369 29 376 29 376 18 c 0
 376 0 364 0 357 0 c 0
 339 0 318 2 300 2 c 2
 182 2 l 2
 163 2 142 0 124 0 c 0
 121 0 110 0 110 10 c 0
 110 29 118 29 135 29 c 0
 199 30 209 35 217 62 c 0
 220 72 269 269 269 272 c 0
 269 275 266 286 265 289 c 2
 141 622 l 2
 132 645 123 654 74 654 c 0
 59 654 50 654 50 664 c 0
 50 683 61 683 68 683 c 0
 85 683 104 681 122 681 c 2
 233 681 l 2
 250 681 270 683 287 683 c 0
 293 683 302 683 302 672 c 0
 302 654 291 654 279 654 c 0
 267 654 226 652 226 631 c 0
 226 629 226 627 232 613 c 2
 345 309 l 1
 583 582 l 2
 603 605 611 620 611 631 c 0
 611 637 611 652 581 654 c 0
 578 654 568 655 568 664 c 0
 568 683 579 683 586 683 c 0
 614 683 645 681 674 681 c 2
 715 681 l 2
 727 681 740 683 752 683 c 0
 754 683 764 683 764 673 c 0
 764 656 755 655 744 654 c 0
 709 651 672 640 628 595 c 2
 605 572 l 1
EndSplineSet
Validated: 1
EndChar

StartChar: Z
Encoding: 90 90 25
Width: 754
Flags: W
HStem: 0 31<144 425.125> 654 29<342.348 611>
LayerCount: 2
Fore
SplineSet
693 652 m 2
 144 31 l 1
 317 31 l 2
 491 31 535 109 577 238 c 0
 585 263 586 264 594 264 c 0
 600 264 604 259 604 254 c 0
 604 250 602 243 601 240 c 2
 531 19 l 2
 525 1 524 0 501 0 c 2
 74 0 l 2
 55 0 50 0 50 8 c 0
 50 19 54 23 63 34 c 2
 611 654 l 1
 447 654 l 2
 289 654 240 585 203 477 c 0
 199 464 197 460 189 460 c 0
 182 460 179 466 179 470 c 0
 179 472 179 474 182 484 c 2
 237 664 l 2
 243 682 244 683 267 683 c 2
 680 683 l 2
 703 683 704 682 704 675 c 0
 704 665 699 659 693 652 c 2
EndSplineSet
Validated: 1
EndChar

StartChar: a
Encoding: 97 97 26
Width: 545
Flags: W
HStem: -10 20<147.707 218.749 372.976 421.622> 421 20<248.235 319.223>
VStem: 50 65<54.6881 229.702> 375 68<375 415.679>
LayerCount: 2
Fore
SplineSet
311 119 m 2
 360 315 l 2
 361 317 364 330 364 331 c 0
 364 339 351 421 285 421 c 0
 246 421 199 385 165 315 c 1
 146 273 115 161 115 106 c 0
 115 47 138 10 179 10 c 0
 226 10 270 53 292 81 c 0
 306 100 306 102 311 119 c 2
375 375 m 1
 377 387 385 422 417 422 c 0
 432 422 443 411 443 397 c 0
 443 391 434 355 397 205 c 0
 389 176 384 154 377 129 c 1
 368 90 365 79 365 56 c 0
 365 36 367 10 396 10 c 0
 437 10 456 73 471 132 c 0
 475 147 476 152 485 152 c 0
 491 152 495 148 495 143 c 0
 495 139 481 78 465 44 c 0
 447 8 423 -10 393 -10 c 0
 363 -10 316 7 306 66 c 1
 278 33 231 -10 176 -10 c 0
 108 -10 50 48 50 147 c 0
 50 295 172 441 285 441 c 0
 337 441 364 401 375 375 c 1
EndSplineSet
Validated: 1
EndChar

StartChar: b
Encoding: 98 98 27
Width: 458
Flags: W
HStem: -10 20<141.392 209.653> 421 20<238.951 309.254> 654 31<91.3477 161.846> 674 20G<226.5 228>
VStem: 50 56<51.3668 237.801> 162 77<614.523 687.02> 343 65<203.875 375.199>
LayerCount: 2
Fore
SplineSet
236 669 m 2xde
 163 378 l 1
 182 398 229 441 281 441 c 0
 356 441 408 376 408 284 c 0
 408 139 288 -10 172 -10 c 0
 107 -10 50 43 50 145 c 0
 50 158 50 175 55 200 c 0
 59 218 116 445 126 485 c 2
 150 581 l 2
 154 599 162 628 162 635 c 0
 162 645 162 654 111 654 c 0
 101 654 91 654 91 664 c 0
 91 682 98 683 122 685 c 0xee
 140 686 155 688 172 689 c 0
 190 691 226 694 227 694 c 0
 229 694 239 694 239 684 c 0
 239 679 237 673 236 669 c 2xde
173 10 m 0
 219 10 265 58 290 112 c 0
 315 164 343 277 343 325 c 0
 343 377 323 421 279 421 c 0
 211 421 152 332 150 324 c 0
 146 311 130 247 127 234 c 0
 109 164 106 145 106 112 c 0
 106 34 141 10 173 10 c 0
EndSplineSet
Validated: 1
EndChar

StartChar: c
Encoding: 99 99 28
Width: 478
Flags: W
HStem: -10 20<166.37 270.834> 296 80<359.653 400.595> 421 20<268.461 362.233>
VStem: 50 67<68.167 240.562> 342 85<306.679 363.758>
LayerCount: 2
Fore
SplineSet
401 376 m 1
 381 419 326 421 313 421 c 0
 250 421 196 367 170 320 c 0
 134 252 117 155 117 120 c 0
 117 70 139 10 208 10 c 0
 246 10 341 25 405 110 c 1
 414 119 415 120 418 120 c 0
 422 120 428 115 428 109 c 0
 428 96 342 -10 206 -10 c 0
 104 -10 50 69 50 156 c 0
 50 298 181 441 312 441 c 0
 381 441 427 404 427 356 c 0
 427 316 400 296 376 296 c 0
 357 296 342 308 342 328 c 0
 342 344 353 359 359 364 c 0
 373 376 382 376 401 376 c 1
EndSplineSet
Validated: 1
EndChar

StartChar: d
Encoding: 100 100 29
Width: 566
Flags: W
HStem: -10 20<147.707 218.749 372.976 421.622> 421 20<248.235 319.223> 654 31<367.371 438.846> 674 20G<503.5 505>
VStem: 50 65<54.6881 229.702> 439 77<615.109 687.143>
LayerCount: 2
Fore
SplineSet
513 669 m 2xdc
 372 109 l 2
 365 81 365 60 365 56 c 0
 365 36 367 10 396 10 c 0
 437 10 456 73 471 132 c 0
 475 147 476 152 485 152 c 0
 491 152 495 148 495 143 c 0
 495 139 481 78 465 44 c 0
 447 8 423 -10 393 -10 c 0
 363 -10 316 7 306 66 c 1
 278 33 231 -10 176 -10 c 0
 108 -10 50 48 50 147 c 0
 50 295 172 441 285 441 c 0
 337 441 364 401 375 375 c 1
 436 618 l 2
 437 621 439 629 439 635 c 0
 439 645 438 654 389 654 c 0
 375 654 367 654 367 664 c 0
 367 682 374 683 399 685 c 0xec
 417 686 432 688 449 689 c 0
 454 690 503 694 504 694 c 0
 506 694 516 694 516 684 c 0
 516 679 514 673 513 669 c 2xdc
311 119 m 2
 360 315 l 2
 361 317 364 330 364 331 c 0
 364 339 351 421 285 421 c 0
 246 421 199 385 165 315 c 1
 146 273 115 161 115 106 c 0
 115 47 138 10 179 10 c 0
 226 10 270 53 292 81 c 0
 306 100 306 102 311 119 c 2
EndSplineSet
Validated: 1
EndChar

StartChar: e
Encoding: 101 101 30
Width: 473
Flags: W
HStem: -10 20<163.939 265.834> 232 20<136 280.558> 421 20<258.868 347.467>
VStem: 50 66<70.1392 229.932> 380 30<310.128 397.692>
LayerCount: 2
Fore
SplineSet
184 232 m 2
 131 232 l 1
 116 168 116 143 116 129 c 0
 116 55 146 10 203 10 c 0
 241 10 336 25 400 110 c 1
 409 119 410 120 413 120 c 0
 417 120 423 115 423 109 c 0
 423 96 337 -10 201 -10 c 0
 110 -10 50 63 50 168 c 0
 50 346 201 441 306 441 c 0
 372 441 410 401 410 357 c 0
 410 339 403 281 327 252 c 0
 279 234 211 232 184 232 c 2
136 252 m 1
 178 252 l 2
 220 252 380 252 380 357 c 0
 380 395 350 421 306 421 c 0
 274 421 179 406 136 252 c 1
EndSplineSet
Validated: 1
EndChar

StartChar: f
Encoding: 102 102 31
Width: 595
Flags: W
HStem: -204 20<94.8728 160.652> -165 81<83 124.923> 402 29<207.183 297 366 472.786> 584 82<470.875 512> 684 20<432.278 499.091>
VStem: 50 84<-155.797 -94.1124> 461 84<594.112 655.58>
LayerCount: 2
Fore
SplineSet
445 402 m 2
 360 402 l 1
 355 372 306 106 288 29 c 0
 277 -21 235 -204 133 -204 c 0
 94 -204 50 -182 50 -139 c 0
 50 -101 80 -84 100 -84 c 0
 119 -84 134 -96 134 -116 c 0
 134 -117 134 -161 83 -165 c 1
 101 -184 130 -184 133 -184 c 0
 183 -184 198 -111 215 -24 c 1
 238 83 279 309 297 402 c 1
 233 402 l 2
 213 402 207 402 207 413 c 0
 207 431 217 431 236 431 c 2
 303 431 l 1
 326 562 336 598 354 633 c 0
 374 672 416 704 459 704 c 0
 503 704 545 681 545 639 c 0
 545 601 515 584 495 584 c 0
 476 584 461 596 461 616 c 0
 461 633 473 662 512 666 c 1
 502 675 481 684 460 684 c 0
 434 684 413 661 407 637 c 0
 399 605 385 534 366 431 c 1
 447 431 l 2
 465 431 473 431 473 421 c 0
 473 402 465 402 445 402 c 2
EndSplineSet
Validated: 1
EndChar

StartChar: g
Encoding: 103 103 32
Width: 549
Flags: W
HStem: -204 20<95.7626 227.934> -174 80<94 124.703> 0 20<205.083 277.716> 421 20<304.088 375.656>
VStem: 50 84<-164.422 -103.443> 108 65<63.8943 237.37> 432 67<375 416.537>
LayerCount: 2
Fore
SplineSet
370 127 m 2xf6
 417 319 l 1
 420 333 l 1
 420 339 407 421 341 421 c 0
 299 421 254 381 225 325 c 1
 203 280 173 168 173 115 c 0
 173 46 204 20 237 20 c 0
 268 20 310 39 351 92 c 1
 364 107 366 111 370 127 c 2xf6
432 375 m 1
 435 402 449 422 473 422 c 0
 488 422 499 411 499 397 c 0
 499 395 499 393 496 381 c 2
 385 -67 l 2
 372 -121 305 -204 176 -204 c 0
 91 -204 50 -188 50 -147 c 0
 50 -114 76 -94 100 -94 c 0
 122 -94 134 -110 134 -126 c 0xfa
 134 -137 126 -165 94 -174 c 1
 119 -182 144 -184 174 -184 c 0
 196 -184 234 -184 275 -143 c 0
 311 -108 317 -83 331 -28 c 2
 353 62 l 1
 335 42 288 0 235 0 c 0
 171 0 108 51 108 155 c 0
 108 304 232 441 341 441 c 0
 391 441 419 404 432 375 c 1
EndSplineSet
Validated: 1
EndChar

StartChar: h
Encoding: 104 104 33
Width: 580
Flags: W
HStem: -10 20<384.301 437.825> 421 20<292.689 376.584> 654 31<130.371 201.846> 674 20G<266.5 268>
VStem: 202 77<617.453 687.143> 323 56<13.516 126.616> 398 60<244.117 404.003> 505 25<103.789 151.86>
LayerCount: 2
Fore
SplineSet
276 669 m 2xdf
 199 362 l 1
 240 414 290 441 347 441 c 0
 423 441 458 396 458 336 c 0
 458 278 413 160 395 112 c 0
 391 101 379 69 379 43 c 0
 379 11 395 10 405 10 c 0
 445 10 482 52 505 132 c 0
 510 149 511 152 520 152 c 0
 526 152 530 148 530 143 c 0
 530 137 495 -10 402 -10 c 0
 354 -10 323 26 323 71 c 0
 323 89 328 102 337 126 c 0
 359 186 398 295 398 351 c 0
 398 391 384 421 344 421 c 0
 267 421 222 361 203 332 c 0
 184 303 184 302 173 260 c 0
 168 238 162 217 157 195 c 2
 112 14 l 1
 107 3 94 -10 77 -10 c 0
 67 -10 50 -6 50 16 c 0
 50 22 50 24 54 39 c 2
 199 618 l 2
 200 621 202 629 202 635 c 0
 202 645 201 654 152 654 c 0
 138 654 130 654 130 664 c 0
 130 682 137 683 162 685 c 0xef
 180 686 195 688 212 689 c 0
 217 690 266 694 267 694 c 0
 269 694 279 694 279 684 c 0
 279 679 277 673 276 669 c 2xdf
EndSplineSet
Validated: 1
EndChar

StartChar: i
Encoding: 105 105 34
Width: 356
Flags: W
HStem: -10 20<160.443 213.563> 421 20<143.51 196.726> 576 81<224.546 287.886>
VStem: 50 25<279.057 327.031> 99 56<13.5144 127> 202 56<305.691 417.171> 215 83<586.114 647.298> 281 25<104.256 151.86>
LayerCount: 2
Fore
SplineSet
306 143 m 0xfd
 306 136 270 -10 178 -10 c 0
 130 -10 99 26 99 71 c 0
 99 89 105 105 111 121 c 2
 181 307 l 2
 189 329 202 362 202 388 c 0
 202 420 185 421 176 421 c 0
 137 421 99 381 75 297 c 0
 71 283 70 279 61 279 c 0
 54 279 50 284 50 288 c 0
 50 296 87 441 179 441 c 0
 228 441 258 403 258 361 c 0
 258 342 251 324 248 316 c 2
 178 130 l 2
 167 100 155 70 155 43 c 0
 155 13 169 10 181 10 c 0
 214 10 255 41 281 132 c 0
 286 149 287 152 296 152 c 0
 302 152 306 148 306 143 c 0xfd
298 624 m 0xfa
 298 602 275 576 248 576 c 0
 236 576 215 584 215 609 c 0
 215 635 241 657 264 657 c 0
 286 657 298 639 298 624 c 0xfa
EndSplineSet
Validated: 1
EndChar

StartChar: j
Encoding: 106 106 35
Width: 504
Flags: W
HStem: -204 20<91.854 173.259> -174 80<91 125.25> 421 20<289.379 349.833> 576 81<381.114 444.454>
VStem: 50 84<-164.874 -103.443> 358 59<264.531 412.051> 371 83<585.702 646.886>
LayerCount: 2
Fore
SplineSet
413 317 m 2xfc
 320 -53 l 2
 295 -153 204 -204 135 -204 c 0
 94 -204 50 -187 50 -146 c 0
 50 -116 74 -94 100 -94 c 0
 122 -94 134 -110 134 -126 c 0
 134 -150 115 -169 91 -174 c 1
 110 -184 131 -184 135 -184 c 0
 190 -184 237 -128 256 -54 c 2
 351 323 l 2
 355 341 358 351 358 375 c 0
 358 410 347 421 326 421 c 0
 288 421 238 390 198 293 c 0
 193 283 192 279 184 279 c 0
 178 279 174 283 174 288 c 0
 174 295 228 441 329 441 c 0
 374 441 417 409 417 351 c 0
 417 347 417 333 413 317 c 2xfc
454 624 m 0xfa
 454 598 428 576 405 576 c 0
 383 576 371 594 371 609 c 0
 371 631 394 657 421 657 c 0
 433 657 454 649 454 624 c 0xfa
EndSplineSet
Validated: 1
EndChar

StartChar: k
Encoding: 107 107 36
Width: 546
Flags: W
HStem: -10 20<341.663 394.757> 327 82<421.47 463> 421 20<385.388 459.785> 654 31<131.348 201.846> 674 20G<266.5 268>
VStem: 202 77<618.531 687.02> 274 58<21.443 144.083> 281 63<87.4891 194.839> 412 84<337.135 398.214> 451 24<99.5271 151.888>
LayerCount: 2
Fore
SplineSet
276 669 m 2xed
 173 258 l 1
 210 272 247 310 257 322 c 0
 328 402 373 441 428 441 c 0
 473 441 496 411 496 382 c 0
 496 350 472 327 445 327 c 0
 431 327 412 335 412 359 c 0
 412 379 426 405 463 409 c 1
 456 415 450 421 427 421 c 0
 381 421 342 389 285 325 c 0
 271 310 235 271 199 249 c 1
 291 237 344 204 344 145 c 0xed80
 344 133 344 132 340 114 c 0
 336 99 332 77 332 58 c 0
 332 20 345 10 365 10 c 0
 416 10 437 80 451 132 c 0
 455 148 456 152 465 152 c 0
 471 152 475 148 475 143 c 0
 475 139 462 83 441 46 c 0
 433 32 409 -10 363 -10 c 0
 312 -10 274 29 274 87 c 0xea40
 274 92 274 104 278 119 c 0
 281 134 281 138 281 144 c 0
 281 192 238 222 166 230 c 1
 119 43 l 2
 111 12 105 -10 77 -10 c 0
 67 -10 50 -6 50 16 c 0
 50 22 50 24 54 39 c 2
 197 611 l 2
 202 629 202 631 202 635 c 0
 202 645 202 654 151 654 c 0
 141 654 131 654 131 664 c 0
 131 682 138 683 162 685 c 0xf5
 180 686 195 688 212 689 c 0
 230 691 266 694 267 694 c 0
 269 694 279 694 279 684 c 0
 279 679 277 673 276 669 c 2xed
EndSplineSet
Validated: 1
EndChar

StartChar: l
Encoding: 108 108 37
Width: 311
Flags: W
HStem: -10 20<119.027 166.043> 654 31<113.348 183.846> 674 20G<248.5 250>
VStem: 50 60<20.5299 161.5> 184 77<615.25 687.02> 216 24<95.1189 151.864>
LayerCount: 2
Fore
SplineSet
258 669 m 2xb8
 117 109 l 2
 110 81 110 60 110 56 c 0
 110 42 110 10 140 10 c 0
 180 10 198 63 216 132 c 0
 220 147 221 152 230 152 c 0
 236 152 240 148 240 143 c 0xb4
 240 139 226 76 209 43 c 0
 193 12 171 -10 138 -10 c 0
 87 -10 50 30 50 80 c 0
 50 96 52 104 55 115 c 2
 179 611 l 2
 184 629 184 631 184 635 c 0
 184 645 184 654 133 654 c 0
 123 654 113 654 113 664 c 0
 113 682 120 683 144 685 c 0xd8
 162 686 177 688 194 689 c 0
 212 691 248 694 249 694 c 0
 251 694 261 694 261 684 c 0
 261 679 259 673 258 669 c 2xb8
EndSplineSet
Validated: 1
EndChar

StartChar: m
Encoding: 109 109 38
Width: 900
Flags: W
HStem: -10 20<704.301 757.825> 421 20<124.542 171.982 341.624 424.351 612.978 696.584>
VStem: 50 26<279.057 338.245> 98 60<-7.82156 94.765> 643 56<13.516 126.616> 718 60<244.117 404.003> 825 25<103.789 151.86>
LayerCount: 2
Fore
SplineSet
229 293 m 2
 196 161 l 1
 174 71 l 2
 169 51 160 16 158 11 c 0
 150 -4 136 -10 124 -10 c 0
 109 -10 98 1 98 15 c 0
 98 20 109 67 116 93 c 0
 121 111 132 156 136 175 c 2
 164 283 l 1
 171 314 181 353 181 375 c 0
 181 405 173 421 150 421 c 0
 110 421 91 362 76 303 c 0
 70 280 69 279 61 279 c 0
 54 279 50 284 50 288 c 0
 50 292 64 353 82 389 c 0
 101 427 124 441 153 441 c 0
 197 441 238 410 241 353 c 1
 259 378 306 441 395 441 c 0
 470 441 503 398 506 344 c 1
 546 403 600 441 667 441 c 0
 743 441 778 396 778 336 c 0
 778 278 733 160 715 112 c 0
 711 101 699 69 699 43 c 0
 699 11 715 10 725 10 c 0
 765 10 802 52 825 132 c 0
 830 149 831 152 840 152 c 0
 846 152 850 148 850 143 c 0
 850 137 815 -10 722 -10 c 0
 674 -10 643 26 643 71 c 0
 643 89 648 102 657 126 c 0
 679 186 718 295 718 351 c 0
 718 391 704 421 664 421 c 0
 554 421 502 296 500 288 c 2
 440 49 l 2
 431 13 426 -10 396 -10 c 0
 381 -10 370 1 370 15 c 0
 370 19 376 45 380 60 c 0
 382 71 401 145 409 175 c 2
 434 278 l 2
 446 325 446 345 446 351 c 0
 446 391 432 421 392 421 c 0
 353 421 319 405 293 381 c 1
 256 349 231 299 229 293 c 2
EndSplineSet
Validated: 1
EndChar

StartChar: n
Encoding: 110 110 39
Width: 628
Flags: W
HStem: -10 20<432.301 485.607> 421 20<124.183 171.982 341.624 424.584>
VStem: 50 26<279.057 336.541> 98 60<-7.82156 94.765> 371 56<13.516 123.918> 446 60<242.125 404.003> 553 25<103.215 151.86>
LayerCount: 2
Fore
SplineSet
229 293 m 2
 196 161 l 1
 174 71 l 2
 169 51 160 16 158 11 c 0
 150 -4 136 -10 124 -10 c 0
 109 -10 98 1 98 15 c 0
 98 20 109 67 116 93 c 0
 121 111 132 156 136 175 c 2
 164 283 l 1
 171 314 181 353 181 375 c 0
 181 405 173 421 150 421 c 0
 110 421 92 364 76 303 c 0
 70 280 69 279 61 279 c 0
 54 279 50 284 50 288 c 0
 50 292 64 352 82 388 c 0
 99 422 121 441 153 441 c 0
 197 441 238 410 241 353 c 1
 259 378 306 441 395 441 c 0
 471 441 506 396 506 336 c 0
 506 279 464 167 444 112 c 0
 438 98 427 68 427 43 c 0
 427 11 443 10 453 10 c 0
 492 10 530 50 553 132 c 0
 558 149 559 152 568 152 c 0
 574 152 578 148 578 143 c 0
 578 137 543 -10 450 -10 c 0
 402 -10 371 26 371 71 c 0
 371 89 376 102 385 126 c 0
 405 180 446 294 446 351 c 0
 446 391 432 421 392 421 c 0
 353 421 319 405 293 381 c 1
 256 349 231 299 229 293 c 2
EndSplineSet
Validated: 1
EndChar

StartChar: o
Encoding: 111 111 40
Width: 515
Flags: W
HStem: -10 20<165.926 247.503> 421 20<267.82 348.856>
VStem: 50 67<68.3636 239.809> 398 67<194.441 362.636>
LayerCount: 2
Fore
SplineSet
465 275 m 0
 465 134 336 -10 203 -10 c 0
 112 -10 50 61 50 156 c 0
 50 297 180 441 312 441 c 0
 403 441 465 370 465 275 c 0
204 10 m 0
 243 10 298 36 339 103 c 0
 377 164 398 271 398 311 c 0
 398 381 360 421 311 421 c 0
 270 421 214 395 169 318 c 1
 141 268 117 166 117 120 c 0
 117 50 154 10 204 10 c 0
EndSplineSet
Validated: 1
EndChar

StartChar: p
Encoding: 112 112 41
Width: 609
Flags: W
HStem: -194 29<50.2571 116.22 183.01 255.789> -10 20<289.39 360.746> 421 20<187.542 235.12 389.664 460.254>
VStem: 113 26<279.057 338.245> 494 65<203.504 375.199>
LayerCount: 2
Fore
SplineSet
124 -127 m 2
 237 323 l 2
 241 341 244 351 244 375 c 0
 244 405 236 421 213 421 c 0
 173 421 154 362 139 303 c 0
 133 280 132 279 124 279 c 0
 117 279 113 284 113 288 c 0
 113 292 127 353 145 389 c 0
 164 427 187 441 216 441 c 0
 256 441 295 415 303 365 c 1
 314 379 368 441 432 441 c 0
 507 441 559 376 559 284 c 0
 559 137 437 -10 324 -10 c 0
 272 -10 245 29 234 57 c 1
 228 34 183 -138 183 -150 c 0
 183 -158 186 -165 232 -165 c 0
 249 -165 256 -165 256 -176 c 0
 256 -194 244 -194 238 -194 c 0
 217 -194 166 -192 145 -192 c 2
 102 -192 l 2
 89 -192 75 -194 62 -194 c 0
 51 -194 50 -186 50 -184 c 0
 50 -165 60 -165 72 -165 c 0
 113 -165 117 -157 124 -127 c 2
297 312 m 2
 248 116 l 2
 247 111 245 103 245 100 c 0
 245 96 256 10 324 10 c 0
 370 10 416 58 441 112 c 0
 466 164 494 277 494 325 c 0
 494 377 474 421 430 421 c 0
 392 421 359 393 348 383 c 0
 332 369 304 340 297 312 c 2
EndSplineSet
Validated: 1
EndChar

StartChar: q
Encoding: 113 113 42
Width: 502
Flags: W
HStem: -194 29<156.271 240.348 309.01 381.698> -10 20<147.707 218.92> 421 20<248.235 319.546>
VStem: 50 65<54.6881 229.702>
LayerCount: 2
Fore
SplineSet
452 431 m 1
 313 -131 l 2
 310 -144 309 -145 309 -150 c 0
 309 -158 312 -165 359 -165 c 0
 374 -165 382 -165 382 -175 c 0
 382 -194 370 -194 364 -194 c 0
 349 -194 332 -192 317 -192 c 2
 215 -192 l 2
 201 -192 183 -194 169 -194 c 0
 162 -194 156 -191 156 -184 c 0
 156 -165 166 -165 177 -165 c 0
 224 -164 239 -164 248 -134 c 1
 257 -98 l 1
 295 52 l 1
 294 53 l 1
 273 30 229 -10 176 -10 c 0
 108 -10 50 48 50 147 c 0
 50 295 172 441 285 441 c 0
 328 441 359 414 377 369 c 1
 396 404 435 440 443 440 c 0
 448 440 452 436 452 431 c 1
311 119 m 2
 360 315 l 2
 361 317 364 330 364 331 c 0
 364 339 351 421 285 421 c 0
 246 421 199 385 165 315 c 1
 146 273 115 161 115 106 c 0
 115 47 138 10 179 10 c 0
 226 10 270 53 292 81 c 0
 306 100 306 102 311 119 c 2
EndSplineSet
Validated: 1
EndChar

StartChar: r
Encoding: 114 114 43
Width: 499
Flags: W
HStem: -10 21G<116.5 129.5> 327 82<374.762 412> 421 20<124.015 172.1 323.029 408.047>
VStem: 50 26<279.057 336.17> 98 62<-6.72964 102.048> 365 84<337.135 398.42>
LayerCount: 2
Fore
SplineSet
412 409 m 1
 399 418 383 421 367 421 c 0
 326 421 300 398 288 387 c 0
 263 365 236 316 233 307 c 0
 230 294 226 278 222 264 c 0
 217 242 211 221 206 199 c 0
 200 176 163 25 160 17 c 0
 154 -3 135 -10 124 -10 c 0
 109 -10 98 1 98 15 c 0
 98 20 109 67 116 93 c 0
 121 111 132 156 136 175 c 2
 164 283 l 1
 171 314 181 353 181 375 c 0
 181 404 174 421 150 421 c 0
 110 421 91 363 76 303 c 0
 70 280 69 279 61 279 c 0
 54 279 50 284 50 288 c 0
 50 293 65 353 82 389 c 1
 94 411 114 441 153 441 c 0
 193 441 233 415 240 362 c 1
 282 423 328 441 368 441 c 0
 418 441 449 413 449 381 c 0
 449 351 426 327 398 327 c 0
 384 327 365 335 365 359 c 0
 365 381 381 403 412 409 c 1
EndSplineSet
Validated: 1
EndChar

StartChar: s
Encoding: 115 115 44
Width: 462
Flags: W
HStem: -10 20<128.145 252.474> 67 81<75.1953 125.5> 303 66<347.112 387.694> 421 20<242.242 347.035>
VStem: 50 85<77.8497 137.317> 130 52<286.818 366.751> 335 52<81.318 170.514> 342 70<309.429 363.703>
LayerCount: 2
Fore
SplineSet
227 200 m 0xfa
 204 205 130 221 130 297 c 0
 130 338 165 441 296 441 c 0
 374 441 412 398 412 356 c 0
 412 314 384 303 370 303 c 0
 361 303 342 309 342 330 c 0
 342 331 344 369 388 369 c 1
 378 405 337 421 295 421 c 0
 200 421 182 349 182 329 c 0xf5
 182 284 225 275 252 269 c 0
 306 258 330 253 355 229 c 0
 387 197 387 169 387 154 c 0
 387 102 342 -10 190 -10 c 0
 110 -10 50 27 50 86 c 0
 50 131 79 148 101 148 c 0
 121 148 135 137 135 116 c 0
 135 96 117 67 83 67 c 0
 80 67 78 68 75 68 c 1
 95 13 170 10 191 10 c 0
 307 10 335 91 335 122 c 0
 335 170 290 186 277 190 c 0
 271 191 244 197 227 200 c 0xfa
EndSplineSet
Validated: 1
EndChar

StartChar: t
Encoding: 116 116 45
Width: 400
Flags: W
HStem: -10 20<156.605 216.503> 402 29<50.2578 165 236 349.817>
VStem: 88 60<19.8151 162.555> 305 27<110.488 151.628>
LayerCount: 2
Fore
SplineSet
229 402 m 1
 151 89 l 2
 148 77 148 58 148 57 c 0
 148 35 150 10 180 10 c 0
 238 10 284 80 305 130 c 0
 312 146 313 147 314 148 c 0
 316 152 320 152 322 152 c 0
 328 152 332 149 332 143 c 0
 332 136 278 -10 177 -10 c 0
 121 -10 88 33 88 80 c 0
 88 93 91 103 99 138 c 2
 165 402 l 1
 76 402 l 2
 57 402 50 402 50 412 c 0
 50 431 59 431 79 431 c 2
 173 431 l 1
 212 590 l 2
 220 622 243 625 251 625 c 0
 264 625 277 616 277 600 c 0
 277 593 277 591 273 577 c 2
 236 431 l 1
 324 431 l 2
 344 431 350 431 350 420 c 0
 350 402 340 402 321 402 c 2
 229 402 l 1
EndSplineSet
Validated: 1
EndChar

StartChar: u
Encoding: 117 117 46
Width: 601
Flags: W
HStem: -10 20<214.244 289.683 429.951 477.567> 421 20<143.728 196.699>
VStem: 50 25<279.057 327.02> 127 60<32.1501 204.276> 202 56<305.654 417.359>
LayerCount: 2
Fore
SplineSet
364 58 m 1
 344 34 309 -10 245 -10 c 0
 204 -10 127 6 127 108 c 0
 127 138 132 176 176 295 c 0
 191 333 202 362 202 388 c 0
 202 420 186 421 176 421 c 0
 138 421 99 383 75 297 c 0
 71 283 70 279 61 279 c 0
 54 279 50 284 50 288 c 0
 50 296 87 441 179 441 c 0
 227 441 258 404 258 361 c 0
 258 341 253 328 241 296 c 0
 215 229 187 149 187 92 c 0
 187 55 197 10 249 10 c 0
 322 10 361 92 362 92 c 0
 369 127 423 342 433 381 c 0
 439 406 446 431 475 431 c 0
 490 431 502 421 502 406 c 0
 502 403 502 401 495 376 c 2
 454 213 l 1
 448 185 441 158 434 131 c 0
 424 89 421 79 421 56 c 0
 421 43 421 10 451 10 c 0
 491 10 509 63 527 132 c 0
 531 147 532 152 541 152 c 0
 547 152 551 148 551 143 c 0
 551 140 538 81 521 45 c 0
 505 11 481 -10 449 -10 c 0
 425 -10 377 2 364 58 c 1
EndSplineSet
Validated: 1
EndChar

StartChar: v
Encoding: 118 118 47
Width: 530
Flags: W
HStem: -10 20<222.526 299.539> 421 20<143.728 196.726>
VStem: 50 25<279.057 327.02> 128 60<35.161 207.815> 202 56<305.513 417.176> 394 86<364.266 432.698>
LayerCount: 2
Fore
SplineSet
480 374 m 0
 480 317 423 -10 257 -10 c 0
 248 -10 198 -10 162 21 c 0
 131 49 128 90 128 112 c 0
 128 136 128 167 176 295 c 0
 191 333 202 362 202 388 c 0
 202 421 185 421 176 421 c 0
 138 421 99 383 75 297 c 0
 71 283 70 279 61 279 c 0
 54 279 50 284 50 288 c 0
 50 296 87 441 179 441 c 0
 228 441 258 403 258 361 c 0
 258 341 254 331 238 290 c 0
 211 218 188 148 188 98 c 0
 188 61 200 10 261 10 c 0
 381 10 441 244 441 286 c 0
 441 338 415 365 405 374 c 0
 401 378 394 385 394 397 c 0
 394 417 416 441 440 441 c 0
 448 441 480 437 480 374 c 0
EndSplineSet
Validated: 1
EndChar

StartChar: w
Encoding: 119 119 48
Width: 748
Flags: W
HStem: -10 20<227.222 304.232 454.58 534.01> 421 20<143.169 196.842>
VStem: 50 25<279.057 327.031> 128 61<38.4648 208.869> 202 56<305.895 417.171> 359 60<53.843 211.351> 612 86<365.237 432.745>
LayerCount: 2
Fore
SplineSet
367 61 m 1
 327 -10 282 -10 265 -10 c 0
 214 -10 128 9 128 114 c 0
 128 152 138 193 185 318 c 0
 202 362 202 383 202 388 c 0
 202 420 186 421 176 421 c 0
 139 421 100 385 75 297 c 0
 71 283 70 279 61 279 c 0
 54 279 50 284 50 288 c 0
 50 296 87 441 179 441 c 0
 228 441 258 403 258 361 c 0
 258 341 253 328 241 297 c 0
 196 178 189 134 189 102 c 0
 189 85 189 10 268 10 c 0
 299 10 315 27 326 38 c 0
 327 40 359 78 359 102 c 0
 359 124 359 135 363 152 c 0
 367 174 409 343 419 382 c 0
 425 406 432 431 461 431 c 0
 476 431 488 421 488 406 c 0
 488 402 479 367 474 347 c 2
 432 179 l 2
 428 162 419 127 419 98 c 0
 419 52 437 10 493 10 c 0
 545 10 582 50 610 111 c 0
 631 158 659 252 659 286 c 0
 659 338 633 365 624 374 c 0
 619 378 612 385 612 397 c 0
 612 417 634 441 658 441 c 0
 667 441 698 435 698 374 c 0
 698 315 661 183 638 125 c 0
 610 56 565 -10 489 -10 c 0
 451 -10 389 1 367 61 c 1
EndSplineSet
Validated: 1
EndChar

StartChar: x
Encoding: 120 120 49
Width: 586
Flags: W
HStem: -10 20<96.1509 175.856 318.026 387.621> 23 81<90 124.692> 327 81<460.734 496> 421 20<198.26 266.749 409.507 489.591>
VStem: 50 84<32.9818 94.273> 83 23<279.017 317.903> 452 84<336.65 398.018> 479 23<109.812 151.928>
LayerCount: 2
Fore
SplineSet
496 408 m 1xf6
 475 421 447 421 445 421 c 0
 399 421 365 377 350 317 c 2
 315 181 l 2
 299 115 295 99 295 77 c 0
 295 36 314 10 349 10 c 0
 394 10 452 51 479 139 c 0
 482 147 483 152 492 152 c 0
 498 152 502 148 502 143 c 0
 502 121 448 -10 346 -10 c 0
 309 -10 259 10 243 69 c 1
 222 28 188 -10 140 -10 c 0
 97 -10 50 9 50 51 c 0
 50 83 76 104 100 104 c 0
 119 104 134 92 134 72 c 0xf9
 134 60 126 30 90 23 c 1
 111 10 136 10 141 10 c 0
 194 10 223 65 238 125 c 2
 272 262 l 2
 284 310 290 333 290 355 c 0
 290 379 281 421 236 421 c 0
 207 421 140 400 106 289 c 0
 104 285 102 279 94 279 c 0
 87 279 83 284 83 288 c 0
 83 310 137 441 239 441 c 0
 257 441 319 437 342 362 c 1
 351 381 385 441 446 441 c 0
 488 441 536 422 536 380 c 0
 536 353 515 327 485 327 c 0
 471 327 452 335 452 359 c 0
 452 378 464 402 496 408 c 1xf6
EndSplineSet
Validated: 1
EndChar

StartChar: y
Encoding: 121 121 50
Width: 551
Flags: W
HStem: -204 20<128.972 214.487> -137 80<96.7133 146.768> -10 20<215.194 290.817> 421 20<143.51 196.726>
VStem: 50 25<279.057 327.031> 71 85<-127.37 -67.4961> 127 60<32.2521 205.914> 202 56<305.617 417.176>
LayerCount: 2
Fore
SplineSet
286 -112 m 0xf5
 321 -63 331 -24 346 35 c 1
 345 36 l 1
 310 -1 274 -10 245 -10 c 0
 195 -10 127 12 127 107 c 0
 127 131 127 164 176 295 c 0
 191 333 202 362 202 388 c 0
 202 421 185 421 176 421 c 0
 137 421 99 381 75 297 c 0
 71 283 70 279 61 279 c 0
 54 279 50 284 50 288 c 0
 50 296 87 441 179 441 c 0
 228 441 258 403 258 361 c 0
 258 341 252 327 241 298 c 0
 214 226 187 149 187 92 c 0xfb
 187 65 192 10 248 10 c 0
 296 10 329 44 349 72 c 0
 357 83 357 85 362 103 c 2
 436 397 l 2
 444 427 465 431 474 431 c 0
 489 431 501 421 501 406 c 0
 501 400 499 394 498 389 c 2
 400 -1 l 2
 372 -112 271 -204 171 -204 c 0
 114 -204 71 -169 71 -118 c 0
 71 -69 106 -57 122 -57 c 0
 137 -57 156 -65 156 -88 c 0
 156 -111 136 -137 106 -137 c 0
 104 -137 99 -137 96 -136 c 1
 111 -182 159 -184 171 -184 c 0
 220 -184 259 -150 286 -112 c 0xf5
EndSplineSet
Validated: 1
EndChar

StartChar: z
Encoding: 122 122 51
Width: 517
Flags: W
HStem: -10 63<230.761 345.082> 65 20<134.687 190.35> 346 20<338.7 380.409> 378 63<191.069 298.025>
VStem: 133 22<320.039 347.134> 410 23<115.047 149.983>
LayerCount: 2
Fore
SplineSet
134 81 m 1
 143 85 154 85 164 85 c 0
 177 85 188 85 228 69 c 0
 249 60 269 53 290 53 c 0
 329 53 388 77 410 136 c 0
 413 146 414 150 422 150 c 0
 432 150 433 144 433 140 c 0
 433 117 377 -10 279 -10 c 0
 247 -10 230 11 211 33 c 1
 191 58 181 65 160 65 c 0
 123 65 91 28 75 3 c 0
 68 -9 67 -10 61 -10 c 0
 55 -10 50 -8 50 -2 c 0
 50 5 87 64 148 126 c 1
 249 219 l 2
 294 260 348 308 381 347 c 1
 376 346 372 346 365 346 c 0
 355 346 339 346 301 362 c 0
 280 371 260 378 239 378 c 0
 220 378 172 371 155 331 c 0
 152 324 151 320 143 320 c 0
 134 320 133 326 133 329 c 0
 133 350 177 441 250 441 c 0
 279 441 296 424 317 399 c 0
 336 375 347 366 368 366 c 0
 394 366 418 387 443 430 c 0
 448 437 450 441 457 441 c 0
 459 441 467 441 467 433 c 0
 467 425 432 367 362 298 c 0
 348 283 322 258 262 206 c 1
 212 161 177 130 134 81 c 1
EndSplineSet
Validated: 1
EndChar

StartChar: uni0237
Encoding: 567 567 52
Width: 467
Flags: W
HStem: -204 20<94.3548 180.53> -174 80<93 125.25> 421 20<288.908 349.833>
VStem: 50 84<-164.155 -103.443> 358 59<264.531 412.051>
LayerCount: 2
Fore
SplineSet
413 317 m 2
 320 -53 l 2
 296 -148 215 -204 143 -204 c 0
 100 -204 50 -189 50 -146 c 0
 50 -116 74 -94 100 -94 c 0
 122 -94 134 -110 134 -126 c 0
 134 -133 129 -165 93 -174 c 1
 115 -184 138 -184 143 -184 c 0
 201 -184 239 -120 256 -54 c 2
 351 323 l 2
 355 341 358 351 358 375 c 0
 358 410 347 421 326 421 c 0
 290 421 239 393 198 293 c 0
 193 283 192 279 184 279 c 0
 178 279 174 283 174 288 c 0
 174 295 228 441 329 441 c 0
 374 441 417 409 417 351 c 0
 417 347 417 333 413 317 c 2
EndSplineSet
Validated: 1
EndChar

StartChar: dotlessi
Encoding: 305 305 53
Width: 356
Flags: W
HStem: -10 20<160.443 213.563> 421 20<143.51 196.726>
VStem: 50 25<279.057 327.031> 99 56<13.5144 127> 202 56<305.691 417.171> 281 25<104.256 151.86>
LayerCount: 2
Fore
SplineSet
306 143 m 0
 306 136 270 -10 178 -10 c 0
 130 -10 99 26 99 71 c 0
 99 89 105 105 111 121 c 2
 181 307 l 2
 189 329 202 362 202 388 c 0
 202 420 185 421 176 421 c 0
 137 421 99 381 75 297 c 0
 71 283 70 279 61 279 c 0
 54 279 50 284 50 288 c 0
 50 296 87 441 179 441 c 0
 228 441 258 403 258 361 c 0
 258 342 251 324 248 316 c 2
 178 130 l 2
 167 100 155 70 155 43 c 0
 155 13 169 10 181 10 c 0
 214 10 255 41 281 132 c 0
 286 149 287 152 296 152 c 0
 302 152 306 148 306 143 c 0
EndSplineSet
Validated: 1
EndChar

StartChar: alpha
Encoding: 945 945 54
Width: 649
Flags: W
HStem: -10 20<165.958 273.372 487.12 531.224> 421 20<268.285 350.043>
VStem: 50 67<67.6968 240.899> 408 65<98.5113 157.89 168 350.93> 560 22<37.2361 67.98> 574 25<340.478 392.962>
LayerCount: 2
Fore
SplineSet
473 253 m 2xf8
 473 168 l 1
 535 250 561 328 574 372 c 1
 578 390 579 393 588 393 c 0
 591 393 599 393 599 384 c 0xf4
 599 383 575 257 473 135 c 1
 473 74 473 10 504 10 c 0
 528 10 551 32 560 57 c 0
 563 65 564 68 572 68 c 0
 575 68 582 68 582 59 c 0
 582 46 555 -10 501 -10 c 0
 458 -10 427 18 413 74 c 1
 342 14 268 -10 206 -10 c 0
 104 -10 50 69 50 156 c 0
 50 298 181 441 312 441 c 0
 418 441 473 350 473 253 c 2xf8
410 98 m 1
 409 109 408 114 408 134 c 0
 408 159 409 185 409 210 c 0
 409 294 409 421 312 421 c 0
 267 421 211 390 170 320 c 1
 139 265 117 163 117 120 c 0
 117 73 137 10 208 10 c 0
 243 10 322 19 410 98 c 1
EndSplineSet
Validated: 1
EndChar

StartChar: beta
Encoding: 946 946 55
Width: 637
Flags: W
HStem: -10 20<224.309 326.189> 377 20<317.654 412.094> 411 20<317.961 412.341> 685 20<396.588 489.145>
VStem: 486 58<165.26 344.58> 535 52<498.105 647.396>
LayerCount: 2
Fore
SplineSet
587 582 m 0xf4
 587 503 543 442 471 404 c 1
 487 392 502 378 514 359 c 0
 535 327 544 289 544 251 c 0xf8
 544 102 409 -10 266 -10 c 0
 207 -10 152 36 142 92 c 1
 72 -188 l 2
 71 -193 66 -194 59 -194 c 0
 54 -194 48 -192 50 -184 c 2
 208 443 l 2
 234 547 316 705 445 705 c 0
 536 705 587 642 587 582 c 0xf4
413 405 m 1
 399 409 381 411 363 411 c 0
 342 411 327 409 317 402 c 1
 331 398 342 397 352 397 c 0
 355 397 358 397 362 397 c 0
 381 397 397 399 413 405 c 1
535 591 m 0xf4
 535 635 515 685 443 685 c 0
 346 685 262 567 229 436 c 2
 164 173 l 2
 160 158 160 145 160 136 c 0
 160 68 198 10 271 10 c 0
 340 10 418 58 451 132 c 0
 470 175 486 222 486 280 c 0xf8
 486 330 472 364 440 390 c 1
 416 383 393 377 367 377 c 0
 364 377 360 377 355 377 c 0
 332 377 295 379 295 401 c 0
 295 429 343 431 368 431 c 0
 371 431 374 431 376 431 c 0
 398 431 424 426 443 419 c 1
 508 456 535 536 535 591 c 0xf4
EndSplineSet
Validated: 1
EndChar

StartChar: gamma
Encoding: 947 947 56
Width: 613
Flags: W
HStem: 375 66<166.686 303.962>
VStem: 50 24<249.06 287.645> 387 22<122 229.087>
LayerCount: 2
Fore
SplineSet
409 122 m 1
 442 210 462 255 477 289 c 0
 507 357 542 425 544 427 c 0
 546 431 551 431 553 431 c 0
 562 431 563 424 563 423 c 0
 563 420 549 393 542 377 c 0
 463 220 406 55 403 31 c 0
 398 -9 392 -53 368 -141 c 0
 357 -181 348 -214 333 -214 c 0
 325 -214 322 -205 322 -197 c 0
 322 -169 355 -45 374 17 c 0
 380 37 387 58 387 121 c 0
 387 220 367 375 228 375 c 0
 159 375 95 326 74 264 c 0
 69 251 69 249 60 249 c 0
 57 249 50 249 50 258 c 0
 50 284 117 441 240 441 c 0
 313 441 347 388 367 338 c 1
 405 248 407 171 409 122 c 1
EndSplineSet
Validated: 1
EndChar

StartChar: delta
Encoding: 948 948 57
Width: 504
Flags: W
HStem: -12 20<161.741 238.536> 417 19<258.107 270> 633 67<368.851 449.88> 680 30<258.759 348.602>
VStem: 50 58<64.4153 243.665> 211 25<586.891 661.205> 334 66<160.347 348.522>
LayerCount: 2
Fore
SplineSet
270 436 m 1xee
 236 502 211 559 211 608 c 0
 211 710 309 710 326 710 c 0xde
 343 710 357 710 404 700 c 0
 439 692 454 689 454 670 c 0
 454 654 439 633 418 633 c 0xee
 405 633 382 646 373 652 c 0
 343 669 324 680 293 680 c 0xde
 249 680 236 650 236 633 c 0
 236 585 296 508 333 461 c 0
 358 428 400 373 400 283 c 0
 400 150 320 -12 202 -12 c 0
 122 -12 50 48 50 155 c 0
 50 272 142 405 270 436 c 1xee
281 417 m 1
 145 381 108 192 108 127 c 0
 108 34 164 8 203 8 c 0
 292 8 334 165 334 243 c 0
 334 308 319 338 281 417 c 1
EndSplineSet
Validated: 1
EndChar

StartChar: epsilon
Encoding: 949 949 58
Width: 421
Flags: W
HStem: -10 20<182.174 277.275> 227 29<137 326.89> 402 29<238.771 370.902>
VStem: 50 68<83.6706 225.241>
LayerCount: 2
Fore
SplineSet
295 227 m 2
 129 227 l 1
 120 187 118 161 118 142 c 0
 118 45 174 10 227 10 c 0
 257 10 294 22 332 47 c 0
 337 51 339 52 342 52 c 0
 348 52 351 46 351 40 c 0
 351 30 288 -10 224 -10 c 0
 125 -10 50 65 50 176 c 0
 50 333 185 431 308 431 c 2
 342 431 l 2
 360 431 371 431 371 418 c 0
 371 402 356 402 339 402 c 2
 310 402 l 2
 221 402 162 347 137 256 c 1
 299 256 l 2
 317 256 327 256 327 243 c 0
 327 227 310 227 295 227 c 2
EndSplineSet
Validated: 1
EndChar

StartChar: zeta
Encoding: 950 950 59
Width: 521
Flags: W
HStem: -204 20<231.559 302.146> 566 20<347.679 447.371> 600 20<347.827 447.193> 676 20G<308 318.5>
VStem: 50 51<107.304 294.862> 300 22<609.798 694.395> 331 50<-152.837 -68.6763>
LayerCount: 2
Fore
SplineSet
194 49 m 1
 286 17 l 2
 323 5 381 -15 381 -85 c 0
 381 -137 337 -204 273 -204 c 0
 223 -204 180 -166 180 -156 c 0
 180 -154 182 -146 190 -146 c 0
 195 -146 197 -148 201 -152 c 0
 226 -177 253 -184 273 -184 c 0
 310 -184 331 -145 331 -116 c 0
 331 -68 292 -55 251 -41 c 0
 238 -36 206 -25 193 -21 c 0
 141 -3 50 29 50 166 c 0
 50 353 196 540 312 600 c 1
 300 621 300 642 300 651 c 0
 300 659 300 696 316 696 c 0
 321 696 326 692 326 686 c 0
 326 683 322 669 322 651 c 0
 322 636 325 622 331 609 c 1
 357 620 374 620 394 620 c 0
 426 620 471 619 471 595 c 0
 471 566 410 566 385 566 c 0
 366 566 343 566 325 583 c 1
 202 512 101 329 101 192 c 0
 101 117 135 72 194 49 c 1
347 593 m 1
 358 586 365 586 386 586 c 0
 428 586 436 589 448 594 c 1
 428 599 425 600 393 600 c 0
 376 600 362 600 347 593 c 1
EndSplineSet
Validated: 1
EndChar

StartChar: eta
Encoding: 951 951 60
Width: 556
Flags: W
HStem: -10 21G<116.5 130> 421 20<124.542 171.982 341.624 424.584>
VStem: 50 26<279.057 338.245> 98 60<-7.82156 94.765> 446 60<238.953 404.003>
LayerCount: 2
Fore
SplineSet
498 277 m 2
 383 -181 l 2
 375 -211 354 -215 345 -215 c 0
 330 -215 318 -205 318 -190 c 0
 318 -184 320 -178 321 -173 c 2
 437 287 l 2
 442 306 446 322 446 351 c 0
 446 391 432 421 392 421 c 0
 353 421 319 405 293 381 c 1
 256 349 231 299 229 293 c 2
 196 161 l 1
 174 71 l 2
 169 51 160 16 158 11 c 0
 150 -4 136 -10 124 -10 c 0
 109 -10 98 1 98 15 c 0
 98 20 109 67 116 93 c 0
 121 111 132 156 136 175 c 2
 164 283 l 1
 171 314 181 353 181 375 c 0
 181 405 173 421 150 421 c 0
 110 421 91 362 76 303 c 0
 70 280 69 279 61 279 c 0
 54 279 50 284 50 288 c 0
 50 292 64 353 82 389 c 0
 101 427 124 441 153 441 c 0
 197 441 238 410 241 353 c 1
 259 378 306 441 395 441 c 0
 471 441 506 396 506 336 c 0
 506 309 503 297 498 277 c 2
EndSplineSet
Validated: 1
EndChar

StartChar: theta
Encoding: 952 952 61
Width: 503
Flags: W
HStem: -10 20<137.999 197.547> 332 30<150 354> 684 20<305.405 364.757>
VStem: 50 60<64.1529 287.789> 393 60<405.199 631.088>
CounterMasks: 1 e0
LayerCount: 2
Fore
SplineSet
453 503 m 0
 453 276 301 -10 165 -10 c 0
 60 -10 50 145 50 191 c 0
 50 411 199 704 339 704 c 0
 421 704 453 605 453 503 c 0
150 362 m 1
 361 362 l 1
 390 474 393 524 393 560 c 0
 393 656 371 684 338 684 c 0
 294 684 259 636 226 576 c 0
 186 505 165 421 150 362 c 1
354 332 m 1
 142 332 l 1
 126 266 110 198 110 133 c 0
 110 34 135 10 166 10 c 0
 208 10 243 57 272 108 c 0
 308 171 329 234 354 332 c 1
EndSplineSet
Validated: 1
EndChar

StartChar: iota
Encoding: 953 953 62
Width: 361
Flags: W
HStem: -10 20<111.209 179.134> 421 20G<176 190.5>
VStem: 50 56<13.9287 125.083> 148 62<332.888 438.164> 288 23<113.405 151.926>
LayerCount: 2
Fore
SplineSet
311 143 m 0
 311 110 242 -10 131 -10 c 0
 75 -10 50 32 50 71 c 0
 50 105 73 144 82 179 c 0
 89 204 88 196 95 222 c 0
 99 234 124 325 125 329 c 0
 131 348 141 396 148 415 c 0
 154 431 168 441 184 441 c 0
 197 441 210 432 210 416 c 0
 210 408 172 247 122 111 c 0
 117 97 106 67 106 43 c 0
 106 12 121 10 133 10 c 0
 175 10 256 42 288 139 c 0
 291 148 293 152 301 152 c 0
 307 152 311 148 311 143 c 0
EndSplineSet
Validated: 1
EndChar

StartChar: kappa
Encoding: 954 954 63
Width: 580
Flags: W
HStem: -10 20<396.658 449.267> 231 19<208 246.141> 350 81<424.915 490.999> 421 20G<180.5 191.5>
VStem: 329 58<20.5401 145.079> 336 64<87.5772 191.479> 418 83<359.721 402.717> 506 24<100.37 151.888>
LayerCount: 2
Fore
SplineSet
208 250 m 1xe7
 274 247 400 238 400 147 c 0xe7
 400 136 397 124 395 114 c 0
 391 99 387 77 387 58 c 0
 387 23 398 10 420 10 c 0
 471 10 493 84 506 132 c 0
 510 148 511 152 520 152 c 0
 526 152 530 148 530 143 c 0
 530 139 517 84 496 45 c 0
 481 19 458 -10 417 -10 c 0
 368 -10 329 27 329 87 c 0xeb
 329 93 329 104 333 123 c 0
 336 134 336 137 336 144 c 0
 336 193 293 225 166 231 c 1
 164 225 123 58 117 37 c 0
 112 16 106 -10 76 -10 c 0
 61 -10 50 1 50 15 c 0
 50 21 50 23 53 35 c 2
 146 406 l 2
 154 438 176 441 185 441 c 0xd7
 198 441 211 432 211 416 c 1
 173 257 l 1
 214 270 243 292 301 343 c 1
 345 380 404 431 464 431 c 0
 499 431 501 405 501 399 c 0
 501 380 483 350 451 350 c 0
 441 350 418 355 418 382 c 0
 418 389 419 397 423 403 c 1
 385 388 363 372 303 320 c 0
 278 299 241 268 208 250 c 1xe7
EndSplineSet
Validated: 1
EndChar

StartChar: lambda
Encoding: 955 955 64
Width: 582
Flags: W
HStem: -10 21G<70 80 488 523> 674 20<172.008 207.472>
LayerCount: 2
Fore
SplineSet
306 623 m 2
 507 48 l 2
 511 36 518 18 527 7 c 0
 531 3 532 2 532 -2 c 0
 532 -10 525 -10 521 -10 c 2
 502 -10 l 2
 474 -10 472 -10 462 -1 c 0
 448 12 443 26 438 41 c 0
 407 125 375 217 349 295 c 1
 258 187 115 12 99 -3 c 0
 93 -9 82 -11 78 -11 c 0
 62 -11 50 1 50 15 c 0
 50 28 58 36 70 48 c 2
 330 311 l 2
 338 319 339 320 339 321 c 0
 339 323 236 622 226 641 c 0
 210 670 198 672 183 674 c 0
 178 675 172 676 172 684 c 0
 172 694 183 694 189 694 c 0
 202 694 281 694 306 623 c 2
EndSplineSet
Validated: 1
EndChar

StartChar: mu
Encoding: 956 956 65
Width: 632
Flags: W
HStem: -10 20<226.066 311.149 460.708 508.622> 421 20G<232.5 243.5>
LayerCount: 2
Fore
SplineSet
166 22 m 1
 119 -164 l 2
 112 -192 106 -215 77 -215 c 0
 62 -215 50 -205 50 -190 c 0
 50 -184 52 -178 53 -173 c 2
 198 406 l 2
 206 438 228 441 237 441 c 0
 250 441 263 432 263 416 c 0
 263 410 255 378 250 359 c 2
 205 179 l 2
 201 162 192 127 192 98 c 0
 192 51 210 10 266 10 c 0
 329 10 368 64 380 81 c 1
 393 97 393 99 398 119 c 2
 468 397 l 2
 476 427 497 431 506 431 c 0
 521 431 533 421 533 406 c 0
 533 402 522 359 516 335 c 0
 511 317 500 272 496 253 c 2
 468 145 l 2
 461 115 452 79 452 56 c 0
 452 36 454 10 483 10 c 0
 524 10 543 73 558 132 c 0
 562 147 563 152 572 152 c 0
 578 152 582 148 582 143 c 0
 582 139 568 78 552 44 c 0
 534 8 510 -10 480 -10 c 0
 445 -10 403 11 393 64 c 1
 370 33 326 -10 262 -10 c 0
 228 -10 191 -1 166 22 c 1
EndSplineSet
Validated: 1
EndChar

StartChar: nu
Encoding: 957 957 66
Width: 561
Flags: W
HStem: 0 21G<56.5 88> 401 40<70.6559 140.998>
VStem: 447 64<350.456 437.606>
LayerCount: 2
Fore
SplineSet
217 431 m 2
 118 30 l 1
 251 74 388 198 447 407 c 0
 449 414 456 441 485 441 c 0
 498 441 511 432 511 416 c 0
 511 412 493 289 364 156 c 0
 247 36 95 0 81 0 c 2
 60 0 l 2
 53 0 50 6 50 10 c 2
 138 363 l 2
 139 367 141 379 141 383 c 0
 141 394 138 401 91 401 c 0
 77 401 69 401 69 411 c 0
 69 429 79 430 90 431 c 0
 105 432 199 441 206 441 c 0
 214 441 217 435 217 431 c 2
EndSplineSet
Validated: 1
EndChar

StartChar: xi
Encoding: 958 958 67
Width: 517
Flags: W
HStem: -204 20<248.349 323.269> 293 20<261.719 375.553> 327 20<262.234 375.304> 566 20<340.411 443.371> 600 20<340.747 443.231> 676 20G<304 314.5>
VStem: 50 48<77.1331 183.722> 130 73<357.167 496.656> 296 22<615.555 694.395> 346 52<-159.828 -93.7954>
LayerCount: 2
Fore
SplineSet
289 -5 m 1
 349 -29 l 1
 381 -43 398 -68 398 -99 c 0
 398 -142 359 -204 295 -204 c 0
 241 -204 189 -167 189 -156 c 0
 189 -150 194 -146 199 -146 c 0
 203 -146 204 -147 211 -153 c 0
 247 -180 280 -184 295 -184 c 0
 330 -184 346 -150 346 -129 c 0
 346 -113 338 -101 328 -94 c 0
 321 -90 280 -73 255 -64 c 2
 165 -28 l 2
 129 -13 50 18 50 105 c 0
 50 159 94 261 197 317 c 1
 170 332 130 365 130 425 c 0
 130 490 183 575 303 610 c 1
 297 623 296 637 296 651 c 0
 296 659 296 696 312 696 c 0
 317 696 322 692 322 686 c 0
 322 683 318 669 318 651 c 0
 318 629 319 627 324 615 c 1
 352 620 367 620 387 620 c 0
 419 620 467 620 467 595 c 0
 467 566 406 566 381 566 c 0
 360 566 336 566 318 587 c 1
 239 550 203 472 203 417 c 0
 203 387 213 355 237 335 c 1
 273 347 300 347 320 347 c 0
 363 347 399 344 399 322 c 0
 399 293 340 293 309 293 c 0
 291 293 265 293 238 301 c 0
 235 302 226 304 224 304 c 0
 203 304 98 217 98 131 c 0
 98 71 158 47 184 37 c 2
 289 -5 l 1
340 595 m 1
 351 586 363 586 382 586 c 0
 424 586 432 589 444 594 c 1
 424 599 421 600 388 600 c 0
 375 600 357 600 340 595 c 1
261 321 m 1
 279 313 289 313 313 313 c 0
 356 313 365 316 376 321 c 1
 354 326 352 327 319 327 c 0
 307 327 285 327 261 321 c 1
EndSplineSet
Validated: 1
EndChar

StartChar: omicron
Encoding: 959 959 68
Width: 515
Flags: W
HStem: -10 20<165.926 247.503> 421 20<267.82 348.856>
VStem: 50 67<68.3636 239.809> 398 67<194.441 362.636>
LayerCount: 2
Fore
SplineSet
465 275 m 0
 465 134 336 -10 203 -10 c 0
 112 -10 50 61 50 156 c 0
 50 297 180 441 312 441 c 0
 403 441 465 370 465 275 c 0
204 10 m 0
 243 10 298 36 339 103 c 0
 377 164 398 271 398 311 c 0
 398 381 360 421 311 421 c 0
 270 421 214 395 169 318 c 1
 141 268 117 166 117 120 c 0
 117 50 154 10 204 10 c 0
EndSplineSet
Validated: 1
EndChar

StartChar: pi
Encoding: 960 960 69
Width: 627
Flags: W
HStem: -10 21G<145.5 164.5 372.5 403.5> 377 54<139.989 260 283 396 414.453 575.557>
VStem: 352 46<63.1887 280.913>
LayerCount: 2
Fore
SplineSet
283 377 m 1
 225 151 l 2
 215 111 215 109 199 58 c 1
 187 16 179 -10 150 -10 c 0
 141 -10 123 -5 123 16 c 0
 123 22 123 24 131 40 c 0
 213 215 238 302 260 377 c 1
 203 377 l 2
 178 377 126 377 74 295 c 1
 69 289 68 286 61 286 c 0
 55 286 50 288 50 294 c 0
 50 300 82 353 108 382 c 0
 154 431 188 431 211 431 c 2
 540 431 l 2
 558 431 577 431 577 409 c 0
 577 377 544 377 531 377 c 2
 419 377 l 1
 398 287 398 216 398 210 c 0
 398 203 398 117 425 48 c 1
 432 33 432 31 432 26 c 0
 432 9 414 -10 393 -10 c 0
 352 -10 352 98 352 112 c 0
 352 192 369 265 396 377 c 1
 283 377 l 1
EndSplineSet
Validated: 1
EndChar

StartChar: rho
Encoding: 961 961 70
Width: 563
Flags: W
HStem: -10 20<233.22 309.254> 421 20<339.698 410.965>
VStem: 448 65<198.063 373.385>
LayerCount: 2
Fore
SplineSet
53 -173 m 2
 151 217 l 2
 184 350 291 441 379 441 c 0
 448 441 513 388 513 281 c 0
 513 130 385 -10 272 -10 c 0
 233 -10 196 11 176 61 c 1
 144 -62 116 -182 112 -191 c 0
 106 -205 92 -215 77 -215 c 0
 62 -215 50 -205 50 -190 c 0
 50 -184 52 -178 53 -173 c 2
271 10 m 0
 322 10 374 60 404 129 c 1
 421 171 448 270 448 321 c 0
 448 380 423 421 378 421 c 0
 363 421 265 416 214 217 c 0
 211 202 186 107 186 101 c 0
 186 89 203 10 271 10 c 0
EndSplineSet
Validated: 1
EndChar

StartChar: sigma1
Encoding: 962 962 71
Width: 470
Flags: W
HStem: -107 20<193.899 263.935> 421 20<251.661 367.481>
VStem: 50 49<181.524 296.67> 285 53<-63.1544 9.43477>
LayerCount: 2
Fore
SplineSet
240 25 m 2
 143 80 l 2
 113 97 50 132 50 215 c 0
 50 327 173 441 320 441 c 0
 360 441 420 432 420 411 c 0
 420 405 414 396 405 396 c 0
 403 396 401 396 394 400 c 0
 370 411 346 421 315 421 c 0
 207 421 99 338 99 245 c 0
 99 182 137 161 193 129 c 2
 249 98 l 2
 259 92 287 77 297 70 c 1
 308 64 338 43 338 -1 c 0
 338 -47 297 -107 237 -107 c 0
 221 -107 179 -99 179 -85 c 0
 179 -80 184 -76 189 -76 c 0
 191 -76 197 -78 199 -79 c 0
 216 -86 234 -87 237 -87 c 0
 271 -87 285 -53 285 -32 c 0
 285 -1 265 10 240 25 c 2
EndSplineSet
Validated: 1
EndChar

StartChar: sigma
Encoding: 963 963 72
Width: 616
Flags: W
HStem: -10 20<156.127 239.746> 377 54<219.525 354.238 409 564.557>
VStem: 50 58<61.2576 233.029> 382 60<167.322 348.62>
LayerCount: 2
Fore
SplineSet
520 377 m 2
 409 377 l 1
 433 344 442 306 442 267 c 0
 442 117 313 -10 195 -10 c 0
 105 -10 50 61 50 146 c 0
 50 264 158 431 308 431 c 2
 529 431 l 2
 547 431 566 431 566 409 c 0
 566 377 533 377 520 377 c 2
196 10 m 0
 241 10 295 43 331 102 c 0
 366 160 382 244 382 279 c 0
 382 356 334 377 291 377 c 0
 144 377 108 178 108 118 c 0
 108 49 145 10 196 10 c 0
EndSplineSet
Validated: 1
EndChar

StartChar: tau
Encoding: 964 964 73
Width: 573
Flags: W
HStem: -11 21G<194 219.5> 377 54<139.989 286 311 521.557>
VStem: 286 25<353.913 377>
LayerCount: 2
Fore
SplineSet
311 377 m 1
 243 31 l 2
 240 16 235 -11 204 -11 c 0
 184 -11 177 3 177 14 c 0
 177 17 177 19 182 34 c 2
 286 377 l 1
 203 377 l 2
 178 377 126 377 74 295 c 1
 69 289 68 286 61 286 c 0
 55 286 50 288 50 294 c 0
 50 300 82 353 108 382 c 0
 154 431 188 431 211 431 c 2
 486 431 l 2
 504 431 523 431 523 409 c 0
 523 377 490 377 477 377 c 2
 311 377 l 1
EndSplineSet
Validated: 1
EndChar

StartChar: upsilon
Encoding: 965 965 74
Width: 585
Flags: W
HStem: -10 20<238.28 333.523> 421 20<143.169 196.842>
VStem: 50 25<279.057 327.031> 129 61<44.5536 213.721> 202 56<308.671 417.171> 449 86<364.574 432.745>
LayerCount: 2
Fore
SplineSet
535 374 m 0
 535 342 518 201 447 97 c 0
 421 59 367 -10 284 -10 c 0
 210 -10 129 19 129 119 c 0
 129 145 129 171 185 318 c 0
 202 362 202 383 202 388 c 0
 202 420 186 421 176 421 c 0
 139 421 100 385 75 297 c 0
 71 283 70 279 61 279 c 0
 54 279 50 284 50 288 c 0
 50 296 87 441 179 441 c 0
 228 441 258 403 258 361 c 0
 258 342 253 329 241 296 c 0
 202 195 190 147 190 108 c 0
 190 79 197 54 215 35 c 1
 241 10 281 10 287 10 c 0
 415 10 496 219 496 286 c 0
 496 338 470 365 461 374 c 0
 456 378 449 385 449 397 c 0
 449 417 471 441 495 441 c 0
 504 441 535 435 535 374 c 0
EndSplineSet
Validated: 1
EndChar

StartChar: phi
Encoding: 966 966 75
Width: 611
Flags: W
HStem: -12 20<195.384 237 265 313.421> 422 20<294.949 345.968 374 418.638> 674 20G<418.5 424.5>
VStem: 50 61<83.0511 254.63> 192 19<-203.983 -170.798> 500 61<178.988 348.9>
LayerCount: 2
Fore
SplineSet
433 685 m 1
 374 443 l 1
 485 436 561 364 561 263 c 0
 561 137 431 -3 260 -12 c 1
 223 -161 l 2
 219 -174 213 -198 211 -200 c 0
 209 -204 205 -204 202 -204 c 0
 192 -204 192 -198 192 -196 c 0
 192 -192 200 -159 214 -106 c 0
 222 -75 229 -43 237 -12 c 1
 133 -6 50 60 50 168 c 0
 50 293 176 428 340 442 c 0
 342 442 349 443 350 445 c 0
 351 446 352 447 355 460 c 2
 409 675 l 2
 413 692 414 694 423 694 c 0
 426 694 433 694 433 685 c 1
368 423 m 1
 265 9 l 1
 421 21 500 171 500 284 c 0
 500 382 434 419 368 423 c 1
242 8 m 1
 346 422 l 1
 202 413 111 273 111 147 c 0
 111 37 193 11 242 8 c 1
EndSplineSet
Validated: 1
EndChar

StartChar: chi
Encoding: 967 967 76
Width: 651
Flags: W
HStem: -204 20<474.292 520.728> 421 20<129.551 175.921>
VStem: 80 22<367.004 395.509> 547 23<-160.279 -130.012>
LayerCount: 2
Fore
SplineSet
349 161 m 1
 575 419 l 2
 585 430 588 430 591 430 c 0
 596 430 601 427 601 420 c 0
 601 416 600 415 592 406 c 2
 355 136 l 1
 372 74 395 -6 421 -73 c 0
 465 -184 481 -184 494 -184 c 0
 510 -184 536 -170 547 -142 c 0
 550 -134 551 -130 559 -130 c 0
 564 -130 570 -132 570 -139 c 0
 570 -153 544 -204 487 -204 c 0
 402 -204 381 -155 365 -117 c 0
 350 -80 350 -78 301 76 c 1
 185 -56 l 2
 159 -86 97 -160 69 -188 c 0
 66 -191 63 -193 59 -193 c 0
 55 -193 50 -191 50 -183 c 0
 50 -182 50 -178 59 -167 c 2
 295 101 l 1
 268 198 256 240 232 301 c 0
 214 349 186 421 157 421 c 0
 148 421 117 415 102 376 c 0
 101 372 99 367 91 367 c 0
 85 367 80 370 80 376 c 0
 80 389 107 441 163 441 c 0
 198 441 232 429 250 413 c 1
 264 399 272 392 303 306 c 0
 328 236 322 244 349 161 c 1
EndSplineSet
Validated: 1
EndChar

StartChar: psi
Encoding: 968 968 77
Width: 693
Flags: W
HStem: -10 20<271.919 301 329 396.283> 421 20<143.946 196.439> 674 20G<481.5 487.5>
VStem: 50 25<279.057 327.031> 131 62<57.0792 220.632> 202 56<305.256 417.313> 255 19<-203.974 -171.156> 557 86<364.017 432.409>
LayerCount: 2
Fore
SplineSet
493 670 m 2xfd
 329 10 l 1
 359 10 436 10 520 104 c 0
 584 176 604 250 604 286 c 0
 604 338 577 365 568 374 c 0
 564 378 557 385 557 397 c 0
 557 417 579 441 603 441 c 0
 613 441 643 434 643 374 c 0
 643 323 619 234 609 208 c 0
 592 165 562 119 529 83 c 1
 439 -10 360 -10 323 -10 c 1
 319 -28 278 -196 274 -200 c 1
 272 -204 268 -204 266 -204 c 0
 263 -204 255 -204 255 -195 c 0xfb
 255 -191 262 -163 278 -103 c 0
 286 -72 293 -40 301 -9 c 1
 211 -2 131 35 131 131 c 0
 131 154 131 176 185 318 c 0
 202 362 202 384 202 388 c 0
 202 420 185 421 176 421 c 0
 139 421 99 384 75 297 c 0
 71 283 70 279 61 279 c 0
 54 279 50 284 50 288 c 0
 50 296 87 441 179 441 c 0
 226 441 258 405 258 360 c 0
 258 342 253 329 240 293 c 0
 193 169 193 146 193 124 c 0
 193 64 224 22 307 12 c 1
 472 674 l 2
 476 689 477 694 486 694 c 0
 489 694 497 694 497 685 c 0
 497 684 493 671 493 670 c 2xfd
EndSplineSet
Validated: 1
EndChar

StartChar: omega
Encoding: 969 969 78
Width: 682
Flags: W
HStem: -10 66<108.076 222.746 365.533 483.718> 422 20G<579 606.5>
VStem: 50 29<99.165 237.839> 301 63<183.427 267.886> 546 86<361.893 433.394>
LayerCount: 2
Fore
SplineSet
632 376 m 0
 632 321 601 196 575 138 c 0
 539 57 491 -10 415 -10 c 0
 342 -10 312 43 304 99 c 1
 283 61 231 -10 148 -10 c 0
 73 -10 50 64 50 126 c 0
 50 222 86 333 137 412 c 0
 145 424 150 437 166 437 c 0
 175 437 179 426 179 419 c 0
 179 417 172 407 162 392 c 0
 144 367 79 276 79 172 c 0
 79 115 97 56 164 56 c 0
 228 56 282 118 301 155 c 1
 300 176 313 255 327 277 c 0
 332 285 340 289 347 289 c 0
 360 289 364 280 364 269 c 0
 364 243 341 178 330 152 c 1
 341 96 365 56 428 56 c 0
 480 56 526 103 554 158 c 0
 570 189 592 246 592 282 c 0
 592 329 573 356 558 373 c 0
 550 382 546 388 546 397 c 0
 546 417 569 442 589 442 c 0
 624 442 632 405 632 376 c 0
EndSplineSet
Validated: 33
EndChar

StartChar: theta1
Encoding: 977 977 79
Width: 620
Flags: W
HStem: -10 20<217.108 293.338> 421 20<124.542 172.534> 684 20<396.617 458.397>
VStem: 50 26<279.057 338.245> 126 60<29.613 207.405> 181 59<265.343 411.975> 290 22<474.301 578.392> 485 55<407.396 639.358>
LayerCount: 2
Fore
SplineSet
520 356 m 1xfb
 548 349 l 2
 563 346 570 345 570 338 c 0
 570 334 567 327 561 327 c 0
 556 327 538 331 515 336 c 1
 475 180 371 -10 256 -10 c 0
 240 -10 195 -9 162 15 c 1
 126 43 126 88 126 102 c 0xfb
 126 115 126 129 134 164 c 2
 152 237 l 2
 156 254 165 288 170 310 c 0
 177 338 181 353 181 375 c 0
 181 405 173 421 150 421 c 0
 110 421 91 362 76 303 c 0
 70 280 69 279 61 279 c 0
 54 279 50 284 50 288 c 0
 50 292 64 353 82 389 c 0
 101 427 124 441 153 441 c 0
 194 441 240 412 240 351 c 0xf7
 240 335 235 315 230 297 c 0
 222 262 227 283 218 249 c 0
 211 219 205 197 199 172 c 0
 191 137 186 113 186 90 c 0
 186 70 187 10 259 10 c 0
 299 10 333 47 375 128 c 1
 403 185 424 243 450 355 c 1
 389 375 290 423 290 522 c 0
 290 596 352 704 434 704 c 0
 525 704 540 578 540 509 c 0
 540 475 538 433 520 356 c 1xfb
456 375 m 1
 474 455 485 507 485 565 c 0
 485 621 480 684 432 684 c 0
 365 684 312 588 312 523 c 0
 312 456 363 406 456 375 c 1
EndSplineSet
Validated: 1
EndChar

StartChar: phi1
Encoding: 981 981 80
Width: 658
Flags: W
HStem: -10 54<270.249 397.527> -1 51<165.937 219> 387 54<422.929 550.003>
VStem: 50 23<149.436 263.735> 162 62<-213.337 -117.188> 583 25<230.908 338.07>
LayerCount: 2
Fore
SplineSet
302 44 m 0xbc
 455 44 583 169 583 283 c 0
 583 338 553 387 488 387 c 0
 401 387 325 295 293 167 c 0
 287 145 270 51 270 49 c 0
 270 44 285 44 302 44 c 0xbc
259 -8 m 1
 255 -28 227 -183 224 -192 c 0
 216 -212 198 -216 188 -216 c 0
 186 -216 162 -215 162 -191 c 0
 162 -187 162 -185 167 -170 c 2
 219 -1 l 1
 138 17 50 78 50 190 c 0
 50 285 126 431 153 431 c 0
 155 431 163 431 163 423 c 0
 163 421 163 419 152 406 c 0
 94 334 73 227 73 200 c 0
 73 133 121 72 236 50 c 1x7c
 292 238 353 441 497 441 c 0
 581 441 608 367 608 306 c 0
 608 148 457 -10 293 -10 c 0
 275 -10 265 -9 259 -8 c 1
EndSplineSet
Validated: 1
EndChar

StartChar: omega1
Encoding: 982 982 81
Width: 872
Flags: W
HStem: -10 54<178.005 297.801 484.926 604.223> 377 54<139.484 239 249.472 732.801 750 820.128>
VStem: 132 27<74.1645 197.192> 430 29<82.7764 205.523> 454 23<251.147 292.986> 739 22<233.577 373.66>
LayerCount: 2
Fore
SplineSet
211 431 m 2xf4
 785 431 l 2
 803 431 822 431 822 409 c 0
 822 395 812 383 800 379 c 0
 794 377 767 377 750 377 c 1
 757 353 761 327 761 302 c 0
 761 200 672 -10 531 -10 c 0
 453 -10 430 50 430 122 c 0
 430 134 431 149 432 158 c 1
 431 159 l 1
 382 63 304 -10 217 -10 c 0
 153 -10 132 41 132 102 c 0
 132 238 209 338 239 377 c 1
 174 377 164 377 137 360 c 0
 102 339 84 312 74 296 c 0
 69 288 68 286 61 286 c 0
 55 286 50 288 50 294 c 0
 50 300 82 353 108 382 c 0
 154 431 188 431 211 431 c 2xf4
727 377 m 1
 266 377 l 1
 173 265 159 178 159 135 c 0
 159 103 166 44 226 44 c 0
 298 44 403 106 454 283 c 0
 456 288 458 293 466 293 c 0
 473 293 477 288 477 284 c 0xec
 477 283 477 281 471 256 c 0
 466 236 459 194 459 158 c 0
 459 78 487 44 540 44 c 0
 650 44 739 192 739 302 c 0
 739 322 735 354 727 377 c 1
EndSplineSet
Validated: 1
EndChar

StartChar: uni03DE
Encoding: 990 990 82
Width: 756
Flags: W
HStem: -1 67<476.001 555.122> 365 67<202.894 279>
VStem: 127 26<312.039 337.12> 279 31<299.788 399> 445 31<23.5 130.496>
LayerCount: 2
Fore
SplineSet
519 270 m 1
 137 16 l 2
 126 9 106 -5 82 -5 c 0
 79 -5 50 -4 50 21 c 0
 50 36 58 41 75 53 c 2
 141 97 l 1
 176 119 176 120 181 123 c 0
 209 142 279 293 279 347 c 0
 279 350 279 359 276 365 c 1
 208 365 161 342 153 324 c 0
 149 317 147 312 139 312 c 0
 131 312 127 318 127 324 c 0
 127 356 192 432 282 432 c 0
 310 432 310 411 310 387 c 0
 310 313 265 209 236 160 c 1
 619 415 l 2
 631 423 650 436 674 436 c 0
 684 436 706 431 706 410 c 0
 706 400 700 394 699 392 c 0
 694 387 638 350 600 324 c 0
 569 303 568 302 548 272 c 0
 499 194 476 100 476 84 c 0
 476 77 478 71 480 66 c 1
 548 67 593 87 604 107 c 1
 607 115 609 119 617 119 c 0
 621 119 629 117 629 107 c 0
 629 73 562 -1 474 -1 c 0
 458 -1 445 3 445 44 c 0
 445 70 455 155 519 270 c 1
EndSplineSet
Validated: 1
EndChar

StartChar: uni03DC
Encoding: 988 988 83
Width: 764
Flags: W
HStem: 251 20<235 470.73> 585 20<313 713.73>
LayerCount: 2
Fore
SplineSet
230 251 m 1
 152 -58 l 2
 147 -76 146 -77 135 -80 c 0
 121 -83 103 -83 99 -83 c 0
 92 -83 50 -83 50 -71 c 0
 50 -67 51 -61 52 -57 c 2
 216 597 l 1
 232 604 244 605 270 605 c 2
 660 605 l 2
 672 605 688 605 704 601 c 0
 717 598 708 598 714 595 c 1
 708 592 717 592 704 589 c 0
 688 585 672 585 660 585 c 2
 313 585 l 1
 235 271 l 1
 417 271 l 2
 429 271 445 271 461 267 c 0
 474 264 465 264 471 261 c 1
 465 258 474 258 461 255 c 0
 445 251 429 251 417 251 c 2
 230 251 l 1
EndSplineSet
Validated: 1
EndChar

StartChar: uni03F5
Encoding: 1013 1013 84
Width: 496
Flags: W
HStem: -21 43<116.184 309.659> 215 20<194.74 302.443> 249 20<194.805 302.075> 409 43<210.705 389.531>
VStem: 50 23<69.3821 152.28> 101 22<277.545 344.006>
LayerCount: 2
Fore
SplineSet
163 228 m 1
 98 194 73 143 73 109 c 0
 73 38 155 22 217 22 c 0
 336 22 362 62 373 81 c 0
 377 87 379 90 384 90 c 0
 389 90 393 86 393 81 c 0
 393 67 340 -21 208 -21 c 0
 112 -21 50 34 50 103 c 0
 50 152 84 206 142 239 c 1
 125 251 101 274 101 311 c 0
 101 385 207 452 319 452 c 0
 388 452 446 414 446 396 c 0
 446 384 433 371 421 371 c 0
 414 371 411 374 405 378 c 0
 363 409 327 409 310 409 c 0
 221 409 123 373 123 311 c 0
 123 289 135 266 166 251 c 1
 201 266 231 269 256 269 c 0
 307 269 326 262 326 244 c 0
 326 215 274 215 248 215 c 0
 229 215 195 215 163 228 c 1
194 240 m 1
 214 235 230 235 248 235 c 0
 284 235 286 235 303 243 c 1
 287 247 282 249 254 249 c 0
 247 249 221 249 194 240 c 1
EndSplineSet
Validated: 1
EndChar

StartChar: uni03F1
Encoding: 1009 1009 85
Width: 518
Flags: W
HStem: -175 54<90.9448 326.8> -10 20<192.935 264.515> 421 20<294.322 365.965>
VStem: 50 27<-99.6685 31.3968> 328 24<-193.965 -184> 403 65<198.434 373.385>
LayerCount: 2
Fore
SplineSet
101 102 m 1
 92 65 77 -6 77 -52 c 0
 77 -111 100 -121 211 -121 c 0
 308 -121 352 -121 352 -168 c 0
 352 -194 344 -194 338 -194 c 0
 332 -194 328 -191 328 -184 c 1
 327 -184 328 -181 327 -179 c 0
 323 -171 302 -171 281 -171 c 0
 247 -171 220 -175 185 -175 c 0
 50 -175 50 -112 50 -78 c 0
 50 -27 65 55 105 213 c 0
 143 361 254 441 334 441 c 0
 403 441 468 388 468 281 c 0
 468 132 342 -10 226 -10 c 0
 171 -10 120 24 101 102 c 1
227 10 m 0
 273 10 327 56 359 129 c 1
 376 171 403 270 403 321 c 0
 403 380 378 421 333 421 c 0
 284 421 233 372 206 318 c 0
 170 248 153 150 153 115 c 0
 153 66 173 10 227 10 c 0
EndSplineSet
Validated: 1
EndChar

StartChar: uni03F9
Encoding: 1017 1017 86
Width: 470
Flags: W
HStem: -107 20<193.899 263.935> 421 20<251.661 367.481>
VStem: 50 49<181.524 296.67> 285 53<-63.1544 9.43477>
LayerCount: 2
Fore
SplineSet
240 25 m 2
 143 80 l 2
 113 97 50 132 50 215 c 0
 50 327 173 441 320 441 c 0
 360 441 420 432 420 411 c 0
 420 405 414 396 405 396 c 0
 403 396 401 396 394 400 c 0
 370 411 346 421 315 421 c 0
 207 421 99 338 99 245 c 0
 99 182 137 161 193 129 c 2
 249 98 l 2
 259 92 287 77 297 70 c 1
 308 64 338 43 338 -1 c 0
 338 -47 297 -107 237 -107 c 0
 221 -107 179 -99 179 -85 c 0
 179 -80 184 -76 189 -76 c 0
 191 -76 197 -78 199 -79 c 0
 216 -86 234 -87 237 -87 c 0
 271 -87 285 -53 285 -32 c 0
 285 -1 265 10 240 25 c 2
EndSplineSet
Validated: 1
EndChar

StartChar: Rfraktur
Encoding: 8476 8476 87
Width: 768
Flags: W
HStem: -22 22<160.856 220.608> 79 26<50.3757 70.7026> 94 27<102.307 124.331> 243 22<96.5333 141.787> 345 31<347 462> 678 38<442.797 561> 683 22<133.122 201.775>
VStem: 59 30<269.111 335.796 549.767 640.372> 67 26<114.04 130.992> 166 32<294.097 447.038> 262 85<113.859 345 376 562.541> 471 84<33.0574 199>
LayerCount: 2
Fore
SplineSet
577 701 m 2x9d70
 711 460 l 2
 712 459 718 447 718 445 c 0
 718 440 716 438 713 435 c 0
 711 434 602 370 546 352 c 1
 547 338 551 258 553 238 c 1
 554 207 559 155 559 126 c 0
 559 115 555 112 555 93 c 0
 555 66 567 33 601 11 c 1
 646 48 682 77 687 77 c 0
 690 77 706 71 706 63 c 0
 706 59 705 58 693 48 c 2
 621 -8 l 2
 602 -22 600 -22 587 -22 c 0
 520 -22 471 33 471 93 c 0
 471 112 475 119 475 126 c 2
 462 345 l 1
 347 345 l 1
 347 272 l 2
 347 69 268 -22 197 -22 c 0
 162 -22 111 -2 79 85 c 1
 76 83 64 79 61 79 c 0
 56 79 50 85 50 90 c 0
 50 98 65 104 71 105 c 1
 69 108 67 114 67 118 c 0
 67 123 74 131 80 131 c 0
 87 131 92 120 93 114 c 1xdcf0
 97 116 110 121 114 121 c 0
 117 121 125 116 125 110 c 0
 125 101 105 94 102 94 c 1
 123 31 160 0 197 0 c 0
 262 0 262 184 262 193 c 2
 262 488 l 2
 262 605 222 683 170 683 c 0
 118 683 89 630 89 587 c 0
 89 565 100 550 128 525 c 0
 196 462 198 424 198 394 c 0
 198 371 198 243 117 243 c 0
 68 243 59 303 59 321 c 0
 59 325 59 336 71 336 c 0
 83 336 84 328 84 320 c 0
 85 302 90 265 117 265 c 0
 160 265 166 325 166 384 c 0
 166 421 166 437 110 493 c 0
 82 522 59 547 59 585 c 0
 59 642 103 705 171 705 c 0xbb70
 247 705 296 632 311 603 c 1
 363 688 485 716 554 716 c 0
 568 716 569 715 577 701 c 2x9d70
634 427 m 1
 501 667 l 2
 500 668 494 678 492 678 c 0
 491 678 362 660 327 564 c 1
 338 533 347 494 347 425 c 2
 347 376 l 1
 492 376 l 2
 521 376 542 376 634 427 c 1
EndSplineSet
Validated: 1
EndChar

StartChar: aleph
Encoding: 8501 8501 88
Width: 600
Flags: W
HStem: 0 22<50.0066 120.666> 673 20G<73.5 78 406.5 412>
VStem: 50 36<624.51 688.63> 78 67<182.205 345.563> 138 97<30.4861 121.187> 514 36<5.37012 69.4905 414.37 471.546>
LayerCount: 2
Fore
SplineSet
465 112 m 2xe4
 182 435 l 1
 150 367 145 286 145 247 c 0xd4
 145 216 148 202 189 153 c 0
 212 125 235 97 235 59 c 0
 235 2 160 0 133 0 c 2
 77 0 l 2
 59 0 50 0 50 11 c 0
 50 22 57 22 67 22 c 0
 138 24 138 50 138 61 c 0xec
 138 82 129 107 113 136 c 0
 87 185 78 208 78 241 c 0xd4
 78 307 107 379 159 461 c 1
 100 529 l 1
 50 590 50 610 50 629 c 0
 50 681 71 693 76 693 c 0
 80 693 85 690 86 683 c 0
 87 665 90 633 135 582 c 2
 413 265 l 1
 417 302 418 310 434 399 c 0
 446 466 448 493 450 522 c 1
 393 577 383 598 383 629 c 0
 383 681 404 693 409 693 c 0
 415 693 417 688 419 683 c 0
 426 665 472 585 496 564 c 0
 542 522 550 508 550 474 c 0
 550 422 529 410 524 410 c 0
 515 410 514 419 514 423 c 0
 511 459 483 490 480 493 c 1
 441 233 l 1
 500 165 l 1
 550 104 550 84 550 65 c 0
 550 13 529 1 524 1 c 0
 520 1 515 4 514 11 c 0
 513 29 510 61 465 112 c 2xe4
EndSplineSet
Validated: 1
EndChar

StartChar: Ifraktur
Encoding: 8465 8465 89
Width: 738
Flags: W
HStem: -11 23<381.33 450.84> 161 22<50.0066 111.288> 325 22<210.996 281.992> 409 22<548.776 615.413> 475 22<554.105 626.573> 683 22<201.115 311.674>
VStem: 50 31<450.067 580.165> 442 84<260.126 378.13> 535 84<72.6851 194.58> 657 31<326.005 376.289 518.093 557.996>
LayerCount: 2
Fore
SplineSet
282 336 m 0
 282 325 271 325 265 325 c 0
 173 325 50 392 50 515 c 0
 50 621 146 705 267 705 c 0
 309 705 451 695 540 529 c 0
 556 500 562 497 576 497 c 0
 578 497 649 497 657 544 c 0
 658 553 659 558 672 558 c 0
 678 558 688 558 688 545 c 0
 688 507 644 475 574 475 c 0
 488 475 440 536 395 593 c 0
 352 647 320 683 263 683 c 0
 172 683 81 615 81 515 c 0
 81 456 121 356 272 347 c 0
 276 346 282 343 282 336 c 0
77 183 m 2
 117 183 l 2
 187 183 225 154 298 85 c 0
 302 82 330 56 348 43 c 0
 380 20 408 12 414 12 c 0
 432 12 535 45 535 138 c 0
 535 159 532 175 495 217 c 0
 465 251 442 276 442 316 c 0
 442 379 500 431 572 431 c 0
 643 431 688 383 688 340 c 0
 688 331 685 326 672 326 c 0
 659 326 658 333 657 339 c 0
 648 409 575 409 574 409 c 0
 537 409 526 362 526 319 c 0
 526 296 529 279 568 235 c 1
 605 195 619 174 619 138 c 0
 619 87 590 47 555 23 c 0
 506 -11 464 -11 412 -11 c 0
 332 -11 310 -11 204 86 c 1
 126 156 94 159 59 161 c 0
 50 162 50 170 50 172 c 0
 50 183 59 183 77 183 c 2
EndSplineSet
Validated: 1
EndChar

StartChar: uni2127
Encoding: 8487 8487 90
Width: 733
Flags: W
HStem: -22 22<304.65 430.062> 622 61<93.1836 240 493 633.738>
VStem: 50 218<537 663> 62 97<138.185 330.336> 465 218<537 663> 574 97<137.996 330.092> 659 24<525.039 577.349>
LayerCount: 2
Fore
SplineSet
653 662 m 2xc8
 680 552 l 2
 681 548 683 541 683 537 c 0xc8
 683 527 675 525 670 525 c 0
 665 525 661 527 659 533 c 0xc2
 657 536 657 538 653 555 c 0
 643 595 639 606 634 613 c 0
 629 622 586 622 575 622 c 2
 493 622 l 1
 506 565 533 522 583 448 c 0
 630 377 671 308 671 229 c 0
 671 92 538 -22 366 -22 c 0
 197 -22 62 90 62 229 c 0xd4
 62 308 103 377 150 448 c 1
 201 523 227 566 240 622 c 1
 158 622 l 2
 141 622 104 622 98 612 c 0
 94 604 90 594 80 553 c 0
 73 526 72 525 63 525 c 0
 58 525 50 527 50 537 c 0
 50 542 52 548 53 552 c 2
 80 661 l 2
 85 682 86 683 111 683 c 2
 241 683 l 2
 265 683 268 683 268 663 c 0xe0
 268 591 235 505 213 447 c 0
 187 379 159 302 159 228 c 0
 159 77 264 0 367 0 c 0
 465 0 574 74 574 228 c 0xd4
 574 302 546 377 519 449 c 0
 498 505 465 592 465 663 c 0
 465 683 468 683 493 683 c 2
 623 683 l 2
 647 683 648 682 653 662 c 2xc8
EndSplineSet
Validated: 1
EndChar

StartChar: uni2136
Encoding: 8502 8502 91
Width: 778
Flags: W
HStem: -20 124<123.531 625.701> 596 118<156.733 615.349>
VStem: 626 40<104 584.672>
LayerCount: 2
Fore
SplineSet
666 604 m 2
 666 104 l 1
 706 104 l 1
 717 103 728 97 728 84 c 0
 728 74 724 70 713 60 c 2
 645 -8 l 2
 633 -20 632 -20 609 -20 c 2
 85 -20 l 2
 68 -20 50 -20 50 0 c 0
 50 8 51 9 67 25 c 2
 134 93 l 2
 146 104 147 104 171 104 c 2
 626 104 l 1
 626 553 l 2
 626 571 626 578 616 585 c 0
 602 596 595 596 555 596 c 2
 231 596 l 2
 152 596 112 596 112 717 c 0
 112 751 112 763 132 763 c 0
 146 763 149 752 151 747 c 0
 163 714 187 714 208 714 c 2
 575 714 l 2
 628 714 666 699 666 604 c 2
EndSplineSet
Validated: 1
EndChar

StartChar: uni2137
Encoding: 8503 8503 92
Width: 507
Flags: W
HStem: -20 124<123.531 333.965> 596 118<157.786 368>
VStem: 368 73<104 305.322> 368 40<396.805 596> 378 58<-36.838 37.3444>
LayerCount: 2
Fore
SplineSet
208 714 m 2xd0
 378 714 l 2xc8
 457 714 457 661 457 655 c 0
 457 643 450 609 408 598 c 1xd0
 410 564 409 534 412 500 c 0
 441 149 441 147 441 75 c 0xe0
 441 26 441 17 436 0 c 0
 434 -7 422 -42 401 -42 c 0
 384 -42 381 -27 378 -11 c 0xc8
 374 11 373 24 371 38 c 1
 304 -28 332 -2 318 -14 c 0
 312 -19 311 -20 289 -20 c 2
 85 -20 l 2
 68 -20 50 -20 50 0 c 0
 50 8 51 9 67 25 c 2
 134 93 l 2
 146 104 147 104 171 104 c 2
 368 104 l 1xe0
 368 596 l 1
 203 596 l 2
 124 596 112 639 112 717 c 0
 112 751 112 763 132 763 c 0
 146 763 149 752 151 747 c 0
 163 714 187 714 208 714 c 2xd0
EndSplineSet
Validated: 1
EndChar

StartChar: uni2138
Encoding: 8504 8504 93
Width: 668
Flags: W
HStem: 596 118<95.7863 529>
VStem: 529 73<-32.1518 305.322> 529 40<305.322 596>
LayerCount: 2
Fore
SplineSet
529 596 m 1xa0
 141 596 l 2
 62 596 50 639 50 717 c 0
 50 751 50 763 70 763 c 0
 84 763 87 752 89 747 c 0
 101 714 125 714 146 714 c 2
 539 714 l 2
 618 714 618 661 618 655 c 0
 618 643 611 609 569 598 c 1xa0
 571 564 570 534 573 500 c 0
 602 149 602 147 602 75 c 0
 602 26 602 17 597 0 c 0
 595 -7 583 -42 562 -42 c 0
 544 -42 542 -26 535 12 c 1
 529 53 529 84 529 90 c 2xc0
 529 596 l 1xa0
EndSplineSet
Validated: 1
EndChar

StartChar: eth
Encoding: 240 240 94
Width: 571
Flags: W
HStem: -22 28<220.049 339.945> 435 22<223.512 330.412> 524 103<65.0547 120.631> 607 103<450.228 505.945> 691 25<84.0044 189.644>
VStem: 50 86<114.694 325.457> 65 56<561 626.785> 432 89<169.109 458.322> 450 56<607.166 672>
LayerCount: 2
Fore
SplineSet
284 6 m 0xc5
 366 6 431 79 431 222 c 1
 432 229 432 239 432 246 c 0
 432 334 382 435 278 435 c 0
 257 435 200 435 159 360 c 0
 136 319 136 272 136 220 c 0
 136 160 136 114 166 69 c 0
 197 24 235 6 284 6 c 0xc5
320 615 m 1
 122 531 l 2
 107 524 105 524 93 524 c 0
 65 524 65 529 65 552 c 2
 65 598 l 2
 65 619 65 627 93 627 c 0
 121 627 121 617 121 609 c 2
 121 561 l 1
 292 635 l 1
 212 687 128 690 99 691 c 0
 90 691 84 692 84 704 c 0
 84 716 90 716 104 716 c 0xea
 162 716 241 703 334 653 c 1
 443 700 l 2
 460 707 466 710 478 710 c 0
 506 710 506 703 506 681 c 2
 506 635 l 2
 506 613 506 607 478 607 c 0xd280
 450 607 450 615 450 627 c 2
 450 672 l 1xe280
 421 659 392 646 363 634 c 1
 422 593 457 544 476 511 c 0
 521 434 521 366 521 339 c 0
 521 70 402 -22 283 -22 c 0
 193 -22 147 20 114 53 c 0
 50 119 50 192 50 219 c 0
 50 286 66 339 125 397 c 0
 173 444 224 457 277 457 c 0
 383 457 424 364 434 340 c 1
 435 341 l 1
 435 505 370 574 320 615 c 1
EndSplineSet
Validated: 1
EndChar

StartChar: uni210F
Encoding: 8463 8463 95
Width: 591
Flags: W
HStem: -11 22<392.794 446.398> 420 22<296.288 382.375> 474 27<82.0811 140.425> 652 42<129.571 201.998>
VStem: 328 60<13.4754 125.584> 403 64<242.931 404.573> 514 27<100.387 152.963>
LayerCount: 2
Fore
SplineSet
242 519 m 1
 204 366 l 1
 261 435 321 442 352 442 c 0
 421 442 467 407 467 334 c 0
 467 278 422 158 405 114 c 0
 399 97 388 69 388 44 c 0
 388 23 394 11 413 11 c 0
 440 11 485 33 514 135 c 0
 519 150 519 153 529 153 c 0
 532 153 541 153 541 143 c 0
 541 137 506 -11 410 -11 c 0
 365 -11 328 20 328 72 c 0
 328 91 333 105 339 121 c 0
 357 167 403 289 403 351 c 0
 403 384 393 420 349 420 c 0
 249 420 195 315 187 298 c 0
 186 295 179 264 174 248 c 1
 171 233 161 195 158 180 c 2
 135 91 l 2
 129 66 118 21 116 16 c 0
 112 3 98 -11 79 -11 c 0
 67 -11 50 -5 50 17 c 0
 50 23 50 25 54 40 c 2
 168 496 l 1
 159 493 99 474 94 474 c 0
 93 474 82 474 82 486 c 0
 82 495 89 497 99 501 c 0
 115 506 154 517 176 524 c 1
 188 573 202 632 202 635 c 0
 202 645 200 652 152 652 c 0
 138 652 128 652 128 663 c 0
 128 682 139 683 147 684 c 0
 171 686 250 694 269 694 c 0
 277 694 283 691 283 682 c 1
 249 547 l 1
 469 616 l 2
 480 619 482 619 483 619 c 0
 490 619 495 614 495 607 c 0
 495 598 488 596 476 592 c 2
 242 519 l 1
EndSplineSet
Validated: 1
EndChar

StartChar: uni2141
Encoding: 8513 8513 96
Width: 636
Flags: W
HStem: -22 40<95.9228 359.598> 269 40<90 259.986> 665 40<145.184 354.218>
VStem: 50 40<30.8388 269> 546 40<224.985 454.79>
LayerCount: 2
Fore
SplineSet
224 269 m 2
 90 269 l 1
 90 63 l 2
 90 39 90 30 143 23 c 0
 179 18 226 18 240 18 c 0
 287 18 382 18 465 115 c 0
 526 187 546 270 546 342 c 0
 546 508 430 665 259 665 c 0
 212 665 152 654 99 625 c 0
 91 621 84 617 78 617 c 0
 67 617 58 627 58 637 c 0
 58 651 69 656 88 665 c 0
 147 693 204 705 259 705 c 0
 451 705 586 533 586 341 c 0
 586 226 537 129 482 74 c 0
 386 -22 294 -22 240 -22 c 0
 50 -22 50 18 50 59 c 2
 50 274 l 2
 50 306 54 309 85 309 c 2
 224 309 l 2
 241 309 260 309 260 289 c 0
 260 269 241 269 224 269 c 2
EndSplineSet
Validated: 1
EndChar

StartChar: uni210E
Encoding: 8462 8462 97
Width: 591
Flags: W
HStem: -11 22<392.794 446.398> 420 22<296.288 382.375> 550 25<101.008 182 256 471.991> 652 42<129.571 201.998>
VStem: 202 81<593.949 686.409> 328 60<13.4754 125.584> 403 64<242.931 404.573> 514 27<100.387 152.963>
LayerCount: 2
Fore
SplineSet
250 550 m 1
 204 366 l 1
 261 435 321 442 352 442 c 0
 421 442 467 407 467 334 c 0
 467 278 422 158 405 114 c 0
 399 97 388 69 388 44 c 0
 388 23 394 11 413 11 c 0
 440 11 485 33 514 135 c 0
 519 150 519 153 529 153 c 0
 532 153 541 153 541 143 c 0
 541 137 506 -11 410 -11 c 0
 365 -11 328 20 328 72 c 0
 328 91 333 105 339 121 c 0
 357 167 403 289 403 351 c 0
 403 384 393 420 349 420 c 0
 249 420 195 315 187 298 c 0
 186 295 179 264 174 248 c 1
 171 233 161 195 158 180 c 2
 135 91 l 2
 129 66 118 21 116 16 c 0
 112 3 98 -11 79 -11 c 0
 67 -11 50 -5 50 17 c 0
 50 23 50 25 54 40 c 2
 182 550 l 1
 129 550 l 2
 110 550 101 550 101 562 c 0
 101 575 112 575 132 575 c 2
 188 575 l 1
 193 595 202 628 202 635 c 0
 202 645 200 652 152 652 c 0
 138 652 128 652 128 663 c 0
 128 682 139 683 147 684 c 0
 171 686 250 694 269 694 c 0
 277 694 283 691 283 682 c 0
 283 680 274 645 269 627 c 0
 263 602 263 600 256 575 c 1
 441 575 l 2
 460 575 472 575 472 562 c 0
 472 550 461 550 444 550 c 2
 250 550 l 1
EndSplineSet
Validated: 1
EndChar

StartChar: partialdiff
Encoding: 8706 8706 98
Width: 615
Flags: W
HStem: -21 27<175.107 290.799> 437 20<286.628 385.819> 530 80<208 242.263> 691 24<288.899 407.705>
VStem: 50 71<72.0776 237.4> 168 84<539.119 605.548> 496 69<363.919 578.976>
LayerCount: 2
Fore
SplineSet
466 334 m 1
 467 334 l 1
 477 371 496 445 496 509 c 0
 496 621 440 691 352 691 c 0
 325 691 249 684 208 610 c 1
 221 610 252 610 252 579 c 0
 252 562 237 530 202 530 c 0
 174 530 168 552 168 561 c 0
 168 588 211 715 356 715 c 0
 484 715 565 604 565 460 c 0
 565 323 464 -21 228 -21 c 0
 92 -21 50 94 50 155 c 0
 50 314 194 457 335 457 c 0
 425 457 460 390 466 334 c 1
231 6 m 0
 385 6 450 230 450 304 c 0
 450 358 429 437 338 437 c 0
 234 437 177 336 164 306 c 0
 149 269 121 166 121 122 c 0
 121 80 137 6 231 6 c 0
EndSplineSet
Validated: 1
EndChar

StartChar: weierstrass
Encoding: 8472 8472 99
Width: 630
Flags: W
HStem: -215 20<86.3085 143.855> -10 20<317.785 392.352> 74 39<289.729 308.795> 389 20<388.896 486.494> 432 20<195.148 228.893>
VStem: 50 22<-180.766 -60.919> 57 43<144.683 299.036> 199 44<-133.233 -26.0775> 267 22<36.2101 78.0272> 523 57<173.415 346.758>
LayerCount: 2
Fore
SplineSet
139 121 m 1xfbc0
 152 103 186 59 200 42 c 1
 234 -4 243 -16 243 -52 c 0
 243 -129 179 -215 113 -215 c 0
 66 -215 50 -179 50 -138 c 0xfdc0
 50 -107 64 -22 99 78 c 1
 68 119 57 134 57 186 c 0
 57 314 147 452 218 452 c 0
 229 452 229 445 229 444 c 0
 229 434 223 433 217 432 c 0
 148 418 100 289 100 214 c 0
 100 200 100 168 124 141 c 1
 174 238 216 287 254 321 c 0
 324 386 392 409 453 409 c 0
 538 409 580 336 580 261 c 0
 580 125 465 -10 355 -10 c 0
 310 -10 267 17 267 72 c 0
 267 82 267 113 292 113 c 0
 301 113 309 107 309 96 c 0
 309 87 303 77 289 74 c 1
 289 19 335 10 355 10 c 0
 402 10 446 53 471 98 c 0
 503 156 523 249 523 292 c 0
 523 347 501 389 451 389 c 0
 318 389 201 263 139 121 c 1xfbc0
114 57 m 1
 100 17 72 -91 72 -137 c 0
 72 -175 85 -195 113 -195 c 0
 155 -195 199 -138 199 -80 c 0
 199 -66 198 -54 187 -38 c 1
 114 57 l 1
EndSplineSet
Validated: 1
EndChar

StartChar: uni214C
Encoding: 8524 8524 100
Width: 618
Flags: W
HStem: 0 35<50.0109 87.9131 119 209 240.275 277.989 324.012 366.634 402 495 529.667 567.988> 428 35<334.012 370.573 402 446 484.866 547.989> 650 35<50.0109 87.7535 119 198>
VStem: 96 35<40.2459 644.754> 198 35<39.5624 196 246 650> 372 35<398 427.576>
LayerCount: 2
Fore
SplineSet
368 463 m 2
 515 463 l 2
 533 463 548 463 548 445 c 0
 548 431 535 429 528 428 c 0
 502 424 469 405 410 355 c 0
 397 344 343 295 338 290 c 1
 345 280 513 66 538 42 c 0
 542 37 544 37 552 35 c 0
 555 34 568 31 568 18 c 0
 568 0 552 0 534 0 c 2
 357 0 l 2
 339 0 324 0 324 18 c 0
 324 34 341 35 355 36 c 0
 364 37 359 39 367 40 c 1
 361 57 361 59 341 82 c 1
 320 110 265 178 244 205 c 1
 233 196 l 1
 233 97 l 2
 233 78 234 40 261 35 c 0
 265 34 278 32 278 18 c 0
 278 0 263 0 245 0 c 2
 83 0 l 2
 65 0 50 0 50 18 c 0
 50 27 57 33 65 35 c 0
 79 37 96 41 96 114 c 2
 96 571 l 2
 96 605 94 646 68 650 c 0
 65 650 50 653 50 667 c 0
 50 685 65 685 83 685 c 2
 199 685 l 2
 229 685 233 684 233 649 c 2
 233 246 l 1
 255 266 310 314 331 334 c 1
 353 353 372 371 372 400 c 0
 372 402 372 425 353 428 c 0
 349 428 334 431 334 445 c 0
 334 463 350 463 368 463 c 2
407 398 m 1
 446 428 l 1
 402 428 l 1
 406 419 407 407 407 398 c 1
131 573 m 2
 131 112 l 2
 131 84 129 57 119 35 c 1
 209 35 l 1
 198 58 198 83 198 95 c 2
 198 650 l 1
 119 650 l 1
 129 628 131 601 131 573 c 2
270 228 m 1
 385 84 l 1
 402 59 402 50 402 35 c 1
 495 35 l 1
 311 266 l 1
 270 228 l 1
EndSplineSet
Validated: 1
EndChar

StartChar: uni2132
Encoding: 8498 8498 101
Width: 543
Flags: W
HStem: 0 40<50.0131 453> 327 40<200.013 453> 674 20G<463 483>
VStem: 453 40<40 327 367 693.986>
LayerCount: 2
Fore
SplineSet
493 659 m 2
 493 35 l 2
 493 3 489 0 458 0 c 2
 85 0 l 2
 68 0 50 0 50 20 c 0
 50 40 68 40 85 40 c 2
 453 40 l 1
 453 327 l 1
 235 327 l 2
 218 327 200 327 200 347 c 0
 200 367 218 367 235 367 c 2
 453 367 l 1
 453 658 l 2
 453 675 453 694 473 694 c 0
 493 694 493 676 493 659 c 2
EndSplineSet
Validated: 1
EndChar

StartChar: uni2201
Encoding: 8705 8705 102
Width: 488
Flags: W
HStem: -22 80<154.109 334.514> 767 80<153.486 333.891>
VStem: 50 80<82.7949 741.918> 358 80<83.082 264.824 560.176 742.205>
LayerCount: 2
Fore
SplineSet
438 218 m 2
 438 122 l 2
 438 8 319 -22 244 -22 c 0
 170 -22 50 7 50 122 c 2
 50 703 l 2
 50 817 169 847 244 847 c 0
 318 847 438 818 438 703 c 2
 438 607 l 2
 438 594 438 556 398 556 c 0
 358 556 358 597 358 612 c 2
 358 696 l 2
 358 718 358 736 320 753 c 0
 293 764 265 767 244 767 c 0
 221 767 190 764 163 751 c 0
 130 734 130 718 130 696 c 2
 130 129 l 2
 130 107 130 89 168 72 c 0
 195 61 223 58 244 58 c 0
 267 58 298 61 325 74 c 0
 358 91 358 107 358 129 c 2
 358 213 l 2
 358 228 358 269 398 269 c 0
 438 269 438 231 438 218 c 2
EndSplineSet
Validated: 1
EndChar

StartChar: afii61289
Encoding: 8467 8467 103
Width: 481
Flags: W
HStem: -12 20<213.372 280.054> 684 20<347.293 397.636>
VStem: 129 51<148.883 199.6> 409 22<560.007 673.407>
LayerCount: 2
Fore
SplineSet
129 170 m 1
 129 176 129 183 129 189 c 0
 129 311 181 450 185 460 c 0
 199 498 280 704 373 704 c 0
 416 704 431 669 431 629 c 0
 431 452 246 261 187 200 c 0
 180 192 180 150 180 140 c 0
 180 86 187 8 241 8 c 0
 281 8 325 43 360 77 c 0
 364 81 379 96 383 96 c 0
 388 96 393 90 393 85 c 0
 393 76 345 35 332 25 c 0
 316 13 280 -12 240 -12 c 0
 162 -12 137 75 131 142 c 1
 123 133 66 78 61 78 c 0
 54 78 50 85 50 89 c 0
 50 93 66 108 129 170 c 1
189 232 m 1
 246 292 286 342 312 379 c 0
 399 505 409 595 409 630 c 0
 409 652 407 684 373 684 c 0
 353 684 336 667 319 640 c 0
 235 500 190 238 189 232 c 1
EndSplineSet
Validated: 1
EndChar

StartChar: uni24C8
Encoding: 9416 9416 104
Width: 986
Flags: W
HStem: -176 40<373.195 612.982> -14 25<437.619 562.796> 506 22<423.442 530.46> 670 40<371.577 614.423>
VStem: 50 40<146.311 386.787> 315 51<352.689 455.975> 315 25<97.1742 169.996> 620 51<64.331 178.128> 622 26<344.004 411.927> 896 40<146.311 386.61>
LayerCount: 2
Fore
SplineSet
936 267 m 0xf840
 936 21 735 -176 493 -176 c 0
 252 -176 50 21 50 267 c 0
 50 510 246 710 493 710 c 0
 740 710 936 509 936 267 c 0xf840
493 -136 m 0
 715 -136 896 45 896 267 c 0
 896 487 718 670 493 670 c 0
 268 670 90 487 90 267 c 0
 90 45 271 -136 493 -136 c 0
501 226 m 0
 409 247 389 251 359 281 c 0
 347 293 315 326 315 382 c 0
 315 460 381 528 472 528 c 0
 513 528 559 516 597 479 c 1
 598 480 624 517 626 519 c 0
 630 525 632 528 638 528 c 0
 648 528 648 521 648 502 c 2
 648 370 l 2
 648 349 648 344 635 344 c 0
 624 344 624 350 622 357 c 1xfcc0
 618 389 600 506 473 506 c 0
 406 506 366 457 366 411 c 0
 366 381 382 342 432 322 c 0
 438 320 473 312 494 307 c 0
 579 287 595 284 632 246 c 0
 632 245 671 205 671 142 c 0
 671 63 609 -14 512 -14 c 0
 447 -14 395 9 366 35 c 1xfd40
 365 34 339 -3 337 -5 c 0
 333 -11 331 -14 325 -14 c 0
 315 -14 315 -7 315 12 c 2
 315 143 l 2
 315 164 315 170 328 170 c 0
 331 170 339 169 340 161 c 0
 341 134 344 85 389 50 c 1
 432 15 486 11 512 11 c 0
 581 11 620 65 620 115 c 0xfb40
 620 159 593 186 588 190 c 0
 565 211 555 213 501 226 c 0
EndSplineSet
Validated: 1
EndChar

StartChar: zero
Encoding: 48 48 105
Width: 482
Flags: W
HStem: -16 16<202.97 279.062> 645 16<203.154 278.914>
VStem: 50 64<130.477 511.345> 368 64<130.964 512.453>
LayerCount: 2
Fore
SplineSet
432 321 m 0
 432 248 428 167 398 98 c 0
 357 3 287 -16 241 -16 c 0
 202 -16 125 -2 82 101 c 0
 51 177 50 264 50 321 c 0
 50 399 54 492 94 567 c 0
 132 639 193 661 241 661 c 0
 293 661 352 636 389 566 c 0
 431 486 432 382 432 321 c 0
241 0 m 0
 276 0 335 19 356 128 c 0
 368 187 368 267 368 332 c 0
 368 412 367 479 354 536 c 0
 335 618 282 645 241 645 c 0
 202 645 146 619 127 534 c 0
 114 473 114 409 114 332 c 0
 114 276 114 190 125 131 c 0
 139 55 177 0 241 0 c 0
EndSplineSet
Validated: 1
EndChar

StartChar: one
Encoding: 49 49 106
Width: 397
Flags: W
HStem: 0 26<55 164.139 237.015 347> 570 27<51.0498 135.066>
VStem: 173 56<32.1488 600>
LayerCount: 2
Fore
SplineSet
229 639 m 2
 229 73 l 2
 229 37 231 26 317 26 c 2
 347 26 l 1
 347 0 l 1
 299 1 249 2 201 2 c 0
 153 2 103 1 55 0 c 1
 55 26 l 1
 85 26 l 2
 171 26 173 38 173 73 c 2
 173 600 l 1
 133 576 81 570 50 570 c 1
 50 591 50 593 51 595 c 0
 52 597 57 597 60 597 c 0
 116 599 175 614 214 661 c 1
 228 661 229 660 229 639 c 2
EndSplineSet
Validated: 1
EndChar

StartChar: two
Encoding: 50 50 107
Width: 476
Flags: W
HStem: 0 58<103 385.717> 430 81<75.3216 127.205> 635 26<162.14 271.308>
VStem: 50 81<434.513 503.646> 357 69<384.401 562.35> 408 18<109.792 155>
LayerCount: 2
Fore
SplineSet
426 155 m 1xf4
 402 0 l 1
 50 0 l 1
 50 23 l 1
 249 248 l 2
 306 313 357 388 357 475 c 0
 357 566 300 635 213 635 c 0
 152 635 94 593 75 508 c 1
 79 510 85 511 91 511 c 0
 105 511 131 502 131 471 c 0
 131 436 101 430 91 430 c 0
 79 430 50 435 50 474 c 0
 50 564 117 661 227 661 c 0
 332 661 426 593 426 475 c 0xf8
 426 376 355 308 294 250 c 0
 209 168 139 97 103 58 c 1
 295 58 l 2
 309 58 381 58 386 66 c 0
 390 72 398 84 408 155 c 1
 426 155 l 1xf4
EndSplineSet
Validated: 1
EndChar

StartChar: three
Encoding: 51 51 108
Width: 492
Flags: W
HStem: -16 24<178.926 291.963> 109 84<78.2344 130.313> 340 17<168.012 252.924> 484 78<102.188 150.859> 638 23<180.478 293.255>
VStem: 50 85<114.539 188.086> 76 78<487.437 557.237> 346 70<445.014 591.554> 366 76<88.8469 255.244>
LayerCount: 2
Fore
SplineSet
238 340 m 2xfc80
 189 340 l 2
 169 340 168 341 168 348 c 0
 168 355 172 356 179 357 c 0
 183 357 206 359 211 359 c 0
 244 362 278 364 308 403 c 0
 342 447 346 497 346 525 c 0
 346 621 280 638 245 638 c 0
 210 638 131 626 102 560 c 1
 106 562 111 562 115 562 c 0
 136 562 154 549 154 523 c 0
 154 497 136 484 115 484 c 0
 102 484 76 490 76 525 c 0
 76 605 156 661 247 661 c 0
 337 661 416 604 416 526 c 0xfb
 416 435 343 367 267 351 c 1
 362 340 442 270 442 173 c 0
 442 71 357 -16 246 -16 c 0
 140 -16 50 56 50 148 c 0
 50 185 76 193 93 193 c 0
 113 193 135 180 135 151 c 0
 135 125 117 109 93 109 c 0
 88 109 83 109 78 111 c 1
 105 34 191 8 244 8 c 0
 302 8 366 54 366 174 c 0
 366 263 327 340 238 340 c 2xfc80
EndSplineSet
Validated: 1
EndChar

StartChar: four
Encoding: 52 52 109
Width: 518
Flags: W
HStem: 0 26<217 301.325 372.675 457> 170 26<70 308 366 468>
VStem: 311 55<31.0625 170 196 581>
LayerCount: 2
Fore
SplineSet
366 647 m 2
 366 196 l 1
 468 196 l 1
 468 170 l 1
 366 170 l 1
 366 72 l 2
 366 36 368 26 438 26 c 2
 457 26 l 1
 457 0 l 1
 425 2 371 2 337 2 c 0
 303 2 249 2 217 0 c 1
 217 26 l 1
 236 26 l 2
 306 26 308 36 308 72 c 2
 308 170 l 1
 50 170 l 1
 50 196 l 1
 347 669 l 1
 365 669 366 668 366 647 c 2
311 581 m 1
 70 196 l 1
 311 196 l 1
 311 581 l 1
EndSplineSet
Validated: 1
EndChar

StartChar: five
Encoding: 53 53 110
Width: 476
Flags: W
HStem: -16 24<165.258 274.432> 128 76<72.3594 123.114> 399 16<198.929 283.136> 568 61<132.551 312.721>
VStem: 50 76<133.434 200.961> 102 21<360 585> 360 66<103.785 303.945>
LayerCount: 2
Fore
SplineSet
123 585 m 1xf6
 123 360 l 1xf6
 157 396 200 415 251 415 c 0
 348 415 426 322 426 202 c 0
 426 73 328 -16 225 -16 c 0
 119 -16 50 75 50 162 c 0
 50 190 65 204 88 204 c 0
 107 204 126 193 126 166 c 0xfa
 126 135 101 128 88 128 c 0
 84 128 76 130 72 131 c 1
 90 54 157 8 223 8 c 0
 266 8 305 29 330 70 c 1
 360 116 360 174 360 206 c 0
 360 377 285 399 250 399 c 0
 200 399 156 380 124 335 c 0
 119 328 117 326 112 326 c 0
 102 326 102 331 102 349 c 2
 102 639 l 2
 102 659 103 660 108 660 c 0
 109 660 111 660 122 655 c 0
 171 633 216 629 246 629 c 0
 296 629 337 641 372 656 c 0
 380 660 382 660 383 660 c 0
 389 660 389 655 389 647 c 1
 360 618 309 568 216 568 c 0
 174 568 133 581 123 585 c 1xf6
EndSplineSet
Validated: 1
EndChar

StartChar: six
Encoding: 54 54 111
Width: 482
Flags: W
HStem: -16 24<196.773 293.087> 405 16<206.972 287.46> 524 71<343.472 387> 638 23<243.702 352.591>
VStem: 50 68<142.045 460.789> 341 72<526.911 592.046> 364 68<102.143 310.266>
LayerCount: 2
Fore
SplineSet
118 345 m 2xfc
 118 311 l 1
 143 381 188 421 249 421 c 0
 351 421 432 330 432 205 c 0xfa
 432 71 340 -16 243 -16 c 0
 163 -16 50 44 50 316 c 0
 50 537 175 661 294 661 c 0
 363 661 413 625 413 562 c 0
 413 528 386 524 377 524 c 0
 363 524 341 533 341 560 c 0
 341 595 371 595 387 595 c 1
 367 634 316 638 295 638 c 0
 230 638 118 584 118 345 c 2xfc
243 8 m 0
 289 8 321 31 343 72 c 0
 364 112 364 152 364 206 c 0
 364 256 364 297 346 336 c 0
 313 405 264 405 247 405 c 0
 154 405 120 301 120 229 c 0
 120 192 120 8 243 8 c 0
EndSplineSet
Validated: 1
EndChar

StartChar: seven
Encoding: 55 55 112
Width: 505
Flags: W
HStem: -16 21G<189 225> -16 21G<189 225> 587 58<101.026 407> 657 20G<75.8984 99>
VStem: 50 18<490 535.138> 79 18<659.165 677> 171 72<-13.7196 188.756>
LayerCount: 2
Fore
SplineSet
455 623 m 1xbe
 317 418 l 2
 271 349 243 241 243 77 c 2
 243 31 l 2
 243 18 243 -16 207 -16 c 0
 171 -16 171 18 171 30 c 0
 171 161 222 311 296 422 c 2
 407 587 l 1
 187 587 l 2
 170 587 96 587 90 579 c 0
 78 560 71 509 68 490 c 1
 50 490 l 1
 79 677 l 1
 97 677 l 1
 101 658 103 645 220 645 c 2
 455 645 l 1
 455 623 l 1xbe
EndSplineSet
Validated: 1
EndChar

StartChar: eight
Encoding: 56 56 113
Width: 492
Flags: W
HStem: -16 24<182.923 311.318> 638 23<185.192 303.349>
VStem: 50 37<86.0018 224.168> 76 34<480.018 570.738> 382 34<455.351 574.198> 405 37<87.2269 198.73>
LayerCount: 2
Fore
SplineSet
289 360 m 1xd8
 341 323 l 1
 381 296 442 254 442 163 c 0
 442 61 352 -16 245 -16 c 0
 148 -16 50 48 50 151 c 0xe4
 50 261 155 316 200 339 c 1
 173 358 131 388 121 398 c 0
 82 436 76 479 76 504 c 0
 76 595 156 661 247 661 c 0
 328 661 416 608 416 517 c 0
 416 440 352 392 289 360 c 1xd8
158 448 m 2
 263 377 l 2
 271 371 272 371 273 371 c 0
 278 371 382 424 382 517 c 0
 382 582 324 638 245 638 c 0
 173 638 110 592 110 531 c 0xd8
 110 484 150 453 158 448 c 2
342 243 m 2
 217 328 l 1
 148 297 87 231 87 152 c 0
 87 73 156 8 247 8 c 0
 331 8 405 64 405 138 c 0xe4
 405 199 357 232 342 243 c 2
EndSplineSet
Validated: 1
EndChar

StartChar: nine
Encoding: 57 57 114
Width: 482
Flags: W
HStem: -16 24<132.272 248.349> 49 72<96 138.328> 224 16<194.524 275.23> 638 23<193.354 288.34>
VStem: 50 68<335.228 542.538> 69 72<53.8121 118.089> 364 68<183.125 504.957>
LayerCount: 2
Fore
SplineSet
364 296 m 2xf6
 364 335 l 1
 354 302 317 224 233 224 c 0
 131 224 50 316 50 440 c 0xfa
 50 574 145 661 244 661 c 0
 320 661 432 604 432 330 c 0
 432 110 315 -16 200 -16 c 0
 128 -16 69 15 69 83 c 0
 69 117 96 121 105 121 c 0
 119 121 141 112 141 85 c 0
 141 63 126 49 105 49 c 0
 102 49 99 50 96 50 c 1
 119 11 175 8 198 8 c 0
 273 8 364 76 364 296 c 2xf6
235 240 m 0
 330 240 362 346 362 417 c 0
 362 457 362 638 244 638 c 0
 186 638 160 604 146 583 c 0
 118 539 118 498 118 439 c 0
 118 390 118 344 139 305 c 0
 170 245 208 240 235 240 c 0
EndSplineSet
Validated: 1
EndChar

StartChar: parenleft
Encoding: 40 40 115
Width: 316
Flags: W
VStem: 50 44<109.996 490.572>
LayerCount: 2
Fore
SplineSet
266 -194 m 4
 266 -198 264 -200 259 -200 c 4
 247 -200 165 -127 117 -23 c 4
 57 106 50 228 50 300 c 4
 50 396 64 504 114 615 c 4
 163 725 248 799 259 799 c 4
 263 799 266 797 266 794 c 4
 266 791 264 789 264 788 c 4
 215 738 94 611 94 299 c 4
 94 -13 217 -141 263 -188 c 4
 266 -191 266 -193 266 -194 c 4
EndSplineSet
Validated: 1
EndChar

StartChar: parenright
Encoding: 41 41 116
Width: 316
Flags: W
VStem: 222 44<108.428 488.679>
LayerCount: 2
Fore
SplineSet
266 299 m 4
 266 203 252 95 202 -16 c 4
 153 -126 68 -200 57 -200 c 4
 54 -200 50 -199 50 -194 c 4
 50 -192 51 -191 52 -189 c 4
 101 -139 222 -12 222 300 c 4
 222 611 100 738 52 788 c 4
 51 790 50 791 50 793 c 4
 50 798 54 799 57 799 c 4
 69 799 151 726 199 622 c 4
 259 493 266 371 266 299 c 4
EndSplineSet
Validated: 1
EndChar

StartChar: Gamma
Encoding: 915 915 117
Width: 591
Flags: W
HStem: 0 26<50 124.191 203.178 296> 655 26<50 124.191 198.446 437.359>
VStem: 130 66<30.6349 651.949>
LayerCount: 2
Fore
SplineSet
517 681 m 1
 541 460 l 1
 523 460 l 1
 508 585 500 655 348 655 c 2
 238 655 l 2
 198 655 196 650 196 616 c 2
 196 72 l 2
 196 36 198 26 274 26 c 2
 296 26 l 1
 296 0 l 1
 255 2 207 2 166 2 c 0
 135 2 79 2 50 0 c 1
 50 26 l 1
 119 26 130 26 130 71 c 2
 130 610 l 2
 130 655 119 655 50 655 c 1
 50 681 l 1
 517 681 l 1
EndSplineSet
Validated: 1
EndChar

StartChar: Delta
Encoding: 916 916 118
Width: 797
Flags: W
HStem: 0 56<96 651> 687 20G<393 403>
LayerCount: 2
Fore
SplineSet
419 690 m 2
 742 17 l 2
 743 15 747 6 747 5 c 0
 747 1 746 0 728 0 c 2
 69 0 l 2
 51 0 50 1 50 5 c 0
 50 6 54 15 55 17 c 2
 379 691 l 2
 386 705 387 707 399 707 c 0
 407 707 411 707 419 690 c 2
374 631 m 1
 96 56 l 1
 651 56 l 1
 374 631 l 1
EndSplineSet
Validated: 1
EndChar

StartChar: Epsilon
Encoding: 917 917 119
Width: 656
Flags: W
HStem: 0 26<50 124.191 198.446 470.901> 341 26<196 359.893> 655 26<50 124.191 198.446 467.641>
VStem: 130 66<29.0512 341 367 651.949> 393 18<224 299.729 408.271 484>
LayerCount: 2
Fore
SplineSet
606 253 m 1
 570 0 l 1
 50 0 l 1
 50 26 l 1
 119 26 130 26 130 71 c 2
 130 610 l 2
 130 655 119 655 50 655 c 1
 50 681 l 1
 556 681 l 1
 580 460 l 1
 562 460 l 1
 548 593 530 655 375 655 c 2
 238 655 l 2
 198 655 196 650 196 616 c 2
 196 367 l 1
 290 367 l 2
 384 367 393 401 393 484 c 1
 411 484 l 1
 411 224 l 1
 393 224 l 1
 393 307 384 341 290 341 c 2
 196 341 l 1
 196 65 l 2
 196 31 198 26 238 26 c 2
 377 26 l 2
 553 26 566 106 588 253 c 1
 606 253 l 1
EndSplineSet
Validated: 1
EndChar

StartChar: Zeta
Encoding: 918 918 120
Width: 575
Flags: W
HStem: 0 28<126 400.877> 657 26<185.456 444>
VStem: 63 18<462 531.573> 507 18<174.61 261>
LayerCount: 2
Fore
SplineSet
520 663 m 1
 126 28 l 1
 300 28 l 2
 491 28 498 130 507 261 c 1
 525 261 l 1
 511 0 l 1
 72 0 l 2
 52 0 50 0 50 13 c 0
 50 20 50 21 57 32 c 2
 444 657 l 1
 279 657 l 2
 117 657 87 576 81 462 c 1
 63 462 l 1
 73 683 l 1
 498 683 l 2
 519 683 520 682 520 663 c 1
EndSplineSet
Validated: 1
EndChar

StartChar: Eta
Encoding: 919 919 121
Width: 690
Flags: W
HStem: 0 26<50 124.191 201.809 276 414 488.191 565.808 640> 342 26<196 494> 657 26<50 124.191 201.809 276 414 488.191 565.808 640>
VStem: 130 66<29.0171 342 368 653.983> 494 66<29.0171 342 368 653.983>
LayerCount: 2
Fore
SplineSet
560 612 m 2
 560 71 l 2
 560 26 571 26 640 26 c 1
 640 0 l 1
 611 2 558 2 527 2 c 0
 496 2 443 2 414 0 c 1
 414 26 l 1
 483 26 494 26 494 71 c 2
 494 342 l 1
 196 342 l 1
 196 71 l 2
 196 26 207 26 276 26 c 1
 276 0 l 1
 247 2 194 2 163 2 c 0
 132 2 79 2 50 0 c 1
 50 26 l 1
 119 26 130 26 130 71 c 2
 130 612 l 2
 130 657 119 657 50 657 c 1
 50 683 l 1
 79 681 132 681 163 681 c 0
 194 681 247 681 276 683 c 1
 276 657 l 1
 207 657 196 657 196 612 c 2
 196 368 l 1
 494 368 l 1
 494 612 l 2
 494 657 483 657 414 657 c 1
 414 683 l 1
 443 681 496 681 527 681 c 0
 558 681 611 681 640 683 c 1
 640 657 l 1
 571 657 560 657 560 612 c 2
EndSplineSet
Validated: 1
EndChar

StartChar: Theta
Encoding: 920 920 122
Width: 727
Flags: W
HStem: -16 21G<279.5 448.5> -16 21G<279.5 448.5> 314 56<194 533> 683 16<313.924 413.301>
VStem: 50 73<214.685 467.067> 176 18<280 314 370 404> 533 18<280 314 370 404> 604 73<214.706 466.887>
LayerCount: 2
Fore
SplineSet
677 340 m 0xbf
 677 140 534 -16 363 -16 c 0
 196 -16 50 137 50 340 c 0
 50 543 194 699 364 699 c 0
 530 699 677 545 677 340 c 0xbf
364 1 m 0
 474 1 604 106 604 340 c 0
 604 575 476 683 363 683 c 0
 254 683 123 578 123 340 c 0
 123 109 250 1 364 1 c 0
551 404 m 1
 551 280 l 1
 533 280 l 1
 533 314 l 1
 194 314 l 1
 194 280 l 1
 176 280 l 1
 176 404 l 1
 194 404 l 1
 194 370 l 1
 533 370 l 1
 533 404 l 1
 551 404 l 1
EndSplineSet
Validated: 1
EndChar

StartChar: Iota
Encoding: 921 921 123
Width: 334
Flags: W
HStem: 0 26<50 127.796 206.204 284> 657 26<50 127.796 206.204 284>
VStem: 134 66<29.3788 653.621>
LayerCount: 2
Fore
SplineSet
200 612 m 2
 200 71 l 2
 200 26 212 26 284 26 c 1
 284 0 l 1
 252 2 201 2 167 2 c 0
 133 2 82 2 50 0 c 1
 50 26 l 1
 122 26 134 26 134 71 c 2
 134 612 l 2
 134 657 122 657 50 657 c 1
 50 683 l 1
 82 681 133 681 167 681 c 0
 201 681 252 681 284 683 c 1
 284 657 l 1
 212 657 200 657 200 612 c 2
EndSplineSet
Validated: 1
EndChar

StartChar: Kappa
Encoding: 922 922 124
Width: 734
Flags: W
HStem: 0 26<50 124.191 201.809 276 485 522.431 624.564 684> 657 26<50 124.191 201.809 276 506 531.509 614.75 671>
VStem: 130 66<29.0171 248 273 653.983>
LayerCount: 2
Fore
SplineSet
368 419 m 1
 591 78 l 2
 621 32 636 26 684 26 c 1
 684 0 l 1
 661 2 620 2 596 2 c 0
 563 2 517 2 485 0 c 1
 485 26 l 1
 498 26 526 26 526 52 c 0
 526 62 519 75 513 85 c 2
 324 375 l 1
 196 248 l 1
 196 71 l 2
 196 26 207 26 276 26 c 1
 276 0 l 1
 247 2 194 2 163 2 c 0
 132 2 79 2 50 0 c 1
 50 26 l 1
 119 26 130 26 130 71 c 2
 130 612 l 2
 130 657 119 657 50 657 c 1
 50 683 l 1
 79 681 132 681 163 681 c 0
 194 681 247 681 276 683 c 1
 276 657 l 1
 207 657 196 657 196 612 c 2
 196 273 l 1
 528 606 l 1
 532 612 536 623 536 630 c 0
 536 637 532 655 506 657 c 1
 506 683 l 1
 532 681 579 681 606 681 c 0
 626 681 651 682 671 683 c 1
 671 657 l 1
 615 655 577 627 541 592 c 2
 368 419 l 1
EndSplineSet
Validated: 1
EndChar

StartChar: Lambda
Encoding: 923 923 125
Width: 694
Flags: W
HStem: 0 26<50 96.2485 168.051 208 439 495.89 581.994 644> 687 20G<342 352>
LayerCount: 2
Fore
SplineSet
363 690 m 2
 570 61 l 2
 582 26 600 26 644 26 c 1
 644 0 l 1
 621 2 575 2 550 2 c 0
 519 2 468 2 439 0 c 1
 439 26 l 1
 460 26 502 26 502 54 c 0
 502 57 502 59 497 73 c 2
 323 601 l 1
 157 96 l 2
 154 86 152 80 152 73 c 0
 152 66 155 28 208 26 c 1
 208 0 l 1
 184 2 145 2 120 2 c 0
 102 2 67 1 50 0 c 1
 50 26 l 1
 83 27 116 39 134 92 c 2
 331 690 l 2
 336 706 337 707 347 707 c 0
 357 707 358 706 363 690 c 2
EndSplineSet
Validated: 1
EndChar

StartChar: Mu
Encoding: 924 924 126
Width: 843
Flags: W
HStem: 0 26<50 105.736 174.264 230 572 646.192 718.808 793> 653 30<50 127.203 150 151 651 652 715.797 793>
VStem: 130 20<52.625 648.305> 652 61<29.0171 653.983>
LayerCount: 2
Fore
SplineSet
206 667 m 2
 422 81 l 1
 638 667 l 2
 644 682 645 683 666 683 c 2
 793 683 l 1
 793 657 l 1
 724 657 713 657 713 612 c 2
 713 71 l 2
 713 26 724 26 793 26 c 1
 793 0 l 1
 766 2 711 2 682 2 c 0
 653 2 599 2 572 0 c 1
 572 26 l 1
 641 26 652 26 652 71 c 2
 652 658 l 1
 651 658 l 1
 414 16 l 2
 410 6 408 0 400 0 c 0
 392 0 390 6 386 16 c 2
 151 653 l 1
 150 653 l 1
 150 98 l 2
 150 73 150 26 230 26 c 1
 230 0 l 1
 207 2 165 2 140 2 c 0
 115 2 73 2 50 0 c 1
 50 26 l 1
 130 26 130 73 130 98 c 2
 130 612 l 2
 130 657 119 657 50 657 c 1
 50 683 l 1
 178 683 l 2
 199 683 200 682 206 667 c 2
EndSplineSet
Validated: 1
EndChar

StartChar: Nu
Encoding: 925 925 127
Width: 690
Flags: W
HStem: 0 26<50 105.736 174.264 230> 657 26<50 129.848 460 515.736 584.264 640>
VStem: 130 20<52.625 637> 540 20<122 630.375>
LayerCount: 2
Fore
SplineSet
204 671 m 2
 540 122 l 1
 540 585 l 2
 540 610 540 657 460 657 c 1
 460 683 l 1
 483 681 525 681 550 681 c 0
 575 681 617 681 640 683 c 1
 640 657 l 1
 560 657 560 610 560 585 c 2
 560 22 l 2
 560 3 560 0 550 0 c 0
 545 0 542 0 535 12 c 2
 164 619 l 2
 157 629 157 631 150 637 c 1
 150 98 l 2
 150 73 150 26 230 26 c 1
 230 0 l 1
 207 2 165 2 140 2 c 0
 115 2 73 2 50 0 c 1
 50 26 l 1
 130 26 130 73 130 98 c 2
 130 651 l 1
 127 652 109 657 69 657 c 2
 50 657 l 1
 50 683 l 1
 177 683 l 2
 196 683 197 682 204 671 c 2
EndSplineSet
Validated: 1
EndChar

StartChar: Xi
Encoding: 926 926 128
Width: 648
Flags: W
HStem: 0 52<75.2404 572.357> 328 52<160 488> 628 52<80.0358 564.69>
VStem: 50 18<67.811 149 542 589.372> 142 18<288 328 380 420> 488 18<288 328 380 420> 580 18<69.0336 149 542 589.756>
LayerCount: 2
Fore
SplineSet
586 680 m 1
 587 661 l 2
 588 632 591 573 593 542 c 1
 575 542 l 1
 574 561 572 602 565 618 c 1
 559 628 514 628 490 628 c 2
 158 628 l 2
 148 628 91 628 85 619 c 0
 76 607 74 560 73 542 c 1
 55 542 l 1
 56 561 l 2
 57 590 60 649 62 680 c 1
 586 680 l 1
57 0 m 1
 50 149 l 1
 68 149 l 1
 70 109 72 79 78 65 c 0
 84 52 121 52 157 52 c 2
 491 52 l 2
 517 52 563 52 569 64 c 0
 576 78 577 104 580 149 c 1
 598 149 l 1
 591 0 l 1
 57 0 l 1
506 420 m 1
 506 288 l 1
 488 288 l 1
 488 328 l 1
 160 328 l 1
 160 288 l 1
 142 288 l 1
 142 420 l 1
 160 420 l 1
 160 380 l 1
 488 380 l 1
 488 420 l 1
 506 420 l 1
EndSplineSet
Validated: 1
EndChar

StartChar: Omicron
Encoding: 927 927 129
Width: 727
Flags: W
HStem: -16 18<309.731 417.106> 681 18<308.997 418.389>
VStem: 50 76<215.034 468.118> 601 76<214.834 467.962>
LayerCount: 2
Fore
SplineSet
677 340 m 0
 677 140 534 -16 363 -16 c 0
 196 -16 50 137 50 340 c 0
 50 543 194 699 364 699 c 0
 530 699 677 545 677 340 c 0
364 2 m 0
 474 2 601 112 601 353 c 0
 601 586 469 681 363 681 c 0
 262 681 126 589 126 353 c 0
 126 116 250 2 364 2 c 0
EndSplineSet
Validated: 1
EndChar

StartChar: Pi
Encoding: 928 928 130
Width: 690
Flags: W
HStem: 0 26<50 124.191 201.809 276 414 488.191 565.808 640> 655 26<50 124.191 196 494 565.808 640>
VStem: 130 66<29.0171 651.983> 494 66<29.0171 651.983>
LayerCount: 2
Fore
SplineSet
560 610 m 2
 560 71 l 2
 560 26 571 26 640 26 c 1
 640 0 l 1
 611 2 558 2 527 2 c 0
 496 2 443 2 414 0 c 1
 414 26 l 1
 483 26 494 26 494 71 c 2
 494 655 l 1
 196 655 l 1
 196 71 l 2
 196 26 207 26 276 26 c 1
 276 0 l 1
 247 2 194 2 163 2 c 0
 132 2 79 2 50 0 c 1
 50 26 l 1
 119 26 130 26 130 71 c 2
 130 610 l 2
 130 655 119 655 50 655 c 1
 50 681 l 1
 640 681 l 1
 640 655 l 1
 571 655 560 655 560 610 c 2
EndSplineSet
Validated: 1
EndChar

StartChar: Rho
Encoding: 929 929 131
Width: 629
Flags: W
HStem: 0 26<50 124.191 201.809 276> 321 21<196 408.181> 657 26<50 124.191 196.446 414.348>
VStem: 130 64<29.7683 321 342 653.949> 503 76<423.555 576.596>
LayerCount: 2
Fore
SplineSet
196 321 m 1
 196 71 l 2
 196 26 207 26 276 26 c 1
 276 0 l 1
 247 2 194 2 163 2 c 0
 132 2 79 2 50 0 c 1
 50 26 l 1
 119 26 130 26 130 71 c 2
 130 612 l 2
 130 657 119 657 50 657 c 1
 50 683 l 1
 356 683 l 2
 487 683 579 595 579 500 c 0
 579 405 485 321 356 321 c 2
 196 321 l 1
194 342 m 1
 337 342 l 2
 459 342 503 409 503 500 c 0
 503 583 466 657 337 657 c 2
 236 657 l 2
 196 657 194 652 194 618 c 2
 194 342 l 1
EndSplineSet
Validated: 1
EndChar

StartChar: Sigma
Encoding: 931 931 132
Width: 675
Flags: W
HStem: 0 34<96 504.44> 657 26<132 493.345>
LayerCount: 2
Fore
SplineSet
327 329 m 2
 96 34 l 1
 372 34 l 2
 534 34 591 67 607 229 c 1
 625 229 l 1
 601 0 l 1
 72 0 l 2
 57 0 51 0 51 7 c 0
 51 9 51 10 58 19 c 2
 281 305 l 1
 50 661 l 1
 50 682 51 683 72 683 c 2
 601 683 l 1
 625 462 l 1
 607 462 l 1
 590 621 540 657 374 657 c 2
 132 657 l 1
 329 354 l 2
 330 352 334 346 334 342 c 0
 334 339 334 337 327 329 c 2
EndSplineSet
Validated: 1
EndChar

StartChar: Tau
Encoding: 932 932 133
Width: 711
Flags: W
HStem: 0 26<209 314.829 397.171 503> 654 26<141.399 320.625 391.468 569.158>
VStem: 50 18<459 538.638> 323 66<31.8699 653.256> 643 18<459 538.638>
LayerCount: 2
Fore
SplineSet
644 680 m 1
 661 459 l 1
 643 459 l 1
 630 625 615 654 462 654 c 0
 444 654 415 654 407 653 c 0
 389 649 389 637 389 615 c 2
 389 73 l 2
 389 37 392 26 475 26 c 2
 503 26 l 1
 503 0 l 1
 455 1 405 2 356 2 c 0
 307 2 257 1 209 0 c 1
 209 26 l 1
 237 26 l 2
 320 26 323 37 323 73 c 2
 323 615 l 2
 323 638 323 650 304 653 c 0
 296 654 267 654 249 654 c 0
 95 654 81 625 68 459 c 1
 50 459 l 1
 67 680 l 1
 644 680 l 1
EndSplineSet
Validated: 1
EndChar

StartChar: Upsilon
Encoding: 933 933 134
Width: 727
Flags: W
HStem: 0 26<231 323.822 404.178 497> 642 57<107.124 240.847 486.054 618.748>
VStem: 50 21<540.009 585.783> 331 66<30.6171 451.997> 656 21<540.009 586.155>
LayerCount: 2
Fore
SplineSet
397 353 m 2
 397 72 l 2
 397 36 399 26 475 26 c 2
 497 26 l 1
 497 0 l 1
 455 2 406 2 364 2 c 0
 322 2 273 2 231 0 c 1
 231 26 l 1
 253 26 l 2
 329 26 331 36 331 72 c 2
 331 353 l 2
 331 413 321 642 171 642 c 0
 139 642 80 625 71 551 c 0
 70 543 70 540 61 540 c 0
 51 540 50 543 50 553 c 0
 50 605 84 699 172 699 c 0
 324 699 356 506 364 454 c 1
 365 454 l 1
 372 505 403 699 555 699 c 0
 642 699 677 606 677 553 c 0
 677 543 676 540 666 540 c 0
 657 540 657 543 656 551 c 0
 647 624 588 642 556 642 c 0
 502 642 458 612 430 547 c 0
 403 482 397 397 397 353 c 2
EndSplineSet
Validated: 1
EndChar

StartChar: Phi
Encoding: 934 934 135
Width: 675
Flags: W
HStem: 0 26<205 297.822 375.178 468> 129 17<263.355 305 368 411.773> 537 17<264.091 305 368 410.849> 657 26<205 297.822 375.178 468>
VStem: 50 74<261.57 419.098> 305 63<30.6171 130.55 146 537 551.486 652.383> 551 74<262.532 420.867>
LayerCount: 2
Fore
SplineSet
368 129 m 1
 368 72 l 2
 368 36 370 26 446 26 c 2
 468 26 l 1
 468 0 l 1
 427 2 379 2 337 2 c 0
 295 2 246 2 205 0 c 1
 205 26 l 1
 227 26 l 2
 303 26 305 36 305 72 c 2
 305 129 l 1
 152 143 50 239 50 342 c 0
 50 441 148 540 305 554 c 1
 305 611 l 2
 305 647 303 657 227 657 c 2
 205 657 l 1
 205 683 l 1
 246 681 295 681 337 681 c 0
 379 681 427 681 468 683 c 1
 468 657 l 1
 446 657 l 2
 370 657 368 647 368 611 c 2
 368 554 l 1
 526 540 625 442 625 341 c 0
 625 244 530 143 368 129 c 1
305 146 m 1
 305 537 l 1
 218 528 124 478 124 341 c 0
 124 208 215 156 305 146 c 1
368 537 m 1
 368 146 l 1
 443 153 551 195 551 342 c 0
 551 485 447 530 368 537 c 1
EndSplineSet
Validated: 1
EndChar

StartChar: Chi
Encoding: 935 935 136
Width: 766
Flags: W
HStem: 0 26<50 115.937 204.201 234 502 538.875 639.773 716> 657 26<63 138.391 240.238 277 493 523.205 611.77 677>
LayerCount: 2
Fore
SplineSet
402 379 m 1
 622 59 l 2
 642 31 652 26 716 26 c 1
 716 0 l 1
 692 2 642 2 616 2 c 0
 583 2 534 2 502 0 c 1
 502 26 l 1
 537 28 546 45 546 53 c 0
 546 56 546 59 538 70 c 2
 364 324 l 1
 204 92 l 2
 199 85 194 78 194 65 c 0
 194 49 203 29 234 26 c 1
 234 0 l 1
 209 2 162 2 135 2 c 0
 111 2 73 2 50 0 c 1
 50 26 l 1
 69 26 134 27 177 89 c 2
 351 342 l 1
 158 624 l 2
 136 655 118 657 63 657 c 1
 63 683 l 1
 87 681 137 681 163 681 c 0
 196 681 245 681 277 683 c 1
 277 657 l 1
 244 656 233 639 233 630 c 0
 233 627 234 624 241 613 c 2
 389 397 l 1
 521 588 l 2
 528 598 533 606 533 618 c 0
 533 634 525 654 493 657 c 1
 493 683 l 1
 518 681 559 681 592 681 c 0
 616 681 654 681 677 683 c 1
 677 657 l 1
 595 656 565 613 550 592 c 2
 402 379 l 1
EndSplineSet
Validated: 1
EndChar

StartChar: Psi
Encoding: 936 936 137
Width: 726
Flags: W
HStem: 0 26<230 322.822 400.178 493> 130 17<306.449 330 393 419.038> 541 15<50.0148 79.9524 646.736 675.985> 657 26<230 322.822 400.178 493>
VStem: 122 63<276.24 512.527> 330 63<30.6171 132.259 147 652.383> 540 63<278.998 512.123>
LayerCount: 2
Fore
SplineSet
393 611 m 2
 393 147 l 1
 511 172 539 295 540 401 c 0
 541 504 562 556 628 556 c 2
 654 556 l 2
 671 556 676 556 676 548 c 0
 676 542 674 542 664 540 c 0
 613 530 603 465 603 419 c 0
 603 362 601 152 393 130 c 1
 393 72 l 2
 393 36 395 26 471 26 c 2
 493 26 l 1
 493 0 l 1
 452 2 404 2 362 2 c 0
 320 2 271 2 230 0 c 1
 230 26 l 1
 252 26 l 2
 328 26 330 36 330 72 c 2
 330 130 l 1
 156 150 123 303 122 396 c 0
 121 530 83 536 55 541 c 0
 50 541 50 547 50 548 c 0
 50 556 55 556 71 556 c 2
 97 556 l 2
 159 556 184 507 185 412 c 0
 185 360 187 176 330 147 c 1
 330 611 l 2
 330 647 328 657 252 657 c 2
 230 657 l 1
 230 683 l 1
 271 681 320 681 362 681 c 0
 404 681 452 681 493 683 c 1
 493 657 l 1
 471 657 l 2
 395 657 393 647 393 611 c 2
EndSplineSet
Validated: 1
EndChar

StartChar: Omega
Encoding: 937 937 138
Width: 695
Flags: W
HStem: 0 49<86.0015 232 463 609.535> 683 16<294.83 400.556>
VStem: 50 18<110.759 146> 60 76<351.858 545.705> 559 76<351.527 545.293> 627 18<110.759 146>
LayerCount: 2
Fore
SplineSet
645 146 m 1xc4
 616 0 l 1
 465 0 l 2
 444 0 443 0 443 16 c 0
 443 86 479 177 495 218 c 0
 532 309 559 378 559 455 c 0
 559 601 456 683 347 683 c 0
 243 683 136 604 136 455 c 0xd8
 136 377 166 301 198 223 c 0
 215 180 252 87 252 16 c 0
 252 1 251 0 230 0 c 2
 79 0 l 1
 50 146 l 1
 68 146 l 1xe0
 78 100 80 87 86 71 c 0
 91 57 94 49 151 49 c 2
 232 49 l 1
 221 107 197 150 153 221 c 0
 104 300 60 371 60 454 c 0
 60 588 185 699 348 699 c 0
 507 699 635 589 635 454 c 0xd8
 635 371 592 302 540 217 c 0
 498 150 474 107 463 49 c 1
 544 49 l 2
 602 49 605 57 610 72 c 0
 615 88 618 100 627 146 c 1
 645 146 l 1xc4
EndSplineSet
Validated: 1
EndChar

StartChar: Alpha
Encoding: 913 913 139
Width: 746
Flags: W
HStem: 0 26<50 103 178.26 216 484 540.528 625.685 696> 241 26<228 472> 687 20G<368 378>
LayerCount: 2
Fore
SplineSet
390 691 m 2
 612 63 l 2
 625 26 643 26 696 26 c 1
 696 0 l 1
 672 2 622 2 596 2 c 0
 565 2 513 2 484 0 c 1
 484 26 l 1
 503 26 546 26 546 53 c 0
 546 57 546 59 541 71 c 2
 481 241 l 1
 219 241 l 1
 166 92 l 2
 164 86 162 81 162 72 c 0
 162 60 169 28 216 26 c 1
 216 0 l 1
 192 2 152 2 127 2 c 0
 108 2 68 2 50 0 c 1
 50 26 l 1
 85 26 125 37 144 91 c 2
 356 691 l 2
 361 704 363 707 373 707 c 0
 383 707 385 704 390 691 c 2
350 611 m 1
 228 267 l 1
 472 267 l 1
 350 611 l 1
EndSplineSet
Validated: 1
EndChar

StartChar: Beta
Encoding: 914 914 140
Width: 655
Flags: W
HStem: 0 26<50 124.191 195.446 428.782> 347 16<193 392.135> 657 26<50 124.191 195.446 423.687>
VStem: 130 63<29.0512 347 363 653.949> 506 73<444.051 587.175> 531 74<105.844 258.731>
LayerCount: 2
Fore
SplineSet
50 683 m 1xf4
 368 683 l 2
 497 683 579 598 579 515 c 0xf8
 579 439 512 375 416 356 c 1
 523 349 605 272 605 182 c 0
 605 91 522 0 394 0 c 2
 50 0 l 1
 50 26 l 1
 119 26 130 26 130 71 c 2
 130 612 l 2
 130 657 119 657 50 657 c 1
 50 683 l 1xf4
193 363 m 1
 337 363 l 2
 445 363 506 439 506 515 c 0
 506 577 462 657 363 657 c 2
 235 657 l 2
 195 657 193 652 193 618 c 2
 193 363 l 1
235 26 m 2
 365 26 l 2
 474 26 531 110 531 183 c 0xf4
 531 256 481 347 378 347 c 2
 193 347 l 1
 193 65 l 2
 193 31 195 26 235 26 c 2
EndSplineSet
Validated: 1
EndChar

StartChar: numbersign
Encoding: 35 35 141
Width: 779
Flags: W
HStem: 143 35<50.0124 236 282 453 499 728.988> 321 35<50.0124 280 326 497 543 728.988> 674 20G<382 394 599 611>
VStem: 372 37<-194.977 -153.25 645.024 693.908>
LayerCount: 2
Fore
SplineSet
489 143 m 1
 409 -173 l 2
 407 -181 404 -195 390 -195 c 0
 380 -195 372 -187 372 -177 c 0
 372 -174 373 -169 376 -159 c 2
 453 143 l 1
 272 143 l 1
 192 -173 l 2
 190 -181 187 -195 173 -195 c 0
 163 -195 155 -187 155 -177 c 0
 155 -174 156 -169 159 -159 c 2
 236 143 l 1
 84 143 l 2
 67 143 50 143 50 161 c 0
 50 178 65 178 80 178 c 2
 246 178 l 1
 280 321 l 1
 80 321 l 2
 65 321 50 321 50 338 c 0
 50 356 67 356 84 356 c 2
 290 356 l 1
 370 672 l 2
 372 680 375 694 389 694 c 0
 399 694 407 686 407 676 c 0
 407 673 406 668 403 658 c 2
 326 356 l 1
 507 356 l 1
 587 672 l 2
 589 680 592 694 606 694 c 0
 616 694 624 686 624 676 c 0
 624 673 623 668 620 658 c 2
 543 356 l 1
 695 356 l 2
 712 356 729 356 729 338 c 0
 729 321 714 321 699 321 c 2
 533 321 l 1
 499 178 l 1
 699 178 l 2
 714 178 729 178 729 161 c 0
 729 143 712 143 695 143 c 2
 489 143 l 1
282 178 m 1
 463 178 l 1
 497 321 l 1
 316 321 l 1
 282 178 l 1
EndSplineSet
Validated: 1
EndChar

StartChar: exclam
Encoding: 33 33 142
Width: 182
Flags: W
HStem: 0 82<55.0781 126.922> 690 20G<82.5 99.5>
VStem: 50 82<5.07812 76.9219 560.935 705.413>
LayerCount: 2
Fore
SplineSet
132 670 m 1
 101 187 l 2
 100 174 100 169 91 169 c 0
 82 169 82 174 81 187 c 2
 50 670 l 1
 50 699 74 710 91 710 c 0
 108 710 132 699 132 670 c 1
132 41 m 0
 132 18 113 0 91 0 c 0
 68 0 50 19 50 41 c 0
 50 64 69 82 91 82 c 0
 114 82 132 63 132 41 c 0
EndSplineSet
Validated: 1
EndChar

StartChar: dollar
Encoding: 36 36 143
Width: 466
Flags: W
HStem: -8 26<163.836 220 246 287.543> 147 72<70.1897 119.43> 489 72<346.57 394.484> 675 27<171.653 220 246 309.518>
VStem: 50 72<150.447 216.137> 50 40<468.555 600.591> 220 26<-55 -7.22235 19 323 399 675 701.123 749> 344 72<491.677 556.841> 376 40<102.774 246.531>
LayerCount: 2
Fore
SplineSet
246 676 m 1xf7
 246 391 l 1
 291 380 330 370 367 327 c 0
 412 274 416 217 416 191 c 0
 416 92 350 2 246 -7 c 1
 246 -55 l 1
 220 -55 l 1
 220 -8 l 1
 111 -2 50 78 50 178 c 0
 50 211 69 219 86 219 c 0
 99 219 122 211 122 183 c 0xfa80
 122 158 103 147 86 147 c 0
 81 147 74 148 70 150 c 1
 88 49 165 21 220 18 c 1
 220 330 l 1
 162 346 135 353 98 392 c 0
 82 410 50 452 50 518 c 0
 50 613 121 693 220 702 c 1
 220 749 l 1
 246 749 l 1
 246 702 l 1
 366 695 416 612 416 530 c 0
 416 501 401 489 380 489 c 0
 363 489 344 500 344 525 c 0
 344 553 367 561 380 561 c 0
 385 561 391 560 395 558 c 1
 376 651 301 673 246 676 c 1xf7
220 399 m 1
 220 675 l 1
 135 667 90 598 90 538 c 0xf6
 90 501 105 469 129 443 c 0
 157 414 193 405 220 399 c 1
246 323 m 1
 246 19 l 1
 327 27 376 100 376 170 c 0xf280
 376 223 350 260 336 276 c 0
 307 307 278 316 246 323 c 1
EndSplineSet
Validated: 1
EndChar

StartChar: percent
Encoding: 37 37 144
Width: 779
Flags: W
HStem: -55 16<579.139 635.804> 331 16<579.283 635.804> 347 16<161.139 217.804> 626 16<372.096 494.381> 733 16<161.283 217.612>
VStem: 50 47<438.385 655.695> 293 18<475.432 621.89> 468 47<36.3845 253.695> 711 18<73.4324 218.367>
LayerCount: 2
Fore
SplineSet
729 146 m 0xdf80
 729 29 672 -55 605 -55 c 0
 536 -55 468 24 468 146 c 0
 468 268 537 347 605 347 c 0
 672 347 729 262 729 146 c 0xdf80
606 -39 m 0
 661 -39 711 40 711 146 c 0
 711 252 661 331 606 331 c 0
 580 331 515 308 515 146 c 0
 515 -15 580 -39 606 -39 c 0
642 714 m 2
 166 -39 l 2
 159 -50 156 -55 147 -55 c 0
 138 -55 129 -48 129 -37 c 0
 129 -34 129 -32 138 -18 c 2
 570 666 l 1
 569 667 l 1
 544 650 498 626 434 626 c 0
 408 626 348 631 287 670 c 1
 290 664 311 617 311 548 c 0
 311 431 254 347 187 347 c 0xbf80
 118 347 50 426 50 548 c 0
 50 670 119 749 187 749 c 0
 221 749 240 730 253 718 c 0
 272 700 333 642 433 642 c 0
 474 642 554 651 612 734 c 1
 619 742 623 749 633 749 c 0
 641 749 650 743 650 731 c 0
 650 726 649 725 642 714 c 2
188 363 m 0
 243 363 293 442 293 548 c 0
 293 654 243 733 188 733 c 0
 162 733 97 710 97 548 c 0
 97 387 162 363 188 363 c 0
EndSplineSet
Validated: 1
EndChar

StartChar: ampersand
Encoding: 38 38 145
Width: 745
Flags: W
HStem: -16 26<181.502 294.753 514.291 610.388> 404 26<508 553.323 634.25 695> 694 16<262.707 314.939>
VStem: 50 64<70.8578 198.174> 170 48<432.099 646.391> 350 18<545.824 646.918> 672 18<78.9382 121>
LayerCount: 2
Fore
SplineSet
84 214 m 2
 208 358 l 1
 178 445 170 508 170 559 c 0
 170 656 231 710 290 710 c 0
 355 710 368 628 368 588 c 0
 368 556 357 511 254 387 c 1
 303 258 402 131 417 112 c 1
 452 151 487 210 502 236 c 0
 545 308 568 347 568 363 c 0
 568 390 541 404 508 404 c 1
 508 430 l 1
 537 428 584 428 614 428 c 0
 634 428 676 428 695 430 c 1
 695 404 l 1
 645 403 622 386 608 374 c 0
 593 361 565 311 546 278 c 0
 480 159 448 120 429 97 c 1
 453 69 502 10 561 10 c 0
 605 10 670 43 672 121 c 1
 690 121 l 1
 688 38 628 -16 557 -16 c 0
 477 -16 422 36 395 61 c 1
 375 42 315 -16 221 -16 c 0
 127 -16 50 46 50 128 c 0
 50 161 62 189 84 214 c 2
248 406 m 1
 332 504 350 554 350 589 c 0
 350 604 347 694 291 694 c 0
 259 694 218 666 218 578 c 0
 218 524 229 458 248 406 c 1
215 341 m 1
 153 270 l 2
 127 240 114 199 114 158 c 0
 114 93 149 10 230 10 c 0
 279 10 333 29 382 75 c 1
 335 129 264 230 215 341 c 1
EndSplineSet
Validated: 1
EndChar

StartChar: angle
Encoding: 8736 8736 146
Width: 709
Flags: W
HStem: 0 40<114 658.987> 674 20G<636 644.5>
LayerCount: 2
Fore
SplineSet
648 653 m 2
 114 40 l 1
 624 40 l 2
 641 40 659 40 659 20 c 0
 659 0 641 0 624 0 c 2
 86 0 l 2
 69 0 50 0 50 20 c 0
 50 28 53 31 62 41 c 2
 617 680 l 2
 627 691 633 694 639 694 c 0
 650 694 659 685 659 674 c 0
 659 670 659 665 648 653 c 2
EndSplineSet
Validated: 1
EndChar

StartChar: minute
Encoding: 8242 8242 147
Width: 333
Flags: W
VStem: 50 47<47.155 61>
LayerCount: 2
Fore
SplineSet
274 475 m 2
 97 61 l 2
 91 48 90 45 84 45 c 0
 76 45 50 52 50 63 c 0
 50 64 54 75 54 77 c 2
 173 514 l 2
 180 540 198 559 226 559 c 0
 257 559 283 535 283 506 c 0
 283 496 279 487 274 475 c 2
EndSplineSet
Validated: 1
EndChar

StartChar: uni2035
Encoding: 8245 8245 148
Width: 333
Flags: W
VStem: 236 47<47.75 61>
LayerCount: 2
Fore
SplineSet
160 511 m 2
 279 77 l 2
 279 75 283 64 283 63 c 0
 283 55 279 54 269 50 c 0
 253 45 251 45 249 45 c 0
 243 45 242 47 236 61 c 2
 57 478 l 2
 50 494 50 506 50 507 c 0
 50 537 78 559 106 559 c 0
 140 559 153 536 160 511 c 2
EndSplineSet
Validated: 1
EndChar

StartChar: uni2605
Encoding: 9733 9733 149
Width: 944
Flags: W
HStem: 673 20G<468 476>
LayerCount: 2
Fore
SplineSet
881 369 m 1
 642 195 l 1
 734 -86 l 2
 735 -89 737 -96 737 -100 c 0
 737 -101 737 -111 726 -111 c 0
 721 -111 714 -106 711 -102 c 1
 472 71 l 1
 233 -102 l 2
 222 -111 220 -111 218 -111 c 0
 207 -111 207 -101 207 -100 c 0
 207 -99 211 -87 211 -86 c 2
 302 195 l 1
 62 369 l 2
 53 376 50 378 50 384 c 0
 50 395 59 395 78 395 c 2
 367 395 l 1
 457 673 l 2
 461 686 464 693 472 693 c 0
 480 693 481 689 486 675 c 2
 577 395 l 1
 866 395 l 2
 885 395 894 395 894 384 c 0
 894 380 893 379 881 369 c 1
EndSplineSet
Validated: 1
EndChar

StartChar: uni25C6
Encoding: 9670 9670 150
Width: 654
Flags: W
LayerCount: 2
Fore
SplineSet
595 272 m 2
 349 -116 l 2
 343 -125 338 -133 327 -133 c 0
 316 -133 311 -125 305 -116 c 2
 57 274 l 2
 57 275 50 285 50 291 c 0
 50 296 50 298 59 311 c 2
 305 699 l 2
 311 708 316 716 327 716 c 0
 338 716 343 708 349 699 c 2
 597 309 l 2
 597 308 604 298 604 292 c 0
 604 287 604 285 595 272 c 2
EndSplineSet
Validated: 1
EndChar

StartChar: filledbox
Encoding: 9632 9632 151
Width: 765
Flags: W
HStem: 0 21G<69.5 695.5> 667 20G<69.5 696>
VStem: 50 665<0.487793 686.529>
LayerCount: 2
Fore
SplineSet
715 652 m 2
 715 35 l 2
 715 3 712 0 679 0 c 2
 86 0 l 2
 53 0 50 4 50 36 c 2
 50 652 l 2
 50 684 54 687 85 687 c 2
 680 687 l 2
 712 687 715 683 715 652 c 2
EndSplineSet
Validated: 1
EndChar

StartChar: triagup
Encoding: 9650 9650 152
Width: 653
Flags: W
LayerCount: 2
Fore
SplineSet
348 556 m 2
 598 16 l 2
 602 8 603 4 603 0 c 0
 603 -20 584 -20 568 -20 c 2
 85 -20 l 2
 69 -20 50 -20 50 0 c 0
 50 4 50 6 56 18 c 2
 304 556 l 2
 312 574 320 576 327 576 c 0
 339 576 342 568 348 556 c 2
EndSplineSet
Validated: 1
EndChar

StartChar: triagdn
Encoding: 9660 9660 153
Width: 653
Flags: W
LayerCount: 2
Fore
SplineSet
597 538 m 2
 342 -14 l 1
 338 -18 333 -20 327 -20 c 0
 320 -20 312 -18 304 0 c 2
 55 540 l 2
 51 548 50 552 50 556 c 0
 50 576 69 576 85 576 c 2
 568 576 l 2
 584 576 603 576 603 556 c 0
 603 552 603 550 597 538 c 2
EndSplineSet
Validated: 1
EndChar

StartChar: uni22A4
Encoding: 8868 8868 154
Width: 768
Flags: W
HStem: 0 21G<374 394> 628 40<50.0153 364 404 717.987>
VStem: 364 40<0.0152779 628>
LayerCount: 2
Fore
SplineSet
404 628 m 1
 404 36 l 2
 404 18 404 0 384 0 c 0
 364 0 364 21 364 36 c 2
 364 628 l 1
 86 628 l 2
 71 628 50 628 50 648 c 0
 50 668 71 668 86 668 c 2
 683 668 l 2
 700 668 718 668 718 648 c 0
 718 628 700 628 683 628 c 2
 404 628 l 1
EndSplineSet
Validated: 1
EndChar

StartChar: perpendicular
Encoding: 8869 8869 155
Width: 768
Flags: W
HStem: 0 40<50.0153 364 404 717.987>
VStem: 364 40<40 667.985>
LayerCount: 2
Fore
SplineSet
404 632 m 2
 404 40 l 1
 683 40 l 2
 700 40 718 40 718 20 c 0
 718 0 700 0 683 0 c 2
 86 0 l 2
 71 0 50 0 50 20 c 0
 50 40 71 40 86 40 c 2
 364 40 l 1
 364 632 l 2
 364 647 364 668 384 668 c 0
 404 668 404 650 404 632 c 2
EndSplineSet
Validated: 1
EndChar

StartChar: club
Encoding: 9827 9827 156
Width: 822
Flags: W
VStem: 234 354<438.874 623.311> 363 96<-129.625 -13.771> 391 40<-77.5125 70>
LayerCount: 2
Fore
SplineSet
424 -130 m 2x40
 398 -130 l 2
 381 -130 363 -130 363 -110 c 0x40
 363 -108 363 -106 366 -98 c 0
 381 -45 390 4 391 70 c 1x20
 341 70 l 1
 337 -13 247 -22 221 -22 c 0
 124 -22 50 67 50 174 c 0
 50 271 102 368 196 368 c 0
 232 368 264 354 288 325 c 1
 310 371 l 1
 260 411 234 471 234 532 c 0
 234 636 310 727 411 727 c 0
 512 727 588 637 588 532 c 0x80
 588 471 563 412 512 371 c 1
 534 325 l 1
 558 354 590 368 626 368 c 0
 720 368 772 271 772 174 c 0
 772 67 697 -22 601 -22 c 0
 574 -22 485 -13 481 70 c 1
 431 70 l 1x20
 431 20 438 -35 455 -94 c 0
 459 -105 459 -107 459 -110 c 0
 459 -130 441 -130 424 -130 c 2x40
EndSplineSet
Validated: 1
EndChar

StartChar: spade
Encoding: 9824 9824 157
Width: 768
Flags: W
VStem: 336 96<-129.625 -13.771> 364 40<-77.5125 70>
LayerCount: 2
Fore
SplineSet
397 -130 m 2x80
 371 -130 l 2
 354 -130 336 -130 336 -110 c 0x80
 336 -108 336 -106 339 -98 c 0
 354 -45 363 4 364 70 c 1
 314 70 l 1
 311 -12 215 -22 184 -22 c 0
 66 -22 50 128 50 203 c 0
 50 317 115 398 232 502 c 0
 308 569 346 664 364 710 c 0
 366 716 370 727 384 727 c 0
 392 727 400 722 402 714 c 1
 427 653 461 568 537 500 c 0
 650 400 718 320 718 203 c 0
 718 138 706 -22 584 -22 c 0
 566 -22 457 -18 454 70 c 1
 404 70 l 1x40
 404 20 411 -35 428 -94 c 0
 432 -105 432 -107 432 -110 c 0
 432 -130 414 -130 397 -130 c 2x80
EndSplineSet
Validated: 1
EndChar

StartChar: uni2662
Encoding: 9826 9826 158
Width: 768
Flags: W
LayerCount: 2
Fore
SplineSet
55 295 m 2
 79 318 l 1
 216 446 309 600 361 705 c 0
 369 721 372 727 384 727 c 0
 396 727 401 718 403 713 c 0
 492 531 609 389 701 307 c 1
 714 294 718 291 718 282 c 0
 718 273 714 269 704 260 c 0
 567 137 466 -22 407 -141 c 0
 399 -157 396 -163 384 -163 c 0
 372 -163 367 -154 365 -149 c 0
 309 -35 211 125 67 257 c 0
 56 268 50 273 50 282 c 0
 50 287 53 292 55 295 c 2
384 -98 m 1
 415 -41 484 86 598 210 c 0
 620 235 645 262 668 282 c 1
 646 302 622 327 601 351 c 0
 493 467 428 580 384 662 c 1
 353 605 284 478 170 354 c 0
 148 329 123 302 100 282 c 1
 122 262 146 237 167 213 c 0
 275 97 340 -16 384 -98 c 1
EndSplineSet
Validated: 1
EndChar

StartChar: uni2661
Encoding: 9825 9825 159
Width: 768
Flags: W
HStem: 676 40<153.311 285.54 482.51 617.638>
VStem: 50 40<391.511 602.336> 364 41<514.01 591.112> 678 40<390.452 602.58>
LayerCount: 2
Fore
SplineSet
384 605 m 1
 405 649 460 716 551 716 c 0
 666 716 718 618 718 489 c 0
 718 339 609 234 500 130 c 0
 469 101 438 69 404 -16 c 0
 402 -22 398 -33 384 -33 c 0
 371 -33 367 -24 362 -11 c 0
 344 35 325 68 297 101 c 0
 289 111 256 142 234 162 c 0
 88 301 50 396 50 489 c 0
 50 614 100 716 217 716 c 0
 308 716 364 648 384 605 c 1
384 39 m 1
 416 106 445 133 509 193 c 0
 663 338 678 429 678 489 c 0
 678 502 678 567 651 619 c 0
 628 662 589 676 551 676 c 0
 505 676 427 649 405 537 c 0
 403 528 400 514 384 514 c 0
 382 514 368 515 364 534 c 0
 338 664 245 676 217 676 c 0
 104 676 90 553 90 489 c 0
 90 404 125 313 298 158 c 0
 341 119 371 67 384 39 c 1
EndSplineSet
Validated: 1
EndChar

StartChar: existential
Encoding: 8707 8707 160
Width: 545
Flags: W
HStem: 0 40<50.0131 455> 327 40<64.0131 455> 654 40<50.0131 455>
VStem: 455 40<40 327 367 654>
CounterMasks: 1 e0
LayerCount: 2
Fore
SplineSet
495 658 m 2
 495 36 l 2
 495 3 492 0 460 0 c 2
 85 0 l 2
 68 0 50 0 50 20 c 0
 50 40 68 40 85 40 c 2
 455 40 l 1
 455 327 l 1
 99 327 l 2
 82 327 64 327 64 347 c 0
 64 367 82 367 99 367 c 2
 455 367 l 1
 455 654 l 1
 85 654 l 2
 68 654 50 654 50 674 c 0
 50 694 68 694 85 694 c 2
 460 694 l 2
 492 694 495 691 495 658 c 2
EndSplineSet
Validated: 1
EndChar

StartChar: uni2204
Encoding: 8708 8708 161
Width: 543
Flags: W
HStem: 0 40<50.0131 173 223 453> 327 40<64.0131 246 297 453> 654 40<50.0131 320 370 453>
VStem: 453 40<40 327 367 654>
CounterMasks: 1 e0
LayerCount: 2
Fore
SplineSet
398 819 m 2
 370 694 l 1
 458 694 l 2
 490 694 493 690 493 659 c 2
 493 35 l 2
 493 3 489 0 458 0 c 2
 214 0 l 1
 199 -70 197 -77 182 -142 c 0
 180 -152 177 -166 161 -166 c 0
 156 -166 141 -163 141 -146 c 0
 141 -142 151 -98 156 -74 c 0
 167 -29 162 -46 173 0 c 1
 85 0 l 2
 68 0 50 0 50 20 c 0
 50 40 68 40 85 40 c 2
 182 40 l 1
 246 327 l 1
 99 327 l 2
 82 327 64 327 64 347 c 0
 64 367 82 367 99 367 c 2
 255 367 l 1
 320 654 l 1
 85 654 l 2
 68 654 50 654 50 674 c 0
 50 694 68 694 85 694 c 2
 329 694 l 1
 360 834 l 2
 362 844 366 860 382 860 c 0
 387 860 402 857 402 840 c 0
 402 836 401 833 398 819 c 2
297 367 m 1
 453 367 l 1
 453 654 l 1
 361 654 l 1
 297 367 l 1
223 40 m 1
 453 40 l 1
 453 327 l 1
 288 327 l 1
 223 40 l 1
EndSplineSet
Validated: 1
EndChar

StartChar: uni266D
Encoding: 9837 9837 162
Width: 372
Flags: W
HStem: 426 33<112.815 219.05>
VStem: 50 22<12 388.88 414 749.993> 248 74<221.526 397.183>
LayerCount: 2
Fore
SplineSet
72 724 m 2
 72 414 l 1
 99 444 146 459 189 459 c 0
 260 459 322 402 322 321 c 0
 322 194 227 99 144 35 c 0
 128 23 72 -21 61 -21 c 0
 50 -21 50 -15 50 5 c 2
 50 723 l 2
 50 741 50 750 61 750 c 0
 72 750 72 744 72 724 c 2
72 344 m 2
 72 12 l 1
 120 55 248 171 248 321 c 0
 248 344 243 426 178 426 c 0
 157 426 124 421 101 405 c 0
 72 386 72 367 72 344 c 2
EndSplineSet
Validated: 1
EndChar

StartChar: uni266E
Encoding: 9838 9838 163
Width: 320
Flags: W
VStem: 50 22<5 361 436 724.971> 248 22<-215.953 -5 70 426>
LayerCount: 2
Fore
SplineSet
270 479 m 2
 270 -189 l 2
 270 -207 270 -216 258 -216 c 0
 248 -216 248 -209 248 -190 c 2
 248 -5 l 1
 77 -68 l 2
 63 -74 61 -74 60 -74 c 0
 50 -74 50 -67 50 -48 c 2
 50 698 l 2
 50 715 50 725 62 725 c 0
 72 725 72 716 72 699 c 2
 72 436 l 1
 243 499 l 2
 257 505 259 505 260 505 c 0
 270 505 270 498 270 479 c 2
72 5 m 1
 248 70 l 1
 248 426 l 1
 72 361 l 1
 72 5 l 1
EndSplineSet
Validated: 1
EndChar

StartChar: uni266F
Encoding: 9839 9839 164
Width: 372
Flags: W
HStem: -74 76<50.0278 93.661> 357 76<50.0278 93.661> 695 20G<262 273>
VStem: 94 22<-214.974 -64 17 367 448 667.976> 256 22<-167.976 -17 64 414 495 714.974>
LayerCount: 2
Fore
SplineSet
256 -17 m 1
 116 -58 l 1
 116 -189 l 2
 116 -208 116 -215 104 -215 c 0
 94 -215 94 -206 94 -189 c 2
 94 -64 l 1
 87 -66 65 -74 60 -74 c 0
 50 -74 50 -67 50 -48 c 2
 50 -27 l 2
 50 -5 50 -3 63 2 c 0
 65 2 90 9 94 10 c 1
 94 367 l 1
 87 365 65 357 60 357 c 0
 50 357 50 364 50 383 c 2
 50 404 l 2
 50 426 50 428 63 433 c 0
 65 433 90 440 94 441 c 1
 94 641 l 2
 94 660 94 668 106 668 c 0
 116 668 116 661 116 642 c 2
 116 448 l 1
 256 489 l 1
 256 689 l 2
 256 708 256 715 268 715 c 0
 278 715 278 706 278 689 c 2
 278 495 l 1
 285 497 307 505 312 505 c 0
 322 505 322 498 322 479 c 2
 322 457 l 2
 322 435 321 434 309 429 c 1
 283 421 304 428 278 421 c 1
 278 64 l 1
 285 66 307 74 312 74 c 0
 322 74 322 67 322 48 c 2
 322 26 l 2
 322 4 321 3 309 -2 c 1
 283 -10 304 -3 278 -10 c 1
 278 -141 l 2
 278 -160 278 -168 266 -168 c 0
 256 -168 256 -161 256 -142 c 2
 256 -17 l 1
256 414 m 1
 116 373 l 1
 116 17 l 1
 256 58 l 1
 256 414 l 1
EndSplineSet
Validated: 1
EndChar

StartChar: universal
Encoding: 8704 8704 165
Width: 656
Flags: W
HStem: 411 40<192 464> 674 20G<65 76.5 579.5 592>
VStem: 50 43<671 693.935> 563 43<671 693.922>
LayerCount: 2
Fore
SplineSet
601 656 m 2
 350 -1 l 2
 346 -11 342 -22 328 -22 c 0
 315 -22 310 -13 305 1 c 2
 56 656 l 2
 50 670 50 672 50 674 c 0
 50 684 60 694 70 694 c 0
 83 694 88 685 93 671 c 2
 176 451 l 1
 480 451 l 1
 563 671 l 2
 567 682 573 694 586 694 c 0
 598 694 606 684 606 674 c 0
 606 669 606 667 601 656 c 2
192 411 m 1
 328 55 l 1
 464 411 l 1
 192 411 l 1
EndSplineSet
Validated: 1
EndChar

StartChar: infinity
Encoding: 8734 8734 166
Width: 989
Flags: W
HStem: -11 48<689.725 830.072> -11 32<169.843 305.102> 394 48<158.928 299.275> 410 32<683.898 819.157>
VStem: 50 22<146.516 279.838> 917 22<151.162 284.484>
LayerCount: 2
Fore
SplineSet
503 271 m 1x6c
 552 351 635 442 750 442 c 0
 865 442 939 331 939 216 c 0
 939 99 863 -11 746 -11 c 0x9c
 695 -11 639 7 583 52 c 0
 552 77 540 92 486 160 c 1
 437 80 354 -11 239 -11 c 0
 124 -11 50 100 50 215 c 0
 50 332 126 442 243 442 c 0
 294 442 350 424 406 379 c 0
 437 354 449 339 503 271 c 1x6c
529 237 m 1
 590 158 613 127 638 100 c 1
 659 79 704 37 762 37 c 0
 850 37 917 118 917 216 c 0
 917 306 863 410 757 410 c 0
 644 410 570 309 529 237 c 1
460 194 m 1
 399 273 376 304 351 331 c 1
 330 352 285 394 227 394 c 0
 139 394 72 313 72 215 c 0
 72 125 126 21 232 21 c 0x6c
 345 21 419 122 460 194 c 1
EndSplineSet
Validated: 1
EndChar

StartChar: uni2221
Encoding: 8737 8737 167
Width: 709
Flags: W
HStem: 0 40<113 389 426.843 658.987> 694 20G<636.5 644.5>
VStem: 389 40<40 126.892>
LayerCount: 2
Fore
SplineSet
648 673 m 2
 323 288 l 1
 385 213 419 135 429 40 c 1
 624 40 l 2
 641 40 659 40 659 20 c 0
 659 0 641 0 624 0 c 2
 431 0 l 1
 429 -17 416 -20 411 -20 c 0
 404 -20 393 -16 391 0 c 1
 86 0 l 2
 69 0 50 0 50 20 c 0
 50 27 52 29 62 41 c 2
 617 700 l 2
 627 712 634 714 639 714 c 0
 650 714 659 705 659 694 c 0
 659 690 659 686 648 673 c 2
113 40 m 1
 389 40 l 1
 385 82 366 177 296 256 c 1
 113 40 l 1
EndSplineSet
Validated: 1
EndChar

StartChar: gradient
Encoding: 8711 8711 168
Width: 838
Flags: W
HStem: 611 72<174 723>
LayerCount: 2
Fore
SplineSet
783 661 m 2
 446 -14 l 2
 439 -27 436 -33 419 -33 c 0
 402 -33 399 -27 392 -14 c 2
 55 661 l 2
 53 664 50 671 50 675 c 0
 50 682 51 683 74 683 c 2
 764 683 l 2
 787 683 788 682 788 675 c 0
 788 671 785 664 783 661 c 2
174 611 m 1
 449 61 l 1
 723 611 l 1
 174 611 l 1
EndSplineSet
Validated: 1
EndChar

StartChar: logicalnot
Encoding: 172 172 169
Width: 656
Flags: W
HStem: 316 40<50.0131 566>
VStem: 566 40<89.0131 316>
LayerCount: 2
Fore
SplineSet
606 320 m 2
 606 125 l 2
 606 107 606 89 586 89 c 0
 566 89 566 107 566 125 c 2
 566 316 l 1
 85 316 l 2
 68 316 50 316 50 336 c 0
 50 356 68 356 85 356 c 2
 571 356 l 2
 603 356 606 353 606 320 c 2
EndSplineSet
Validated: 1
EndChar

StartChar: uni2222
Encoding: 8738 8738 170
Width: 709
Flags: W
VStem: 522 40<119.389 380.775>
LayerCount: 2
Fore
SplineSet
638 508 m 2
 520 450 l 1
 548 387 562 319 562 250 c 0
 562 181 548 113 520 50 c 1
 636 -8 l 2
 652 -15 659 -19 659 -31 c 0
 659 -43 650 -51 639 -51 c 0
 636 -51 634 -51 621 -44 c 2
 70 228 l 2
 58 234 50 238 50 250 c 0
 50 262 59 267 69 272 c 2
 621 544 l 2
 634 551 636 551 639 551 c 0
 650 551 659 543 659 531 c 0
 659 519 650 514 638 508 c 2
115 250 m 1
 484 68 l 1
 510 129 522 188 522 250 c 0
 522 307 512 367 484 432 c 1
 115 250 l 1
EndSplineSet
Validated: 1
EndChar

StartChar: radical
Encoding: 8730 8730 171
Width: 880
Flags: W
LayerCount: 2
Fore
SplineSet
366 -95 m 1
 787 779 l 2
 795 795 802 800 810 800 c 0
 822 800 830 790 830 780 c 0
 830 778 830 774 823 760 c 2
 369 -180 l 2
 362 -194 359 -200 344 -200 c 0
 335 -200 330 -200 323 -184 c 2
 126 249 l 1
 115 241 100 230 94 225 c 0
 83 217 66 203 60 203 c 0
 53 203 50 209 50 214 c 0
 50 217 50 220 63 230 c 2
 158 302 l 2
 169 310 174 310 175 310 c 0
 178 310 183 310 190 294 c 2
 366 -95 l 1
EndSplineSet
Validated: 1
EndChar

StartChar: uni25B3
Encoding: 9651 9651 172
Width: 870
Flags: W
HStem: 0 40<103 767>
LayerCount: 2
Fore
SplineSet
457 697 m 2
 814 36 l 2
 818 28 820 25 820 20 c 0
 820 0 802 0 785 0 c 2
 86 0 l 2
 71 0 50 0 50 20 c 0
 50 24 50 26 58 39 c 2
 413 696 l 2
 421 712 424 716 435 716 c 0
 447 716 450 709 457 697 c 2
435 654 m 1
 103 40 l 1
 767 40 l 1
 435 654 l 1
EndSplineSet
Validated: 1
EndChar

StartChar: uni25BD
Encoding: 9661 9661 173
Width: 870
Flags: W
HStem: 460 40<103 767>
LayerCount: 2
Fore
SplineSet
812 461 m 2
 457 -196 l 2
 449 -212 446 -216 435 -216 c 0
 423 -216 420 -209 413 -197 c 2
 57 463 l 2
 51 475 50 475 50 480 c 0
 50 500 71 500 86 500 c 2
 785 500 l 2
 802 500 820 500 820 480 c 0
 820 476 820 474 812 461 c 2
103 460 m 1
 434 -153 l 1
 436 -153 l 1
 767 460 l 1
 103 460 l 1
EndSplineSet
Validated: 1
EndChar

StartChar: emptyset
Encoding: 8709 8709 174
Width: 765
Flags: W
HStem: -2 40<283.893 479.998> 545 40<286.937 481.417>
VStem: 89 40<192.707 386.63> 636 40<195.16 390.616>
LayerCount: 2
Fore
SplineSet
701 543 m 2
 628 479 l 2
 624 475 618 470 617 469 c 1
 636 442 676 384 676 291 c 0
 676 136 552 -2 382 -2 c 0
 258 -2 184 73 175 83 c 1
 97 15 l 2
 79 -2 77 -2 70 -2 c 0
 58 -2 50 6 50 18 c 0
 50 27 52 29 72 47 c 0
 131 98 132 99 148 114 c 1
 128 143 89 198 89 292 c 0
 89 458 223 585 383 585 c 0
 495 585 569 522 590 500 c 1
 667 567 l 2
 685 583 688 585 695 585 c 0
 697 585 715 584 715 565 c 0
 715 561 715 555 701 543 c 2
178 140 m 1
 559 473 l 1
 549 484 489 545 382 545 c 0
 244 545 129 435 129 291 c 0
 129 269 129 209 178 140 c 1
586 443 m 1
 206 110 l 1
 216 99 276 38 383 38 c 0
 521 38 636 148 636 292 c 0
 636 349 619 399 586 443 c 1
EndSplineSet
Validated: 1
EndChar

StartChar: oslash
Encoding: 248 248 175
Width: 505
Flags: W
HStem: -22 22<207.863 296.81> 694 22<206.45 298.626>
VStem: 50 67<143.409 550.226> 388 67<143.212 548.837>
LayerCount: 2
Fore
SplineSet
391 752 m 1
 368 668 l 1
 455 585 455 419 455 345 c 0
 455 273 452 190 426 120 c 0
 408 72 364 -22 252 -22 c 0
 225 -22 195 -14 171 -1 c 1
 160 -41 170 -6 158 -46 c 0
 152 -68 149 -78 134 -78 c 0
 122 -78 114 -69 114 -58 c 0
 114 -55 114 -53 137 24 c 1
 50 102 50 282 50 345 c 0
 50 438 55 528 94 609 c 0
 131 686 196 716 253 716 c 0
 290 716 322 701 334 695 c 1
 345 735 335 700 347 740 c 0
 353 761 356 772 371 772 c 0
 383 772 391 763 391 752 c 1
150 70 m 1
 325 666 l 1
 299 688 273 694 253 694 c 0
 208 694 150 664 131 571 c 0
 117 507 117 438 117 357 c 0
 117 262 117 139 150 70 c 1
355 626 m 1
 181 29 l 1
 205 8 229 0 252 0 c 0
 305 0 358 38 376 143 c 0
 388 210 388 284 388 357 c 0
 388 452 388 568 355 626 c 1
EndSplineSet
Validated: 1
EndChar

StartChar: uni25C7
Encoding: 9671 9671 176
Width: 654
Flags: W
LayerCount: 2
Fore
SplineSet
595 272 m 2
 349 -116 l 2
 343 -125 338 -133 327 -133 c 0
 316 -133 311 -125 305 -116 c 2
 57 274 l 2
 57 275 50 285 50 291 c 0
 50 296 50 298 59 311 c 2
 305 699 l 2
 311 708 316 716 327 716 c 0
 338 716 343 708 349 699 c 2
 597 309 l 2
 597 308 604 298 604 292 c 0
 604 287 604 285 595 272 c 2
94 291 m 1
 326 -75 l 1
 328 -75 l 1
 560 292 l 1
 327 659 l 1
 94 291 l 1
EndSplineSet
Validated: 1
EndChar

StartChar: uni25C0
Encoding: 9664 9664 177
Width: 711
Flags: W
LayerCount: 2
Fore
SplineSet
70 272 m 2
 623 533 l 2
 631 537 637 539 641 539 c 0
 647 539 652 537 655 533 c 0
 658 529 660 525 660 521 c 0
 660 517 661 511 661 504 c 2
 661 -5 l 2
 661 -12 660 -18 660 -22 c 0
 660 -26 658 -30 655 -34 c 0
 652 -38 647 -40 641 -40 c 0
 638 -40 632 -38 623 -33 c 2
 70 227 l 2
 57 233 50 240 50 249 c 0
 50 258 57 266 70 272 c 2
EndSplineSet
Validated: 1
EndChar

StartChar: uni25B8
Encoding: 9656 9656 178
Width: 711
Flags: W
LayerCount: 2
Fore
SplineSet
641 227 m 2
 88 -33 l 2
 79 -38 73 -40 70 -40 c 0
 64 -40 59 -38 56 -34 c 0
 53 -30 50 -26 50 -22 c 0
 50 -18 50 -12 50 -5 c 2
 50 503 l 2
 50 511 50 517 50 521 c 0
 50 525 53 529 56 533 c 0
 59 537 64 539 71 539 c 0
 74 539 79 537 88 532 c 2
 641 272 l 2
 654 266 661 258 661 249 c 0
 661 240 654 233 641 227 c 2
EndSplineSet
Validated: 1
EndChar

StartChar: bracketleft
Encoding: 91 91 179
Width: 229
Flags: W
HStem: -249 35<85 179> 714 35<85 179>
VStem: 50 129<-249 -214 714 749> 50 35<-214 714>
LayerCount: 2
Fore
SplineSet
179 -249 m 1xe0
 50 -249 l 1
 50 749 l 1
 179 749 l 1
 179 714 l 1xe0
 85 714 l 1
 85 -214 l 1xd0
 179 -214 l 1
 179 -249 l 1xe0
EndSplineSet
Validated: 1
EndChar

StartChar: bracketright
Encoding: 93 93 180
Width: 229
Flags: W
HStem: -249 35<50 144> 714 35<50 144>
VStem: 50 129<-249 -214 714 749> 144 35<-214 714>
LayerCount: 2
Fore
SplineSet
179 749 m 1xe0
 179 -249 l 1
 50 -249 l 1
 50 -214 l 1xe0
 144 -214 l 1
 144 714 l 1xd0
 50 714 l 1
 50 749 l 1
 179 749 l 1xe0
EndSplineSet
Validated: 1
EndChar

StartChar: braceleft
Encoding: 123 123 181
Width: 455
Flags: W
HStem: -250 22<338.403 404.994> 239 22<50.0044 116.993> 728 22<340.093 404.994>
VStem: 194 67<-177.45 187.836 312.991 678.576>
CounterMasks: 1 e0
LayerCount: 2
Fore
SplineSet
261 617 m 2
 261 377 l 2
 261 319 225 273 143 250 c 1
 171 242 200 232 221 211 c 0
 253 179 261 162 261 116 c 2
 261 -94 l 2
 261 -130 261 -132 264 -141 c 0
 277 -192 326 -224 389 -228 c 0
 399 -229 405 -229 405 -239 c 0
 405 -250 397 -250 386 -250 c 0
 347 -250 281 -239 242 -209 c 0
 194 -171 194 -139 194 -97 c 2
 194 101 l 2
 194 137 194 139 191 150 c 0
 180 199 132 235 66 239 c 0
 56 240 50 240 50 250 c 0
 50 256 54 260 59 261 c 0
 81 262 119 264 154 293 c 0
 194 326 194 358 194 397 c 2
 194 625 l 1
 195 699 286 750 386 750 c 0
 397 750 405 750 405 739 c 0
 405 733 401 729 396 728 c 0
 287 721 261 657 261 617 c 2
EndSplineSet
Validated: 1
EndChar

StartChar: braceright
Encoding: 125 125 182
Width: 455
Flags: W
HStem: -250 22<50.008 114.84> 239 22<338.007 404.996> 728 22<50.008 117.247>
VStem: 194 67<-178.622 187.009 312.164 677.45>
CounterMasks: 1 e0
LayerCount: 2
Fore
SplineSet
194 -117 m 2
 194 123 l 2
 194 181 230 227 312 250 c 1
 284 258 255 268 234 289 c 0
 202 321 194 338 194 384 c 2
 194 594 l 2
 194 630 194 632 191 641 c 0
 178 692 129 724 66 728 c 0
 56 729 50 729 50 739 c 0
 50 750 61 750 70 750 c 0
 104 750 173 740 213 709 c 0
 261 671 261 639 261 597 c 2
 261 399 l 2
 261 363 261 361 264 350 c 0
 275 301 323 265 389 261 c 0
 399 260 405 260 405 250 c 0
 405 244 401 240 396 239 c 0
 374 238 336 236 301 207 c 0
 261 174 261 142 261 103 c 2
 261 -125 l 1
 260 -201 167 -250 70 -250 c 0
 61 -250 50 -250 50 -239 c 0
 50 -233 54 -229 59 -228 c 0
 168 -221 194 -157 194 -117 c 2
EndSplineSet
Validated: 1
EndChar

StartChar: uni3008
Encoding: 12296 12296 183
Width: 323
Flags: W
VStem: 230 43<-249.916 -226>
LayerCount: 2
Fore
SplineSet
268 712 m 2
 91 250 l 1
 268 -214 l 2
 273 -225 273 -227 273 -230 c 0
 273 -241 264 -250 253 -250 c 0
 239 -250 234 -237 230 -226 c 2
 55 233 l 2
 50 245 50 247 50 250 c 0
 50 256 53 262 55 268 c 2
 230 727 l 2
 237 745 244 750 253 750 c 0
 264 750 273 741 273 730 c 0
 273 725 273 723 268 712 c 2
EndSplineSet
Validated: 1
EndChar

StartChar: uni3009
Encoding: 12297 12297 184
Width: 323
Flags: W
VStem: 50 41<-249.993 -230 727 749.993>
LayerCount: 2
Fore
SplineSet
268 233 m 2
 91 -230 l 2
 87 -240 83 -250 70 -250 c 0
 59 -250 50 -241 50 -230 c 0
 50 -225 50 -223 55 -212 c 2
 232 250 l 1
 55 714 l 2
 50 725 50 727 50 730 c 0
 50 741 59 750 70 750 c 0
 81 750 87 744 93 727 c 2
 268 267 l 2
 273 255 273 253 273 250 c 0
 273 247 273 245 268 233 c 2
EndSplineSet
Validated: 1
EndChar

StartChar: uni03F0
Encoding: 1008 1008 185
Width: 756
Flags: W
HStem: -1 67<476.001 555.122> 365 67<202.894 279>
VStem: 127 26<312.039 337.12> 279 31<299.788 399> 445 31<23.5 130.496>
LayerCount: 2
Fore
SplineSet
519 270 m 1
 137 16 l 2
 126 9 106 -5 82 -5 c 0
 79 -5 50 -4 50 21 c 0
 50 36 58 41 75 53 c 2
 141 97 l 1
 176 119 176 120 181 123 c 0
 209 142 279 293 279 347 c 0
 279 350 279 359 276 365 c 1
 208 365 161 342 153 324 c 0
 149 317 147 312 139 312 c 0
 131 312 127 318 127 324 c 0
 127 356 192 432 282 432 c 0
 310 432 310 411 310 387 c 0
 310 313 265 209 236 160 c 1
 619 415 l 2
 631 423 650 436 674 436 c 0
 684 436 706 431 706 410 c 0
 706 400 700 394 699 392 c 0
 694 387 638 350 600 324 c 0
 569 303 568 302 548 272 c 0
 499 194 476 100 476 84 c 0
 476 77 478 71 480 66 c 1
 548 67 593 87 604 107 c 1
 607 115 609 119 617 119 c 0
 621 119 629 117 629 107 c 0
 629 73 562 -1 474 -1 c 0
 458 -1 445 3 445 44 c 0
 445 70 455 155 519 270 c 1
EndSplineSet
Validated: 1
EndChar

StartChar: comma
Encoding: 44 44 186
Width: 208
Flags: W
HStem: 15 82<80.7117 137.973>
VStem: 138 20<-72.4616 14.5676>
LayerCount: 2
Fore
SplineSet
158 -4 m 0
 158 -39 151 -71 138 -102 c 0
 125 -133 111 -156 98 -171 c 0
 85 -186 77 -193 73 -193 c 0
 66 -193 63 -190 63 -183 c 0
 63 -180 67 -175 74 -167 c 0
 117 -119 138 -65 138 -4 c 0
 138 9 137 15 136 15 c 0
 135 15 133 14 132 13 c 0
 123 4 112 0 99 0 c 0
 83 0 70 5 62 15 c 0
 54 25 50 36 50 49 c 0
 50 61 54 72 63 82 c 0
 72 92 83 97 98 97 c 0
 118 97 133 88 143 70 c 0
 153 52 158 27 158 -4 c 0
EndSplineSet
Validated: 1
EndChar

StartChar: period
Encoding: 46 46 187
Width: 197
Flags: W
HStem: 0 97<64.4695 132.576>
VStem: 50 97<14.4695 88.3216>
LayerCount: 2
Fore
SplineSet
147 48 m 0
 147 35 142 24 133 14 c 0
 124 4 112 0 98 0 c 0
 85 0 74 5 64 14 c 0
 54 23 50 35 50 49 c 0
 50 62 55 72 64 82 c 0
 73 92 85 97 99 97 c 0
 112 97 122 92 132 83 c 0
 142 74 147 62 147 48 c 0
EndSplineSet
Validated: 1
EndChar

StartChar: slash
Encoding: 47 47 188
Width: 481
Flags: W
VStem: 50 40<-249.871 -228>
LayerCount: 2
Fore
SplineSet
425 713 m 1
 90 -228 l 2
 85 -243 78 -250 68 -250 c 0
 63 -250 60 -248 56 -244 c 0
 52 -240 50 -236 50 -231 c 0
 50 -230 51 -227 53 -222 c 2
 56 -213 l 1
 391 728 l 2
 396 743 404 750 413 750 c 0
 418 750 422 748 426 744 c 0
 430 740 431 736 431 731 c 0
 431 730 430 727 428 722 c 2
 425 713 l 1
EndSplineSet
Validated: 1
EndChar

StartChar: colon
Encoding: 58 58 189
Width: 182
Flags: W
HStem: 0 82<62.3765 119.624> 348 82<62.3765 119.624>
VStem: 50 82<12.3757 69.6243 360.376 417.624>
LayerCount: 2
Fore
SplineSet
132 389 m 0
 132 377 128 368 120 360 c 0
 112 352 102 348 91 348 c 0
 80 348 70 352 62 360 c 0
 54 368 50 377 50 389 c 0
 50 401 54 410 62 418 c 0
 70 426 80 430 91 430 c 0
 102 430 112 426 120 418 c 0
 128 410 132 401 132 389 c 0
132 41 m 0
 132 29 128 20 120 12 c 0
 112 4 102 0 91 0 c 0
 80 0 70 4 62 12 c 0
 54 20 50 29 50 41 c 0
 50 53 54 62 62 70 c 0
 70 78 80 82 91 82 c 0
 102 82 112 78 120 70 c 0
 128 62 132 53 132 41 c 0
EndSplineSet
Validated: 1
EndChar

StartChar: semicolon
Encoding: 59 59 190
Width: 185
Flags: W
HStem: 0 82<62.3765 118.516> 348 82<62.3765 119.624>
VStem: 50 85<11.3303 70.6697 360.376 417.624> 119 16<-75.3711 9.90438>
LayerCount: 2
Fore
SplineSet
132 389 m 0xe0
 132 377 128 368 120 360 c 0
 112 352 102 348 91 348 c 0
 80 348 70 352 62 360 c 0
 54 368 50 377 50 389 c 0
 50 401 54 410 62 418 c 0
 70 426 80 430 91 430 c 0
 102 430 112 426 120 418 c 0
 128 410 132 401 132 389 c 0xe0
119 -11 m 2xd0
 119 10 l 1xd0
 112 3 103 0 91 0 c 0
 80 0 70 4 62 11 c 0
 54 18 50 28 50 41 c 0xe0
 50 54 54 64 62 71 c 0
 70 78 80 82 91 82 c 0
 120 82 135 52 135 -9 c 0
 135 -44 129 -76 118 -107 c 0
 107 -138 96 -160 86 -174 c 0
 76 -188 70 -194 67 -194 c 0
 62 -194 59 -191 59 -185 c 0
 59 -183 61 -180 65 -175 c 0
 101 -124 119 -70 119 -11 c 2xd0
EndSplineSet
Validated: 1
EndChar

StartChar: question
Encoding: 63 63 191
Width: 439
Flags: W
HStem: 0 82<177.376 234.624> 528 72<74.1875 109.625> 686 16<157.283 260.302>
VStem: 50 72<536.283 589.717> 165 82<12.3765 69.6235> 197 18<171.048 292.635> 325 64<492.115 637.219>
LayerCount: 2
Fore
SplineSet
215 225 m 2xf6
 215 190 l 2
 215 183 214 178 214 176 c 0
 214 174 213 172 212 171 c 0
 211 170 209 169 206 169 c 0
 202 169 199 170 198 172 c 0
 197 174 197 181 197 190 c 2
 197 229 l 2xf6
 197 323 227 402 287 467 c 0
 295 476 302 483 306 489 c 0
 310 495 314 506 318 520 c 0
 322 534 325 550 325 569 c 0
 325 580 325 589 324 596 c 0
 323 603 321 614 317 626 c 0
 313 638 308 648 300 656 c 0
 292 664 280 671 264 677 c 0
 248 683 230 686 208 686 c 0
 179 686 151 679 126 664 c 0
 101 649 84 627 74 598 c 1
 78 599 82 600 86 600 c 0
 95 600 104 596 111 590 c 0
 118 584 122 575 122 564 c 0
 122 551 118 542 110 536 c 0
 102 530 94 528 86 528 c 0
 83 528 79 528 75 529 c 0
 71 530 66 533 60 540 c 0
 54 547 50 556 50 567 c 0
 50 602 64 634 94 661 c 0
 124 688 163 702 210 702 c 0
 267 702 311 689 342 664 c 0
 373 639 389 606 389 564 c 0
 389 521 371 486 335 459 c 1
 298 430 268 394 247 354 c 0xfa
 226 314 215 271 215 225 c 2xf6
247 41 m 0xfa
 247 30 243 20 235 12 c 0
 227 4 217 0 206 0 c 0
 195 0 185 4 177 12 c 0
 169 20 165 30 165 41 c 0
 165 52 169 62 177 70 c 0
 185 78 195 82 206 82 c 0
 217 82 227 78 235 70 c 0
 243 62 247 52 247 41 c 0xfa
EndSplineSet
Validated: 1
EndChar

StartChar: backslash
Encoding: 92 92 192
Width: 489
Flags: W
VStem: 50 42<726 743.812>
LayerCount: 2
Fore
SplineSet
396 -226 m 2
 55 714 l 2
 52 722 50 727 50 730 c 0
 50 735 52 740 56 744 c 0
 60 748 65 750 70 750 c 0
 76 750 80 748 83 745 c 0
 86 742 89 735 92 726 c 2
 434 -214 l 2
 437 -222 439 -227 439 -230 c 0
 439 -235 437 -240 433 -244 c 0
 429 -248 424 -250 419 -250 c 0
 410 -250 402 -242 396 -226 c 2
EndSplineSet
Validated: 1
EndChar

StartChar: uni22EE
Encoding: 8942 8942 193
Width: 216
Flags: W
HStem: -142 116<64.3052 151.932> 213 116<64.3052 151.932> 558 116<64.3052 151.932>
VStem: 50 116<-127.509 -40.8281 227.491 314.172 572.491 659.172>
LayerCount: 2
Fore
SplineSet
107 674 m 0
 138 674 166 646 166 616 c 0
 166 585 138 558 106 558 c 0
 77 558 50 586 50 616 c 0
 50 646 77 674 107 674 c 0
107 329 m 0
 138 329 166 301 166 271 c 0
 166 240 138 213 106 213 c 0
 77 213 50 241 50 271 c 0
 50 301 77 329 107 329 c 0
107 -26 m 0
 138 -26 166 -54 166 -84 c 0
 166 -115 138 -142 106 -142 c 0
 77 -142 50 -114 50 -84 c 0
 50 -54 77 -26 107 -26 c 0
EndSplineSet
Validated: 1
EndChar

StartChar: uni22EF
Encoding: 8943 8943 194
Width: 882
Flags: W
HStem: 213 116<64.3052 151.932 397.305 484.932 730.305 817.932>
VStem: 50 116<227.491 314.172> 383 116<227.491 314.172> 716 116<227.491 314.172>
CounterMasks: 1 70
LayerCount: 2
Fore
SplineSet
440 329 m 0
 471 329 499 301 499 271 c 0
 499 240 471 213 439 213 c 0
 410 213 383 241 383 271 c 0
 383 301 410 329 440 329 c 0
107 329 m 0
 138 329 166 301 166 271 c 0
 166 240 138 213 106 213 c 0
 77 213 50 241 50 271 c 0
 50 301 77 329 107 329 c 0
773 329 m 0
 804 329 832 301 832 271 c 0
 832 240 804 213 772 213 c 0
 743 213 716 241 716 271 c 0
 716 301 743 329 773 329 c 0
EndSplineSet
Validated: 1
EndChar

StartChar: uni22F0
Encoding: 8944 8944 195
Width: 685
Flags: W
LayerCount: 2
Fore
SplineSet
383 318 m 0
 405 296 405 256 384 235 c 0
 362 213 323 214 301 236 c 0
 280 257 281 296 302 317 c 0
 323 338 362 339 383 318 c 0
148 553 m 0
 170 531 170 492 149 470 c 1
 127 449 88 449 65 472 c 0
 45 492 45 531 67 552 c 1
 88 574 127 574 148 553 c 0
619 82 m 0
 641 60 641 21 619 0 c 1
 598 -22 559 -22 536 1 c 0
 516 21 516 60 537 82 c 1
 559 103 598 103 619 82 c 0
EndSplineSet
Validated: 33
EndChar

StartChar: ellipsis
Encoding: 8230 8230 196
Width: 647
Flags: W
HStem: -5 116<64.3052 151.932 279.305 366.932 495.305 582.932>
VStem: 50 116<9.49126 96.1719> 265 116<9.49126 96.1719> 481 116<9.49126 96.1719>
LayerCount: 2
Fore
SplineSet
538 111 m 0
 569 111 597 83 597 53 c 0
 597 22 569 -5 537 -5 c 0
 508 -5 481 23 481 53 c 0
 481 83 508 111 538 111 c 0
322 111 m 0
 353 111 381 83 381 53 c 0
 381 22 353 -5 321 -5 c 0
 292 -5 265 23 265 53 c 0
 265 83 292 111 322 111 c 0
107 111 m 0
 138 111 166 83 166 53 c 0
 166 22 138 -5 106 -5 c 0
 77 -5 50 23 50 53 c 0
 50 83 77 111 107 111 c 0
EndSplineSet
Validated: 1
EndChar

StartChar: at
Encoding: 64 64 197
Width: 727
Flags: W
HStem: -8 16<303.091 458.367> 131 16<327.465 405.078 567.563 614.499> 547 16<327.321 404.604> 686 16<303.474 425.42>
VStem: 50 18<266.881 427.035> 176 53<246.02 447.98> 498 53<156.402 213 214.782 475.837> 659 18<218.006 422.255>
LayerCount: 2
Fore
SplineSet
551 457 m 2
 551 215 l 2
 551 188 555 147 587 147 c 0
 657 147 659 255 659 330 c 0
 659 425 634 520 570 590 c 1
 506 657 435 686 363 686 c 0
 204 686 68 537 68 347 c 0
 68 169 191 8 368 8 c 0
 498 8 595 54 631 71 c 0
 636 74 638 74 655 74 c 0
 675 74 676 73 676 68 c 0
 676 60 532 -8 369 -8 c 0
 183 -8 50 156 50 347 c 0
 50 551 196 702 364 702 c 0
 503 702 677 585 677 334 c 0
 677 227 666 131 583 131 c 0
 544 131 498 157 497 213 c 1
 479 182 432 131 363 131 c 0
 268 131 176 219 176 347 c 0
 176 475 267 563 363 563 c 0
 401 563 453 547 495 485 c 0
 500 478 501 477 502 477 c 2
 530 477 l 2
 550 477 551 476 551 457 c 2
498 271 m 2
 498 423 l 2
 498 456 478 485 454 508 c 0
 438 523 406 547 364 547 c 0
 290 547 229 458 229 347 c 0
 229 236 290 147 364 147 c 0
 407 147 455 173 486 230 c 0
 498 251 498 252 498 271 c 2
EndSplineSet
Validated: 1
EndChar

StartChar: quotedbl
Encoding: 34 34 198
Width: 425
Flags: W
HStem: 588 106<59.9292 146.039 263.929 350.039>
VStem: 149 22<520.744 610.01> 353 22<520.744 610.01>
LayerCount: 2
Fore
SplineSet
148 611 m 1
 144 605 130 588 103 588 c 0
 67 588 50 615 50 641 c 0
 50 667 68 694 103 694 c 0
 149 694 171 644 171 589 c 0
 171 471 86 395 75 395 c 0
 69 395 64 400 64 406 c 0
 64 408 64 410 69 415 c 0
 88 433 149 489 149 590 c 0
 149 596 149 605 148 611 c 1
352 611 m 1
 348 605 334 588 307 588 c 0
 271 588 254 615 254 641 c 0
 254 667 272 694 307 694 c 0
 353 694 375 644 375 589 c 0
 375 471 290 395 279 395 c 0
 273 395 268 400 268 406 c 0
 268 408 268 410 273 415 c 0
 292 433 353 489 353 590 c 0
 353 596 353 605 352 611 c 1
EndSplineSet
Validated: 1
EndChar

StartChar: quotesingle
Encoding: 39 39 199
Width: 216
Flags: W
HStem: 510 188
VStem: 14.7373 194
LayerCount: 2
Fore
SplineSet
160.462 669.414 m 6
 72.3604 490.081 l 5
 64.3105 492.765 60.2861 494.106 50 499.025 c 5
 94.2744 683.277 l 6
 99.1934 704.744 101.877 715.03 115.293 721.738 c 4
 132.287 730.235 155.989 720.844 163.592 705.639 c 4
 171.194 690.433 163.592 676.569 160.462 669.414 c 6
EndSplineSet
Validated: 33
EndChar

StartChar: asterisk
Encoding: 42 42 200
Width: 669
Flags: W
HStem: 128 55<150.738 174 454.622 518.09> 316 55<150.906 170 495 518.262>
VStem: 309 51<34.2578 132 360.143 464.668>
LayerCount: 2
Fore
SplineSet
360 427 m 2
 346 271 l 1
 458 352 l 2
 483 371 485 371 492 371 c 0
 506 371 519 358 519 343 c 0
 519 328 511 324 495 316 c 2
 357 249 l 1
 436 212 438 212 498 182 c 0
 510 176 519 171 519 156 c 0
 519 142 506 128 492 128 c 0
 485 128 483 130 474 135 c 1
 346 228 l 1
 361 60 l 1
 361 41 346 34 334 34 c 0
 326 34 308 39 308 60 c 1
 323 228 l 1
 211 147 l 2
 186 128 184 128 177 128 c 0
 163 128 150 141 150 156 c 0
 150 171 158 175 174 183 c 2
 312 250 l 1
 170 318 l 2
 160 323 150 327 150 343 c 0
 150 357 163 371 177 371 c 0
 184 371 186 369 195 364 c 1
 323 271 l 1
 309 426 l 1
 309 439 l 1
 306 452 319 465 335 465 c 0
 357 465 360 449 360 435 c 0
 360 432 360 429 360 427 c 2
EndSplineSet
Validated: 33
EndChar

StartChar: plus
Encoding: 43 43 201
Width: 927
Flags: W
HStem: 232 35<150.012 446 481 776.988>
VStem: 446 35<-63.9876 232 267 562.988>
LayerCount: 2
Fore
SplineSet
481 232 m 1
 481 -33 l 2
 481 -48 481 -64 463 -64 c 0
 446 -64 446 -47 446 -33 c 2
 446 232 l 1
 181 232 l 2
 166 232 150 232 150 250 c 0
 150 267 167 267 181 267 c 2
 446 267 l 1
 446 532 l 2
 446 547 446 563 464 563 c 0
 481 563 481 546 481 532 c 2
 481 267 l 1
 746 267 l 2
 761 267 777 267 777 249 c 0
 777 232 760 232 746 232 c 2
 481 232 l 1
EndSplineSet
Validated: 1
EndChar

StartChar: hyphen
Encoding: 45 45 202
Width: 911
Flags: W
HStem: 230 40<150.013 760.987>
LayerCount: 2
Fore
SplineSet
726 230 m 2
 185 230 l 2
 168 230 150 230 150 250 c 0
 150 270 168 270 185 270 c 2
 726 270 l 2
 743 270 761 270 761 250 c 0
 761 230 743 230 726 230 c 2
EndSplineSet
Validated: 1
EndChar

StartChar: uni2210
Encoding: 8720 8720 203
Width: 979
Flags: W
HStem: 0 31<150.005 249.426 337 642 729.342 828.995> 652 31<150.007 249.658 340.574 439.993 539.007 638.658 729.574 828.993>
VStem: 253 84<34.3049 648.462> 642 84<34.1795 648.462>
LayerCount: 2
Fore
SplineSet
726 605 m 2
 726 78 l 2
 726 38 726 31 798 31 c 0
 823 31 829 31 829 15 c 0
 829 0 822 0 801 0 c 2
 178 0 l 2
 157 0 150 0 150 15 c 0
 150 31 157 31 176 31 c 0
 253 31 253 37 253 78 c 2
 253 605 l 2
 253 645 253 652 181 652 c 0
 156 652 150 652 150 668 c 0
 150 683 160 683 167 683 c 0
 188 683 210 681 231 681 c 0
 252 681 274 680 295 680 c 0
 323 680 395 683 423 683 c 0
 430 683 440 683 440 668 c 0
 440 652 433 652 414 652 c 0
 337 652 337 646 337 605 c 2
 337 31 l 1
 642 31 l 1
 642 605 l 2
 642 645 642 652 570 652 c 0
 545 652 539 652 539 668 c 0
 539 683 549 683 556 683 c 0
 577 683 599 681 620 681 c 0
 641 681 663 680 684 680 c 0
 712 680 784 683 812 683 c 0
 819 683 829 683 829 668 c 0
 829 652 822 652 803 652 c 0
 726 652 726 646 726 605 c 2
EndSplineSet
Validated: 1
EndChar

StartChar: uni22BC
Encoding: 8892 8892 204
Width: 798
Flags: W
HStem: 0 21G<164.5 176.5 622 634> 676 40<150.014 647.986>
VStem: 150 42<0.0261536 20> 606 42<0.0261536 19>
LayerCount: 2
Fore
SplineSet
612 676 m 2
 186 676 l 2
 169 676 150 676 150 696 c 0
 150 716 168 716 185 716 c 2
 613 716 l 2
 630 716 648 716 648 696 c 0
 648 676 629 676 612 676 c 2
421 503 m 2
 641 38 l 2
 648 25 648 23 648 20 c 0
 648 9 640 0 628 0 c 0
 616 0 611 9 606 19 c 2
 399 456 l 1
 192 20 l 2
 186 8 183 0 170 0 c 0
 159 0 150 9 150 20 c 0
 150 22 150 26 157 40 c 2
 377 502 l 2
 382 513 386 522 399 522 c 0
 410 522 415 515 421 503 c 2
EndSplineSet
Validated: 1
EndChar

StartChar: uni22BB
Encoding: 8891 8891 205
Width: 798
Flags: W
HStem: 0 40<150.014 647.987>
VStem: 150 42<697 715.974> 606 42<696 715.974>
LayerCount: 2
Fore
SplineSet
641 676 m 2
 421 214 l 2
 416 203 412 194 399 194 c 0
 387 194 382 203 377 213 c 2
 156 678 l 2
 154 683 150 690 150 696 c 0
 150 707 159 716 170 716 c 0
 181 716 187 709 192 697 c 2
 399 260 l 1
 606 696 l 2
 612 708 615 716 628 716 c 0
 639 716 648 707 648 696 c 0
 648 695 648 690 641 676 c 2
186 40 m 2
 613 40 l 2
 630 40 648 40 648 20 c 0
 648 0 630 0 613 0 c 2
 186 0 l 2
 169 0 150 0 150 20 c 0
 150 40 169 40 186 40 c 2
EndSplineSet
Validated: 1
EndChar

StartChar: uni25EF
Encoding: 9711 9711 206
Width: 1189
Flags: W
HStem: -216 40<474.016 714.951> 676 40<474.049 714.984>
VStem: 150 40<122.096 377.922> 999 40<122.078 377.904>
LayerCount: 2
Fore
SplineSet
1039 250 m 0
 1039 -9 839 -216 594 -216 c 0
 352 -216 150 -11 150 250 c 0
 150 509 350 716 595 716 c 0
 837 716 1039 511 1039 250 c 0
595 -176 m 0
 816 -176 999 12 999 250 c 0
 999 486 818 676 594 676 c 0
 373 676 190 488 190 250 c 0
 190 14 371 -176 595 -176 c 0
EndSplineSet
Validated: 1
EndChar

StartChar: uni22A1
Encoding: 8865 8865 207
Width: 965
Flags: W
HStem: 0 40<190 775> 291 106<440.609 525.391> 647 40<190 775>
VStem: 150 40<40 647> 430 106<301.609 386.391> 775 40<40 647>
LayerCount: 2
Fore
SplineSet
815 652 m 2
 815 35 l 2
 815 3 812 0 779 0 c 2
 186 0 l 2
 153 0 150 4 150 36 c 2
 150 652 l 2
 150 684 154 687 185 687 c 2
 780 687 l 2
 812 687 815 683 815 652 c 2
190 647 m 1
 190 40 l 1
 775 40 l 1
 775 647 l 1
 190 647 l 1
536 344 m 0
 536 315 512 291 483 291 c 0
 454 291 430 315 430 344 c 0
 430 373 454 397 483 397 c 0
 512 397 536 373 536 344 c 0
EndSplineSet
Validated: 1
EndChar

StartChar: uni229F
Encoding: 8863 8863 208
Width: 965
Flags: W
HStem: 0 40<190 775> 324 40<190 775> 647 40<190 775>
VStem: 150 40<40 324 364 647> 775 40<40 324 364 647>
LayerCount: 2
Fore
SplineSet
815 652 m 2
 815 35 l 2
 815 3 812 0 779 0 c 2
 186 0 l 2
 153 0 150 4 150 36 c 2
 150 652 l 2
 150 684 154 687 185 687 c 2
 780 687 l 2
 812 687 815 683 815 652 c 2
190 364 m 1
 775 364 l 1
 775 647 l 1
 190 647 l 1
 190 364 l 1
190 40 m 1
 775 40 l 1
 775 324 l 1
 190 324 l 1
 190 40 l 1
EndSplineSet
Validated: 1
EndChar

StartChar: uni229E
Encoding: 8862 8862 209
Width: 965
Flags: W
HStem: 0 40<190 463 503 775> 324 40<190 463 503 775> 647 40<190 463 503 775>
VStem: 150 40<40 324 364 647> 463 40<40 324 364 647> 775 40<40 324 364 647>
LayerCount: 2
Fore
SplineSet
815 652 m 2
 815 35 l 2
 815 3 812 0 779 0 c 2
 186 0 l 2
 153 0 150 4 150 36 c 2
 150 652 l 2
 150 684 154 687 185 687 c 2
 780 687 l 2
 812 687 815 683 815 652 c 2
190 364 m 1
 463 364 l 1
 463 647 l 1
 190 647 l 1
 190 364 l 1
775 647 m 1
 503 647 l 1
 503 364 l 1
 775 364 l 1
 775 647 l 1
190 40 m 1
 463 40 l 1
 463 324 l 1
 190 324 l 1
 190 40 l 1
775 324 m 1
 503 324 l 1
 503 40 l 1
 775 40 l 1
 775 324 l 1
EndSplineSet
Validated: 1
EndChar

StartChar: uni22A0
Encoding: 8864 8864 210
Width: 965
Flags: W
HStem: 0 40<217 748> 647 40<217 748>
VStem: 150 40<70 617> 775 40<70 617>
LayerCount: 2
Fore
SplineSet
815 652 m 2
 815 35 l 2
 815 3 811 0 780 0 c 2
 186 0 l 2
 153 0 150 4 150 36 c 2
 150 652 l 2
 150 684 154 687 185 687 c 2
 780 687 l 2
 812 687 815 683 815 652 c 2
217 647 m 1
 483 373 l 1
 748 647 l 1
 217 647 l 1
190 70 m 1
 454 343 l 1
 190 617 l 1
 190 70 l 1
775 617 m 1
 511 344 l 1
 775 70 l 1
 775 617 l 1
748 40 m 1
 482 314 l 1
 217 40 l 1
 748 40 l 1
EndSplineSet
Validated: 1
EndChar

StartChar: bullet
Encoding: 8226 8226 211
Width: 689
Flags: W
HStem: 56 388<256.092 432.375>
VStem: 150 389<162.185 337.375>
LayerCount: 2
Fore
SplineSet
539 250 m 0
 539 143 450 56 345 56 c 0
 237 56 150 144 150 250 c 0
 150 355 237 444 345 444 c 0
 450 444 539 357 539 250 c 0
EndSplineSet
Validated: 1
EndChar

StartChar: intersection
Encoding: 8745 8745 212
Width: 856
Flags: W
HStem: 558 40<316.26 542.263>
VStem: 150 40<-21.9869 453.521> 666 40<-21.9869 456.289>
LayerCount: 2
Fore
SplineSet
706 380 m 2
 706 14 l 2
 706 -4 706 -22 686 -22 c 0
 666 -22 666 -4 666 14 c 2
 666 375 l 2
 666 402 666 466 589 515 c 0
 536 549 473 558 428 558 c 0
 353 558 190 526 190 376 c 2
 190 14 l 2
 190 -4 190 -22 170 -22 c 0
 150 -22 150 -4 150 14 c 2
 150 381 l 2
 150 528 298 598 428 598 c 0
 553 598 706 532 706 380 c 2
EndSplineSet
Validated: 1
EndChar

StartChar: union
Encoding: 8746 8746 213
Width: 856
Flags: W
HStem: -22 40<313.737 539.74>
VStem: 150 40<119.711 597.987> 666 40<122.479 597.987>
LayerCount: 2
Fore
SplineSet
706 562 m 2
 706 195 l 2
 706 48 558 -22 428 -22 c 0
 303 -22 150 44 150 196 c 2
 150 562 l 2
 150 580 150 598 170 598 c 0
 190 598 190 580 190 562 c 2
 190 201 l 2
 190 174 190 110 267 61 c 0
 320 27 383 18 428 18 c 0
 503 18 666 50 666 200 c 2
 666 562 l 2
 666 580 666 598 686 598 c 0
 706 598 706 580 706 562 c 2
EndSplineSet
Validated: 1
EndChar

StartChar: uni22D2
Encoding: 8914 8914 214
Width: 854
Flags: W
HStem: 404 40<372.498 482.522> 558 40<319.55 536.181>
VStem: 150 40<-21.9869 455.194> 304 40<-21.9869 374.859> 510 40<-21.9869 375.259> 664 40<-21.9869 456.013>
LayerCount: 2
Fore
SplineSet
550 320 m 2
 550 13 l 2
 550 -4 550 -22 530 -22 c 0
 510 -22 510 -4 510 13 c 2
 510 317 l 2
 510 339 510 358 487 380 c 0
 468 399 442 404 427 404 c 0
 410 404 385 399 366 379 c 0
 344 357 344 338 344 317 c 2
 344 13 l 2
 344 -4 344 -22 324 -22 c 0
 304 -22 304 -4 304 13 c 2
 304 320 l 2
 304 419 388 444 427 444 c 0
 465 444 550 420 550 320 c 2
704 379 m 2
 704 13 l 2
 704 -4 704 -22 684 -22 c 0
 664 -22 664 -4 664 13 c 2
 664 376 l 2
 664 401 664 462 591 512 c 0
 544 543 483 558 427 558 c 0
 341 558 190 518 190 376 c 2
 190 13 l 2
 190 -4 190 -22 170 -22 c 0
 150 -22 150 -4 150 13 c 2
 150 379 l 2
 150 532 304 598 427 598 c 0
 550 598 704 533 704 379 c 2
EndSplineSet
Validated: 1
EndChar

StartChar: uni22D3
Encoding: 8915 8915 215
Width: 854
Flags: W
HStem: -22 40<317.819 534.45> 132 40<371.478 481.502>
VStem: 150 40<119.987 597.987> 304 40<200.741 597.987> 510 40<201.141 597.987> 664 40<120.806 597.987>
LayerCount: 2
Fore
SplineSet
550 563 m 2
 550 256 l 2
 550 157 466 132 427 132 c 0
 389 132 304 156 304 256 c 2
 304 563 l 2
 304 580 304 598 324 598 c 0
 344 598 344 580 344 563 c 2
 344 259 l 2
 344 237 344 218 367 196 c 0
 386 177 412 172 427 172 c 0
 444 172 469 177 488 197 c 0
 510 219 510 238 510 259 c 2
 510 563 l 2
 510 580 510 598 530 598 c 0
 550 598 550 580 550 563 c 2
704 563 m 2
 704 197 l 2
 704 44 550 -22 427 -22 c 0
 304 -22 150 43 150 197 c 2
 150 563 l 2
 150 580 150 598 170 598 c 0
 190 598 190 580 190 563 c 2
 190 200 l 2
 190 175 190 114 263 64 c 0
 310 33 371 18 427 18 c 0
 513 18 664 58 664 200 c 2
 664 563 l 2
 664 580 664 598 684 598 c 0
 704 598 704 580 704 563 c 2
EndSplineSet
Validated: 1
EndChar

StartChar: uni22D0
Encoding: 8912 8912 216
Width: 911
Flags: W
HStem: -40 40<357.3 760.987> 115 40<381.92 760.987> 346 40<383.615 760.948> 500 40<356.888 760.987>
VStem: 150 40<157.55 345.256> 304 40<191.554 308.228>
LayerCount: 2
Fore
SplineSet
470 155 m 2
 726 155 l 2
 743 155 761 155 761 135 c 0
 761 115 743 115 726 115 c 2
 619 115 l 2
 560 115 500 114 441 114 c 0
 363 114 304 176 304 250 c 0
 304 323 363 386 441 386 c 0
 451 386 462 385 473 385 c 2
 726 385 l 2
 743 385 761 385 761 365 c 0
 761 345 743 345 726 345 c 2
 470 345 l 2
 460 345 450 346 441 346 c 0
 385 346 344 301 344 250 c 0
 344 199 385 154 441 154 c 0
 450 154 460 155 470 155 c 2
459 0 m 2
 726 0 l 2
 743 0 761 0 761 -20 c 0
 761 -40 743 -40 726 -40 c 2
 456 -40 l 2
 289 -40 150 86 150 250 c 0
 150 414 289 540 456 540 c 2
 726 540 l 2
 743 540 761 540 761 520 c 0
 761 500 743 500 726 500 c 2
 459 500 l 2
 302 500 190 385 190 250 c 0
 190 115 303 0 459 0 c 2
EndSplineSet
Validated: 1
EndChar

StartChar: uni22D1
Encoding: 8913 8913 217
Width: 911
Flags: W
HStem: -40 40<150.013 554.112> 115 40<150.013 529.08> 345 40<150.013 529.08> 500 40<150.013 553.7>
VStem: 567 40<191.772 308.446> 721 40<154.744 342.45>
LayerCount: 2
Fore
SplineSet
441 345 m 2
 185 345 l 2
 168 345 150 345 150 365 c 0
 150 385 168 385 185 385 c 2
 438 385 l 2
 449 385 460 386 470 386 c 0
 548 386 607 324 607 250 c 0
 607 177 548 114 470 114 c 0
 460 114 449 115 438 115 c 2
 185 115 l 2
 168 115 150 115 150 135 c 0
 150 155 168 155 185 155 c 2
 441 155 l 2
 451 155 461 154 470 154 c 0
 526 154 567 199 567 250 c 0
 567 301 526 346 470 346 c 0
 461 346 451 345 441 345 c 2
452 500 m 2
 185 500 l 2
 168 500 150 500 150 520 c 0
 150 540 168 540 185 540 c 2
 455 540 l 2
 622 540 761 414 761 250 c 0
 761 86 622 -40 455 -40 c 2
 185 -40 l 2
 168 -40 150 -40 150 -20 c 0
 150 0 168 0 185 0 c 2
 452 0 l 2
 609 0 721 115 721 250 c 0
 721 385 608 500 452 500 c 2
EndSplineSet
Validated: 1
EndChar

StartChar: periodcentered
Encoding: 183 183 218
Width: 406
Flags: W
HStem: 197 106<160.609 245.391>
VStem: 150 106<207.609 292.391>
LayerCount: 2
Fore
SplineSet
256 250 m 0
 256 221 232 197 203 197 c 0
 174 197 150 221 150 250 c 0
 150 279 174 303 203 303 c 0
 232 303 256 279 256 250 c 0
EndSplineSet
Validated: 1
EndChar

StartChar: H18543
Encoding: 9642 9642 219
Width: 465
Flags: W
HStem: 0 187<150.471 314.529>
VStem: 150 165<0.487793 186.529>
LayerCount: 2
Fore
SplineSet
315 152 m 2
 315 35 l 2
 315 3 311 0 280 0 c 2
 186 0 l 2
 153 0 150 4 150 36 c 2
 150 152 l 2
 150 184 154 187 185 187 c 2
 280 187 l 2
 312 187 315 183 315 152 c 2
EndSplineSet
Validated: 1
EndChar

StartChar: openbullet
Encoding: 9702 9702 220
Width: 689
Flags: W
HStem: 56 40<269.734 418.553> 404 40<269.956 418.553>
VStem: 150 40<176.015 323.774> 499 40<175.361 324.639>
LayerCount: 2
Fore
SplineSet
539 250 m 0
 539 143 450 56 345 56 c 0
 237 56 150 144 150 250 c 0
 150 355 237 444 345 444 c 0
 450 444 539 357 539 250 c 0
345 96 m 0
 428 96 499 164 499 250 c 0
 499 336 428 404 345 404 c 0
 259 404 190 334 190 250 c 0
 190 166 258 96 345 96 c 0
EndSplineSet
Validated: 1
EndChar

StartChar: uni229B
Encoding: 8859 8859 221
Width: 966
Flags: W
HStem: -83 25<399.4 566.767> 129 54<299.845 320 604.004 666.155> 318 53<299.845 319 646 666.155> 558 25<399.233 566.6>
VStem: 150 25<166.233 333.6> 457 52<35.3789 133 360.143 465.668> 791 25<166.4 333.767>
CounterMasks: 1 0e
LayerCount: 2
Fore
SplineSet
816 250 m 0
 816 67 667 -83 483 -83 c 0
 300 -83 150 66 150 250 c 0
 150 433 299 583 483 583 c 0
 666 583 816 434 816 250 c 0
483 -58 m 0
 653 -58 791 80 791 250 c 0
 791 420 653 558 483 558 c 0
 313 558 175 420 175 250 c 0
 175 80 313 -58 483 -58 c 0
604 150 m 2
 495 229 l 1
 500 175 l 2
 501 155 505 116 505 115 c 0
 505 111 510 64 510 61 c 0
 510 43 494 35 483 35 c 0
 472 35 456 43 456 61 c 1
 471 229 l 1
 360 149 l 2
 349 141 333 129 326 129 c 0
 311 129 299 143 299 157 c 0
 299 172 306 175 320 183 c 1
 460 250 l 1
 319 318 l 2
 309 323 299 328 299 343 c 0
 299 357 311 371 326 371 c 0
 334 371 350 358 362 350 c 2
 471 271 l 1
 457 427 l 1
 457 440 l 1
 454 453 468 466 483 466 c 0
 506 466 509 448 509 434 c 0
 509 431 509 429 509 427 c 2
 495 270 l 1
 622 364 l 2
 625 366 631 371 640 371 c 0
 655 371 667 357 667 343 c 0
 667 328 660 325 646 317 c 1
 506 250 l 1
 569 218 631 190 644 183 c 0
 660 175 667 172 667 157 c 0
 667 143 655 129 640 129 c 0
 632 129 616 142 604 150 c 2
EndSplineSet
Validated: 33
EndChar

StartChar: uni229A
Encoding: 8858 8858 222
Width: 966
Flags: W
HStem: -83 25<399.4 566.767> 111 40<425.092 541.123> 349 40<424.877 540.908> 558 25<399.233 566.6>
VStem: 150 25<166.233 333.6> 344 40<191.877 307.908> 582 40<192.092 308.123> 791 25<166.4 333.767>
LayerCount: 2
Fore
SplineSet
816 250 m 0
 816 67 667 -83 483 -83 c 0
 300 -83 150 66 150 250 c 0
 150 433 299 583 483 583 c 0
 666 583 816 434 816 250 c 0
483 -58 m 0
 653 -58 791 80 791 250 c 0
 791 420 653 558 483 558 c 0
 313 558 175 420 175 250 c 0
 175 80 313 -58 483 -58 c 0
622 250 m 0
 622 174 559 111 483 111 c 0
 407 111 344 173 344 250 c 0
 344 326 407 389 483 389 c 0
 559 389 622 327 622 250 c 0
483 151 m 0
 538 151 582 196 582 250 c 0
 582 304 537 349 483 349 c 0
 428 349 384 304 384 250 c 0
 384 196 429 151 483 151 c 0
EndSplineSet
Validated: 1
EndChar

StartChar: uni2296
Encoding: 8854 8854 223
Width: 967
Flags: W
HStem: -83 25<399.433 567.312> 238 25<175 792> 558 25<399.317 567.939>
VStem: 150 25<166.748 238 263 332.584> 792 25<167.416 238 263 333.252>
LayerCount: 2
Fore
SplineSet
817 250 m 0
 817 68 669 -83 483 -83 c 0
 300 -83 150 66 150 250 c 0
 150 432 298 583 484 583 c 0
 667 583 817 434 817 250 c 0
175 263 m 1
 792 263 l 1
 782 439 640 558 483 558 c 0
 330 558 185 441 175 263 c 1
792 238 m 1
 175 238 l 1
 185 59 329 -58 484 -58 c 0
 635 -58 782 56 792 238 c 1
EndSplineSet
Validated: 1
EndChar

StartChar: uni2299
Encoding: 8857 8857 224
Width: 967
Flags: W
HStem: -83 25<399.507 567.28> 181 138<434.5 532.5> 558 25<399.72 567.493>
VStem: 150 25<166.41 333.787> 415 137<200.092 299.908> 792 25<166.213 333.59>
CounterMasks: 1 fc
LayerCount: 2
Fore
SplineSet
817 250 m 0
 817 68 669 -83 483 -83 c 0
 300 -83 150 66 150 250 c 0
 150 432 298 583 484 583 c 0
 667 583 817 434 817 250 c 0
484 -58 m 0
 652 -58 792 78 792 250 c 0
 792 419 655 558 483 558 c 0
 315 558 175 422 175 250 c 0
 175 81 312 -58 484 -58 c 0
552 250 m 0
 552 214 523 181 483 181 c 0
 446 181 415 212 415 250 c 0
 415 286 444 319 484 319 c 0
 521 319 552 288 552 250 c 0
EndSplineSet
Validated: 1
EndChar

StartChar: uni229D
Encoding: 8861 8861 225
Width: 966
Flags: W
HStem: -83 25<399.4 566.767> 238 25<317.008 648.992> 558 25<399.233 566.6>
VStem: 150 25<166.233 333.6> 791 25<166.4 333.767>
LayerCount: 2
Fore
SplineSet
816 250 m 0
 816 67 667 -83 483 -83 c 0
 300 -83 150 66 150 250 c 0
 150 433 299 583 483 583 c 0
 666 583 816 434 816 250 c 0
483 -58 m 0
 653 -58 791 80 791 250 c 0
 791 420 653 558 483 558 c 0
 313 558 175 420 175 250 c 0
 175 80 313 -58 483 -58 c 0
346 263 m 2
 620 263 l 2
 639 263 649 263 649 250 c 0
 649 238 638 238 620 238 c 2
 346 238 l 2
 327 238 317 238 317 251 c 0
 317 263 328 263 346 263 c 2
EndSplineSet
Validated: 1
EndChar

StartChar: circleplus
Encoding: 8853 8853 226
Width: 967
Flags: W
HStem: -83 25<400.472 471 496 566.195> 238 25<175 471 496 792> 558 25<400.138 471 496 566.918>
VStem: 150 25<169.216 238 263 330.796> 471 25<-58 238 263 558> 792 25<169.216 238 263 330.484>
CounterMasks: 1 1c
LayerCount: 2
Fore
SplineSet
817 250 m 0
 817 68 669 -83 483 -83 c 0
 300 -83 150 66 150 250 c 0
 150 432 298 583 484 583 c 0
 667 583 817 434 817 250 c 0
175 263 m 1
 471 263 l 1
 471 558 l 1
 315 550 185 431 175 263 c 1
496 558 m 1
 496 263 l 1
 792 263 l 1
 782 430 653 550 496 558 c 1
471 -58 m 1
 471 238 l 1
 175 238 l 1
 185 67 316 -50 471 -58 c 1
792 238 m 1
 496 238 l 1
 496 -58 l 1
 650 -50 782 67 792 238 c 1
EndSplineSet
Validated: 1
EndChar

StartChar: circlemultiply
Encoding: 8855 8855 227
Width: 967
Flags: W
HStem: -83 25<398.604 568.242> 558 25<398.758 568.396>
VStem: 150 25<165.23 333.497> 792 25<166.503 334.226>
LayerCount: 2
Fore
SplineSet
817 250 m 0
 817 68 669 -83 483 -83 c 0
 300 -83 150 66 150 250 c 0
 150 432 298 583 484 583 c 0
 667 583 817 434 817 250 c 0
285 465 m 2
 484 267 l 1
 692 476 l 1
 610 553 518 558 483 558 c 0
 357 558 276 480 276 476 c 0
 276 474 283 467 285 465 c 2
256 41 m 1
 465 250 l 1
 256 459 l 1
 204 400 175 327 175 250 c 0
 175 186 195 109 256 41 c 1
710 459 m 1
 502 250 l 1
 711 41 l 1
 763 100 792 173 792 250 c 0
 792 332 758 408 710 459 c 1
682 35 m 2
 483 233 l 1
 275 24 l 1
 357 -53 449 -58 484 -58 c 0
 610 -58 691 20 691 24 c 0
 691 26 684 33 682 35 c 2
EndSplineSet
Validated: 1
EndChar

StartChar: uni2298
Encoding: 8856 8856 228
Width: 967
Flags: W
HStem: -83 25<398.604 567.28> 558 25<399.72 568.396>
VStem: 150 25<165.413 333.787> 792 25<166.213 334.226>
LayerCount: 2
Fore
SplineSet
817 250 m 0
 817 68 669 -83 483 -83 c 0
 300 -83 150 66 150 250 c 0
 150 432 298 583 484 583 c 0
 667 583 817 434 817 250 c 0
266 51 m 2
 692 476 l 1
 610 553 518 558 483 558 c 0
 315 558 175 422 175 250 c 0
 175 123 254 43 257 43 c 0
 258 43 258 44 266 51 c 2
710 459 m 1
 275 24 l 1
 357 -53 449 -58 484 -58 c 0
 652 -58 792 78 792 250 c 0
 792 332 758 408 710 459 c 1
EndSplineSet
Validated: 1
EndChar

StartChar: plusminus
Encoding: 177 177 229
Width: 967
Flags: W
HStem: 0 40<150.013 464 504 816.987> 313 40<150.013 464 504 816.987>
VStem: 464 40<40 313 353 665.985>
LayerCount: 2
Fore
SplineSet
504 313 m 1
 504 40 l 1
 782 40 l 2
 799 40 817 40 817 20 c 0
 817 0 799 0 782 0 c 2
 185 0 l 2
 168 0 150 0 150 20 c 0
 150 40 168 40 185 40 c 2
 464 40 l 1
 464 313 l 1
 185 313 l 2
 168 313 150 313 150 333 c 0
 150 353 168 353 185 353 c 2
 464 353 l 1
 464 632 l 2
 464 648 464 666 484 666 c 0
 504 666 504 645 504 629 c 2
 504 353 l 1
 782 353 l 2
 799 353 817 353 817 333 c 0
 817 313 799 313 782 313 c 2
 504 313 l 1
EndSplineSet
Validated: 1
EndChar

StartChar: uni2213
Encoding: 8723 8723 230
Width: 967
Flags: W
HStem: 147 40<150.013 464 504 816.987> 460 40<150.013 464 504 816.987>
VStem: 464 40<-165.984 147 187 460>
LayerCount: 2
Fore
SplineSet
504 147 m 1
 504 -129 l 2
 504 -144 504 -166 484 -166 c 0
 464 -166 464 -148 464 -132 c 2
 464 147 l 1
 185 147 l 2
 168 147 150 147 150 167 c 0
 150 187 168 187 185 187 c 2
 464 187 l 1
 464 460 l 1
 185 460 l 2
 168 460 150 460 150 480 c 0
 150 500 168 500 185 500 c 2
 782 500 l 2
 799 500 817 500 817 480 c 0
 817 460 799 460 782 460 c 2
 504 460 l 1
 504 187 l 1
 782 187 l 2
 799 187 817 187 817 167 c 0
 817 147 799 147 782 147 c 2
 504 147 l 1
EndSplineSet
Validated: 1
EndChar

StartChar: uni22CF
Encoding: 8911 8911 231
Width: 891
Flags: W
HStem: 538 40<150.005 238.385 653.323 740.99>
VStem: 426 39<-21.9855 203.763>
LayerCount: 2
Fore
SplineSet
446 251 m 1
 467 356 500 433 547 488 c 0
 620 574 717 578 720 578 c 0
 737 578 741 565 741 558 c 0
 741 541 727 539 714 537 c 0
 620 522 549 462 505 324 c 0
 480 244 467 127 466 29 c 0
 466 -4 466 -5 465 -6 c 1
 465 -9 463 -12 461 -14 c 0
 459 -17 454 -22 446 -22 c 0
 426 -22 426 -2 426 2 c 0
 425 119 417 236 379 347 c 0
 322 515 211 532 167 538 c 0
 157 540 150 548 150 558 c 0
 150 565 154 578 171 578 c 0
 184 578 282 567 346 487 c 1
 401 420 430 336 446 251 c 1
EndSplineSet
Validated: 1
EndChar

StartChar: uni22CE
Encoding: 8910 8910 232
Width: 891
Flags: W
HStem: -22 41<150.012 240.923 648.555 740.98>
VStem: 426 40<351.083 577.985>
LayerCount: 2
Fore
SplineSet
446 305 m 1
 430 223 401 137 352 76 c 0
 276 -20 172 -22 171 -22 c 0
 154 -22 150 -9 150 -2 c 0
 150 15 166 18 172 19 c 0
 263 32 338 81 386 229 c 0
 413 314 425 436 426 527 c 0
 426 560 426 561 427 562 c 1
 427 565 429 568 431 570 c 0
 433 573 438 578 446 578 c 0
 466 578 466 558 466 554 c 0
 467 454 474 326 510 219 c 0
 570 41 675 25 724 18 c 0
 734 16 741 8 741 -2 c 0
 741 -9 737 -22 720 -22 c 0
 718 -22 666 -18 616 10 c 1
 529 61 476 155 446 305 c 1
EndSplineSet
Validated: 1
EndChar

StartChar: dagger
Encoding: 8224 8224 233
Width: 633
Flags: W
HStem: 397 67<152.188 297.892 335.108 480.812>
VStem: 283 67<-14.03 403.52 468.818 703.201> 306 21<-215.996 -111.058 345.282 420 441 539.471>
LayerCount: 2
Fore
SplineSet
327 420 m 1xa0
 328 400 329 387 339 335 c 0
 350 278 350 267 350 218 c 0
 350 108 342 -26 341 -44 c 0
 339 -92 335 -152 330 -198 c 0
 328 -211 328 -216 316 -216 c 0
 305 -216 304 -210 303 -196 c 0
 295 -109 283 60 283 218 c 0xc0
 283 266 283 278 294 336 c 0
 304 388 305 399 306 420 c 1
 291 418 281 417 246 408 c 0
 214 399 195 397 187 397 c 0
 158 397 150 417 150 431 c 0
 150 440 155 464 187 464 c 0
 208 464 239 456 260 450 c 0
 283 443 292 443 306 441 c 1xa0
 306 460 305 481 296 540 c 0
 292 567 283 628 283 663 c 0
 283 673 283 705 317 705 c 0
 350 705 350 672 350 663 c 0xc0
 350 627 343 582 338 545 c 1
 328 485 327 458 327 441 c 1
 342 443 352 444 387 453 c 0
 419 462 438 464 446 464 c 0
 475 464 483 444 483 430 c 0
 483 421 478 397 446 397 c 0
 425 397 394 405 373 411 c 0
 350 418 341 418 327 420 c 1xa0
EndSplineSet
Validated: 1
EndChar

StartChar: daggerdbl
Encoding: 8225 8225 234
Width: 633
Flags: W
HStem: -11 66<152.036 296.191 336.809 480.964> 444 67<152.188 297.892 335.108 480.812>
VStem: 283 67<-203.097 -6.36804 50.368 247.223 251.903 449.129 505.871 703.097> 306 21<-70.5502 12 32 114.55 387.761 467 488 567.239>
LayerCount: 2
Fore
SplineSet
327 467 m 1xd0
 328 444 329 433 339 375 c 1
 348 331 350 304 350 290 c 0
 350 278 347 250 316 250 c 0
 298 250 283 261 283 290 c 0xe0
 283 317 291 364 296 390 c 0
 304 434 305 446 306 467 c 1
 291 465 281 464 246 455 c 0
 214 446 195 444 187 444 c 0
 158 444 150 464 150 478 c 0
 150 487 155 511 187 511 c 0
 208 511 239 503 260 497 c 0
 283 490 292 490 306 488 c 1xd0
 305 511 304 522 294 580 c 1
 285 624 283 651 283 665 c 0
 283 677 286 705 317 705 c 0
 335 705 350 694 350 665 c 0xe0
 350 638 342 591 337 565 c 0
 329 521 328 509 327 488 c 1
 342 490 352 491 387 500 c 0
 419 509 438 511 446 511 c 0
 475 511 483 491 483 477 c 0
 483 468 478 444 446 444 c 0
 425 444 394 452 373 458 c 0
 350 465 341 465 327 467 c 1xd0
327 12 m 1xd0
 328 -11 329 -24 340 -87 c 0
 348 -129 350 -155 350 -165 c 0
 350 -177 347 -205 316 -205 c 0
 298 -205 283 -194 283 -165 c 0xe0
 283 -152 285 -127 295 -76 c 1
 304 -23 305 -8 306 12 c 1
 287 10 285 10 260 2 c 1
 217 -9 200 -11 184 -11 c 0
 160 -11 150 8 150 22 c 0
 150 36 159 55 184 55 c 0
 202 55 220 52 248 44 c 0
 254 43 284 34 306 32 c 1xd0
 305 55 304 68 293 131 c 0
 285 173 283 199 283 209 c 0
 283 239 299 249 316 249 c 0
 350 249 350 217 350 209 c 0xe0
 350 196 348 171 338 120 c 1
 329 67 328 52 327 32 c 1
 346 34 348 34 373 42 c 1
 416 53 433 55 449 55 c 0
 473 55 483 36 483 22 c 0
 483 8 474 -11 449 -11 c 0
 431 -11 413 -8 385 0 c 0
 379 1 349 10 327 12 c 1xd0
EndSplineSet
Validated: 1
EndChar

StartChar: uni22C4
Encoding: 8900 8900 235
Width: 776
Flags: W
LayerCount: 2
Fore
SplineSet
410 474 m 2
 613 271 l 2
 623 261 626 258 626 250 c 0
 626 242 622 238 621 237 c 2
 597 212 l 1
 426 41 l 1
 401 17 l 2
 396 12 390 12 388 12 c 0
 382 12 377 16 376 16 c 0
 374 19 360 33 351 41 c 2
 209 184 l 2
 191 202 157 236 154 238 c 1
 152 242 150 246 150 250 c 0
 150 257 152 259 163 270 c 2
 368 475 l 2
 379 486 381 488 388 488 c 0
 396 488 398 486 410 474 c 2
388 440 m 1
 199 250 l 1
 389 60 l 1
 578 250 l 1
 388 440 l 1
EndSplineSet
Validated: 1
EndChar

StartChar: divide
Encoding: 247 247 236
Width: 968
Flags: W
HStem: -29 126<436.709 531.291> 230 40<150.013 817.987> 403 126<436.709 531.291>
VStem: 420 128<-12.6961 80.6961 419.304 512.696>
CounterMasks: 1 e0
LayerCount: 2
Fore
SplineSet
548 466 m 0
 548 434 522 403 484 403 c 0
 447 403 420 434 420 466 c 0
 420 498 446 529 484 529 c 0
 521 529 548 498 548 466 c 0
548 34 m 0
 548 2 522 -29 484 -29 c 0
 447 -29 420 2 420 34 c 0
 420 66 446 97 484 97 c 0
 521 97 548 66 548 34 c 0
185 270 m 2
 783 270 l 2
 800 270 818 270 818 250 c 0
 818 230 800 230 783 230 c 2
 185 230 l 2
 168 230 150 230 150 250 c 0
 150 270 168 270 185 270 c 2
EndSplineSet
Validated: 1
EndChar

StartChar: uni22C7
Encoding: 8903 8903 237
Width: 965
Flags: W
HStem: -28 124<436.2 529.8> 230 40<150.013 433 532 814.987> 404 124<436.2 529.8>
VStem: 421 124<-12.7997 80.7997 419.2 512.8>
CounterMasks: 1 e0
LayerCount: 2
Fore
SplineSet
545 466 m 0
 545 432 517 404 483 404 c 0
 449 404 421 432 421 466 c 0
 421 500 449 528 483 528 c 0
 517 528 545 500 545 466 c 0
545 34 m 0
 545 0 517 -28 483 -28 c 0
 449 -28 421 0 421 34 c 0
 421 68 449 96 483 96 c 0
 517 96 545 68 545 34 c 0
710 449 m 2
 532 270 l 1
 780 270 l 2
 797 270 815 270 815 250 c 0
 815 230 797 230 780 230 c 2
 532 230 l 1
 710 51 l 2
 722 39 724 37 724 29 c 0
 724 18 716 9 704 9 c 0
 698 9 691 13 690 15 c 0
 677 27 531 174 482 222 c 1
 283 23 l 2
 271 11 269 9 261 9 c 0
 251 9 241 18 241 29 c 0
 241 35 244 41 255 52 c 2
 433 230 l 1
 185 230 l 2
 168 230 150 230 150 250 c 0
 150 270 168 270 185 270 c 2
 433 270 l 1
 255 449 l 2
 245 459 241 463 241 471 c 0
 241 482 251 491 261 491 c 0
 269 491 271 489 283 477 c 2
 483 278 l 1
 682 477 l 2
 692 487 696 491 704 491 c 0
 715 491 724 482 724 471 c 0
 724 463 722 461 710 449 c 2
EndSplineSet
Validated: 1
EndChar

StartChar: uni2214
Encoding: 8724 8724 238
Width: 966
Flags: W
HStem: 230 40<150.013 463 503 815.987> 666 100<441.965 524.035>
VStem: 433 100<675.232 757.162> 463 40<-93.9869 230 270 593.987>
LayerCount: 2
Fore
SplineSet
503 230 m 1xd0
 503 -59 l 2
 503 -76 503 -94 483 -94 c 0
 463 -94 463 -76 463 -59 c 2
 463 230 l 1
 185 230 l 2
 168 230 150 230 150 250 c 0
 150 270 168 270 185 270 c 2
 463 270 l 1
 463 559 l 2
 463 576 463 594 483 594 c 0
 503 594 503 576 503 559 c 2
 503 270 l 1
 781 270 l 2
 798 270 816 270 816 250 c 0
 816 230 798 230 781 230 c 2
 503 230 l 1xd0
533 716 m 0xe0
 533 687 509 666 483 666 c 0
 457 666 433 686 433 716 c 0
 433 745 456 766 483 766 c 0
 510 766 533 745 533 716 c 0xe0
EndSplineSet
Validated: 1
EndChar

StartChar: uni232D
Encoding: 9005 9005 239
Width: 798
Flags: W
HStem: 579 40<150.014 647.986> 773 40<150.014 647.986>
VStem: 150 42<-96.9738 -77> 606 42<-96.9738 -78>
LayerCount: 2
Fore
SplineSet
612 773 m 2
 186 773 l 2
 169 773 150 773 150 793 c 0
 150 813 168 813 185 813 c 2
 613 813 l 2
 630 813 648 813 648 793 c 0
 648 773 629 773 612 773 c 2
421 406 m 2
 642 -59 l 2
 644 -64 648 -71 648 -77 c 0
 648 -88 639 -97 628 -97 c 0
 617 -97 611 -90 606 -78 c 2
 399 359 l 1
 192 -77 l 2
 186 -89 183 -97 170 -97 c 0
 159 -97 150 -88 150 -77 c 0
 150 -76 150 -71 157 -57 c 2
 377 405 l 2
 382 416 386 425 399 425 c 0
 411 425 416 416 421 406 c 2
185 619 m 2
 613 619 l 2
 630 619 648 619 648 599 c 0
 648 579 629 579 612 579 c 2
 186 579 l 2
 169 579 150 579 150 599 c 0
 150 619 168 619 185 619 c 2
EndSplineSet
Validated: 1
EndChar

StartChar: uni22D7
Encoding: 8919 8919 240
Width: 911
Flags: W
HStem: -39 42<150.115 170> 187 126<265.397 360.033> 497 42<150.115 170>
VStem: 249 127<202.63 297.37>
CounterMasks: 1 e0
LayerCount: 2
Fore
SplineSet
376 250 m 0
 376 213 346 187 313 187 c 0
 277 187 249 216 249 250 c 0
 249 284 277 313 313 313 c 0
 346 313 376 287 376 250 c 0
188 533 m 2
 741 272 l 2
 753 266 761 263 761 250 c 0
 761 239 754 234 742 228 c 2
 186 -34 l 2
 179 -37 175 -39 170 -39 c 0
 160 -39 150 -30 150 -20 c 0
 150 -12 153 -5 170 3 c 2
 694 250 l 1
 170 497 l 2
 153 505 150 512 150 520 c 0
 150 530 160 539 170 539 c 0
 174 539 177 538 188 533 c 2
EndSplineSet
Validated: 1
EndChar

StartChar: uni22D6
Encoding: 8918 8918 241
Width: 911
Flags: W
HStem: -39 41<741 760.991> 187 126<550.967 645.603> 497 42<741 760.965>
VStem: 535 127<202.63 297.37>
LayerCount: 2
Fore
SplineSet
662 250 m 0
 662 216 634 187 598 187 c 0
 565 187 535 213 535 250 c 0
 535 287 565 313 598 313 c 0
 634 313 662 284 662 250 c 0
741 497 m 2
 217 250 l 1
 741 2 l 2
 754 -4 761 -7 761 -19 c 0
 761 -33 749 -39 741 -39 c 0
 737 -39 734 -38 723 -33 c 2
 170 228 l 2
 158 234 150 237 150 250 c 0
 150 261 157 266 169 272 c 2
 725 534 l 2
 732 537 736 539 741 539 c 0
 749 539 761 533 761 519 c 0
 761 511 757 504 741 497 c 2
EndSplineSet
Validated: 1
EndChar

StartChar: uni22C9
Encoding: 8905 8905 242
Width: 783
Flags: W
VStem: 150 40<77 422>
LayerCount: 2
Fore
SplineSet
619 449 m 2
 421 250 l 1
 473 197 622 49 628 42 c 0
 633 36 633 31 633 29 c 0
 633 18 625 9 613 9 c 0
 607 9 600 13 599 15 c 0
 586 27 440 174 391 222 c 1
 192 23 l 2
 180 11 178 9 170 9 c 0
 150 9 150 28 150 45 c 2
 150 455 l 2
 150 472 150 491 170 491 c 0
 178 491 180 489 192 477 c 2
 392 278 l 1
 591 477 l 2
 601 487 605 491 613 491 c 0
 624 491 633 482 633 471 c 0
 633 463 631 461 619 449 c 2
190 77 m 1
 362 250 l 1
 190 422 l 1
 190 77 l 1
EndSplineSet
Validated: 1
EndChar

